<svg version="1.1" xmlns="http://www.w3.org/2000/svg" xmlns:xlink="http://www.w3.org/1999/xlink" width="161.92626953125" height="245"><defs/><g><text fill="#eeeeee" stroke="none" font-family="Arial" font-size="24px" font-style="normal" font-weight="normal" text-decoration="none" x="0" y="0">UNREGISTERED</text><text fill="#eeeeee" stroke="none" font-family="Arial" font-size="24px" font-style="normal" font-weight="normal" text-decoration="none" x="0" y="30">UNREGISTERED</text><text fill="#eeeeee" stroke="none" font-family="Arial" font-size="24px" font-style="normal" font-weight="normal" text-decoration="none" x="0" y="60">UNREGISTERED</text><text fill="#eeeeee" stroke="none" font-family="Arial" font-size="24px" font-style="normal" font-weight="normal" text-decoration="none" x="0" y="90">UNREGISTERED</text><text fill="#eeeeee" stroke="none" font-family="Arial" font-size="24px" font-style="normal" font-weight="normal" text-decoration="none" x="0" y="120">UNREGISTERED</text><text fill="#eeeeee" stroke="none" font-family="Arial" font-size="24px" font-style="normal" font-weight="normal" text-decoration="none" x="0" y="150">UNREGISTERED</text><text fill="#eeeeee" stroke="none" font-family="Arial" font-size="24px" font-style="normal" font-weight="normal" text-decoration="none" x="0" y="180">UNREGISTERED</text><text fill="#eeeeee" stroke="none" font-family="Arial" font-size="24px" font-style="normal" font-weight="normal" text-decoration="none" x="0" y="210">UNREGISTERED</text><text fill="#eeeeee" stroke="none" font-family="Arial" font-size="24px" font-style="normal" font-weight="normal" text-decoration="none" x="0" y="240">UNREGISTERED</text><g transform="translate(-822,-534) scale(1,1)"><path fill="#C0C0C0" stroke="none" d="M 903 560.5 C 903 555.2532944 907.2532944 551 912.5 551 C 917.7467056 551 922 555.2532944 922 560.5 C 922 565.7467056 917.7467056 570 912.5 570 C 907.2532944 570 903 565.7467056 903 560.5 Z" opacity="0.2"/></g><g transform="translate(-822,-534) scale(1,1)"><path fill="#000000" stroke="none" d="M 896 553.5 C 896 548.2532944 900.2532944 544 905.5 544 C 910.7467056 544 915 548.2532944 915 553.5 C 915 558.7467056 910.7467056 563 905.5 563 C 900.2532944 563 896 558.7467056 896 553.5 Z"/></g><g transform="translate(-822,-534) scale(1,1)"><path fill="#C0C0C0" stroke="none" d="M 849 623 L 970.92626953125 623 Q 980.92626953125 623 980.92626953125 633 L 980.92626953125 660 Q 980.92626953125 670 970.92626953125 670 L 849 670 Q 839 670 839 660 L 839 633 Q 839 623 849 623 Z" opacity="0.2"/></g><g transform="translate(-822,-534) scale(1,1)"><path fill="#ffffff" stroke="none" d="M 842 616 L 963.92626953125 616 Q 973.92626953125 616 973.92626953125 626 L 973.92626953125 653 Q 973.92626953125 663 963.92626953125 663 L 842 663 Q 832 663 832 653 L 832 626 Q 832 616 842 616 Z"/></g><g transform="translate(-822,-534) scale(1,1)"><path fill="none" stroke="#000000" d="M 842 616 L 963.92626953125 616 Q 973.92626953125 616 973.92626953125 626 L 973.92626953125 653 Q 973.92626953125 663 963.92626953125 663 L 842 663 Q 832 663 832 653 L 832 626 Q 832 616 842 616 Z" stroke-miterlimit="10"/></g><g transform="translate(-822,-534) scale(1,1)"><g><path fill="none" stroke="none"/><text fill="#000000" stroke="none" font-family="Arial" font-size="13px" font-style="normal" font-weight="bold" text-decoration="none" x="841.898681640625" y="635.5">generate prescription</text></g></g><g transform="translate(-822,-534) scale(1,1)"><path fill="#C0C0C0" stroke="none" d="M 895 763.5 C 895 756.59644 900.59644 751 907.5 751 C 914.40356 751 920 756.59644 920 763.5 C 920 770.40356 914.40356 776 907.5 776 C 900.59644 776 895 770.40356 895 763.5 Z" opacity="0.2"/></g><g transform="translate(-822,-534) scale(1,1)"><path fill="none" stroke="#000000" d="M 888 756.5 C 888 749.59644 893.59644 744 900.5 744 C 907.40356 744 913 749.59644 913 756.5 C 913 763.40356 907.40356 769 900.5 769 C 893.59644 769 888 763.40356 888 756.5 Z" stroke-miterlimit="10"/></g><g transform="translate(-822,-534) scale(1,1)"><path fill="#000000" stroke="none" d="M 893 756.5 C 893 752.357864 896.357864 749 900.5 749 C 904.642136 749 908 752.357864 908 756.5 C 908 760.642136 904.642136 764 900.5 764 C 896.357864 764 893 760.642136 893 756.5 Z"/></g><g transform="translate(-822,-534) scale(1,1)"><path fill="none" stroke="#000000" d="M 905 564 L 903 615" stroke-miterlimit="10"/></g><g transform="translate(-822,-534) scale(1,1)"><path fill="none" stroke="#000000" d="M 899.1919455344537 604.6801782385821 L 903 615 L 907.6045148124196 605.0100829161495" stroke-miterlimit="10"/></g><g transform="translate(-822,-534) scale(1,1)"><path fill="none" stroke="#000000" d="M 902 664 L 900 743" stroke-miterlimit="10"/></g><g transform="translate(-822,-534) scale(1,1)"><path fill="none" stroke="#000000" d="M 896.0490310822491 732.7340443888079 L 900 743 L 904.465369914035 732.9471162579671" stroke-miterlimit="10"/></g></g></svg>