<svg version="1.1" xmlns="http://www.w3.org/2000/svg" xmlns:xlink="http://www.w3.org/1999/xlink" width="421" height="461"><defs/><g><text fill="#eeeeee" stroke="none" font-family="Arial" font-size="24px" font-style="normal" font-weight="normal" text-decoration="none" x="0" y="0">UNREGISTERED</text><text fill="#eeeeee" stroke="none" font-family="Arial" font-size="24px" font-style="normal" font-weight="normal" text-decoration="none" x="0" y="30">UNREGISTERED</text><text fill="#eeeeee" stroke="none" font-family="Arial" font-size="24px" font-style="normal" font-weight="normal" text-decoration="none" x="0" y="60">UNREGISTERED</text><text fill="#eeeeee" stroke="none" font-family="Arial" font-size="24px" font-style="normal" font-weight="normal" text-decoration="none" x="0" y="90">UNREGISTERED</text><text fill="#eeeeee" stroke="none" font-family="Arial" font-size="24px" font-style="normal" font-weight="normal" text-decoration="none" x="0" y="120">UNREGISTERED</text><text fill="#eeeeee" stroke="none" font-family="Arial" font-size="24px" font-style="normal" font-weight="normal" text-decoration="none" x="0" y="150">UNREGISTERED</text><text fill="#eeeeee" stroke="none" font-family="Arial" font-size="24px" font-style="normal" font-weight="normal" text-decoration="none" x="0" y="180">UNREGISTERED</text><text fill="#eeeeee" stroke="none" font-family="Arial" font-size="24px" font-style="normal" font-weight="normal" text-decoration="none" x="0" y="210">UNREGISTERED</text><text fill="#eeeeee" stroke="none" font-family="Arial" font-size="24px" font-style="normal" font-weight="normal" text-decoration="none" x="0" y="240">UNREGISTERED</text><text fill="#eeeeee" stroke="none" font-family="Arial" font-size="24px" font-style="normal" font-weight="normal" text-decoration="none" x="0" y="270">UNREGISTERED</text><text fill="#eeeeee" stroke="none" font-family="Arial" font-size="24px" font-style="normal" font-weight="normal" text-decoration="none" x="0" y="300">UNREGISTERED</text><text fill="#eeeeee" stroke="none" font-family="Arial" font-size="24px" font-style="normal" font-weight="normal" text-decoration="none" x="0" y="330">UNREGISTERED</text><text fill="#eeeeee" stroke="none" font-family="Arial" font-size="24px" font-style="normal" font-weight="normal" text-decoration="none" x="0" y="360">UNREGISTERED</text><text fill="#eeeeee" stroke="none" font-family="Arial" font-size="24px" font-style="normal" font-weight="normal" text-decoration="none" x="0" y="390">UNREGISTERED</text><text fill="#eeeeee" stroke="none" font-family="Arial" font-size="24px" font-style="normal" font-weight="normal" text-decoration="none" x="0" y="420">UNREGISTERED</text><text fill="#eeeeee" stroke="none" font-family="Arial" font-size="24px" font-style="normal" font-weight="normal" text-decoration="none" x="0" y="450">UNREGISTERED</text><text fill="#eeeeee" stroke="none" font-family="Arial" font-size="24px" font-style="normal" font-weight="normal" text-decoration="none" x="200" y="0">UNREGISTERED</text><text fill="#eeeeee" stroke="none" font-family="Arial" font-size="24px" font-style="normal" font-weight="normal" text-decoration="none" x="200" y="30">UNREGISTERED</text><text fill="#eeeeee" stroke="none" font-family="Arial" font-size="24px" font-style="normal" font-weight="normal" text-decoration="none" x="200" y="60">UNREGISTERED</text><text fill="#eeeeee" stroke="none" font-family="Arial" font-size="24px" font-style="normal" font-weight="normal" text-decoration="none" x="200" y="90">UNREGISTERED</text><text fill="#eeeeee" stroke="none" font-family="Arial" font-size="24px" font-style="normal" font-weight="normal" text-decoration="none" x="200" y="120">UNREGISTERED</text><text fill="#eeeeee" stroke="none" font-family="Arial" font-size="24px" font-style="normal" font-weight="normal" text-decoration="none" x="200" y="150">UNREGISTERED</text><text fill="#eeeeee" stroke="none" font-family="Arial" font-size="24px" font-style="normal" font-weight="normal" text-decoration="none" x="200" y="180">UNREGISTERED</text><text fill="#eeeeee" stroke="none" font-family="Arial" font-size="24px" font-style="normal" font-weight="normal" text-decoration="none" x="200" y="210">UNREGISTERED</text><text fill="#eeeeee" stroke="none" font-family="Arial" font-size="24px" font-style="normal" font-weight="normal" text-decoration="none" x="200" y="240">UNREGISTERED</text><text fill="#eeeeee" stroke="none" font-family="Arial" font-size="24px" font-style="normal" font-weight="normal" text-decoration="none" x="200" y="270">UNREGISTERED</text><text fill="#eeeeee" stroke="none" font-family="Arial" font-size="24px" font-style="normal" font-weight="normal" text-decoration="none" x="200" y="300">UNREGISTERED</text><text fill="#eeeeee" stroke="none" font-family="Arial" font-size="24px" font-style="normal" font-weight="normal" text-decoration="none" x="200" y="330">UNREGISTERED</text><text fill="#eeeeee" stroke="none" font-family="Arial" font-size="24px" font-style="normal" font-weight="normal" text-decoration="none" x="200" y="360">UNREGISTERED</text><text fill="#eeeeee" stroke="none" font-family="Arial" font-size="24px" font-style="normal" font-weight="normal" text-decoration="none" x="200" y="390">UNREGISTERED</text><text fill="#eeeeee" stroke="none" font-family="Arial" font-size="24px" font-style="normal" font-weight="normal" text-decoration="none" x="200" y="420">UNREGISTERED</text><text fill="#eeeeee" stroke="none" font-family="Arial" font-size="24px" font-style="normal" font-weight="normal" text-decoration="none" x="200" y="450">UNREGISTERED</text><text fill="#eeeeee" stroke="none" font-family="Arial" font-size="24px" font-style="normal" font-weight="normal" text-decoration="none" x="400" y="0">UNREGISTERED</text><text fill="#eeeeee" stroke="none" font-family="Arial" font-size="24px" font-style="normal" font-weight="normal" text-decoration="none" x="400" y="30">UNREGISTERED</text><text fill="#eeeeee" stroke="none" font-family="Arial" font-size="24px" font-style="normal" font-weight="normal" text-decoration="none" x="400" y="60">UNREGISTERED</text><text fill="#eeeeee" stroke="none" font-family="Arial" font-size="24px" font-style="normal" font-weight="normal" text-decoration="none" x="400" y="90">UNREGISTERED</text><text fill="#eeeeee" stroke="none" font-family="Arial" font-size="24px" font-style="normal" font-weight="normal" text-decoration="none" x="400" y="120">UNREGISTERED</text><text fill="#eeeeee" stroke="none" font-family="Arial" font-size="24px" font-style="normal" font-weight="normal" text-decoration="none" x="400" y="150">UNREGISTERED</text><text fill="#eeeeee" stroke="none" font-family="Arial" font-size="24px" font-style="normal" font-weight="normal" text-decoration="none" x="400" y="180">UNREGISTERED</text><text fill="#eeeeee" stroke="none" font-family="Arial" font-size="24px" font-style="normal" font-weight="normal" text-decoration="none" x="400" y="210">UNREGISTERED</text><text fill="#eeeeee" stroke="none" font-family="Arial" font-size="24px" font-style="normal" font-weight="normal" text-decoration="none" x="400" y="240">UNREGISTERED</text><text fill="#eeeeee" stroke="none" font-family="Arial" font-size="24px" font-style="normal" font-weight="normal" text-decoration="none" x="400" y="270">UNREGISTERED</text><text fill="#eeeeee" stroke="none" font-family="Arial" font-size="24px" font-style="normal" font-weight="normal" text-decoration="none" x="400" y="300">UNREGISTERED</text><text fill="#eeeeee" stroke="none" font-family="Arial" font-size="24px" font-style="normal" font-weight="normal" text-decoration="none" x="400" y="330">UNREGISTERED</text><text fill="#eeeeee" stroke="none" font-family="Arial" font-size="24px" font-style="normal" font-weight="normal" text-decoration="none" x="400" y="360">UNREGISTERED</text><text fill="#eeeeee" stroke="none" font-family="Arial" font-size="24px" font-style="normal" font-weight="normal" text-decoration="none" x="400" y="390">UNREGISTERED</text><text fill="#eeeeee" stroke="none" font-family="Arial" font-size="24px" font-style="normal" font-weight="normal" text-decoration="none" x="400" y="420">UNREGISTERED</text><text fill="#eeeeee" stroke="none" font-family="Arial" font-size="24px" font-style="normal" font-weight="normal" text-decoration="none" x="400" y="450">UNREGISTERED</text><g transform="translate(-422,-510) scale(1,1)"><path fill="#C0C0C0" stroke="none" d="M 575 536.5 C 575 531.2532944 579.2532944 527 584.5 527 C 589.7467056 527 594 531.2532944 594 536.5 C 594 541.7467056 589.7467056 546 584.5 546 C 579.2532944 546 575 541.7467056 575 536.5 Z" opacity="0.2"/></g><g transform="translate(-422,-510) scale(1,1)"><path fill="#000000" stroke="none" d="M 568 529.5 C 568 524.2532944 572.2532944 520 577.5 520 C 582.7467056 520 587 524.2532944 587 529.5 C 587 534.7467056 582.7467056 539 577.5 539 C 572.2532944 539 568 534.7467056 568 529.5 Z"/></g><g transform="translate(-422,-510) scale(1,1)"><path fill="#C0C0C0" stroke="none" d="M 473 607 L 696.79345703125 607 Q 706.79345703125 607 706.79345703125 617 L 706.79345703125 645 Q 706.79345703125 655 696.79345703125 655 L 473 655 Q 463 655 463 645 L 463 617 Q 463 607 473 607 Z" opacity="0.2"/></g><g transform="translate(-422,-510) scale(1,1)"><path fill="#ffffff" stroke="none" d="M 466 600 L 689.79345703125 600 Q 699.79345703125 600 699.79345703125 610 L 699.79345703125 638 Q 699.79345703125 648 689.79345703125 648 L 466 648 Q 456 648 456 638 L 456 610 Q 456 600 466 600 Z"/></g><g transform="translate(-422,-510) scale(1,1)"><path fill="none" stroke="#000000" d="M 466 600 L 689.79345703125 600 Q 699.79345703125 600 699.79345703125 610 L 699.79345703125 638 Q 699.79345703125 648 689.79345703125 648 L 466 648 Q 456 648 456 638 L 456 610 Q 456 600 466 600 Z" stroke-miterlimit="10"/></g><g transform="translate(-422,-510) scale(1,1)"><g><path fill="none" stroke="none"/><text fill="#000000" stroke="none" font-family="Arial" font-size="13px" font-style="normal" font-weight="bold" text-decoration="none" x="469.12646484375" y="619.5">choose doctor and schedule available</text></g></g><g transform="translate(-422,-510) scale(1,1)"><path fill="#C0C0C0" stroke="none" d="M 583 955.5 C 583 948.59644 588.59644 943 595.5 943 C 602.40356 943 608 948.59644 608 955.5 C 608 962.40356 602.40356 968 595.5 968 C 588.59644 968 583 962.40356 583 955.5 Z" opacity="0.2"/></g><g transform="translate(-422,-510) scale(1,1)"><path fill="none" stroke="#000000" d="M 576 948.5 C 576 941.59644 581.59644 936 588.5 936 C 595.40356 936 601 941.59644 601 948.5 C 601 955.40356 595.40356 961 588.5 961 C 581.59644 961 576 955.40356 576 948.5 Z" stroke-miterlimit="10"/></g><g transform="translate(-422,-510) scale(1,1)"><path fill="#000000" stroke="none" d="M 581 948.5 C 581 944.357864 584.357864 941 588.5 941 C 592.642136 941 596 944.357864 596 948.5 C 596 952.642136 592.642136 956 588.5 956 C 584.357864 956 581 952.642136 581 948.5 Z"/></g><g transform="translate(-422,-510) scale(1,1)"><path fill="#C0C0C0" stroke="none" d="M 513 719 L 653 719 Q 663 719 663 729 L 663 749 Q 663 759 653 759 L 513 759 Q 503 759 503 749 L 503 729 Q 503 719 513 719 Z" opacity="0.2"/></g><g transform="translate(-422,-510) scale(1,1)"><path fill="#ffffff" stroke="none" d="M 506 712 L 646 712 Q 656 712 656 722 L 656 742 Q 656 752 646 752 L 506 752 Q 496 752 496 742 L 496 722 Q 496 712 506 712 Z"/></g><g transform="translate(-422,-510) scale(1,1)"><path fill="none" stroke="#000000" d="M 506 712 L 646 712 Q 656 712 656 722 L 656 742 Q 656 752 646 752 L 506 752 Q 496 752 496 742 L 496 722 Q 496 712 506 712 Z" stroke-miterlimit="10"/></g><g transform="translate(-422,-510) scale(1,1)"><g><path fill="none" stroke="none"/><text fill="#000000" stroke="none" font-family="Arial" font-size="13px" font-style="normal" font-weight="bold" text-decoration="none" x="534.095947265625" y="731.5">confirm choice</text></g></g><g transform="translate(-422,-510) scale(1,1)"><path fill="none" stroke="#000000" d="M 577 540 L 577 599" stroke-miterlimit="10"/></g><g transform="translate(-422,-510) scale(1,1)"><path fill="none" stroke="#000000" d="M 572.790482243984 588.8373251423759 L 577 599 L 581.209517756016 588.8373251423759" stroke-miterlimit="10"/></g><g transform="translate(-422,-510) scale(1,1)"><path fill="#C0C0C0" stroke="none" d="M 575 800.5 L 586.5 791 L 597 800.5 L 586.5 809 L 575 800.5" opacity="0.2"/></g><g transform="translate(-422,-510) scale(1,1)"><path fill="#ffffff" stroke="none" d="M 568 793 L 579 784 L 590 793 L 579 802 L 568 793"/></g><g transform="translate(-422,-510) scale(1,1)"><path fill="none" stroke="#000000" d="M 568 793 L 579 784 L 590 793 L 579 802 L 568 793 L 568 793" stroke-miterlimit="10"/></g><g transform="translate(-422,-510) scale(1,1)"><path fill="#C0C0C0" stroke="none" d="M 449 839 L 516 839 Q 526 839 526 849 L 526 869 Q 526 879 516 879 L 449 879 Q 439 879 439 869 L 439 849 Q 439 839 449 839 Z" opacity="0.2"/></g><g transform="translate(-422,-510) scale(1,1)"><path fill="#ffffff" stroke="none" d="M 442 832 L 509 832 Q 519 832 519 842 L 519 862 Q 519 872 509 872 L 442 872 Q 432 872 432 862 L 432 842 Q 432 832 442 832 Z"/></g><g transform="translate(-422,-510) scale(1,1)"><path fill="none" stroke="#000000" d="M 442 832 L 509 832 Q 519 832 519 842 L 519 862 Q 519 872 509 872 L 442 872 Q 432 872 432 862 L 432 842 Q 432 832 442 832 Z" stroke-miterlimit="10"/></g><g transform="translate(-422,-510) scale(1,1)"><g><path fill="none" stroke="none"/><text fill="#000000" stroke="none" font-family="Arial" font-size="13px" font-style="normal" font-weight="bold" text-decoration="none" x="465.385009765625" y="851.5">yes</text></g></g><g transform="translate(-422,-510) scale(1,1)"><path fill="#C0C0C0" stroke="none" d="M 657 839 L 700 839 Q 710 839 710 849 L 710 869 Q 710 879 700 879 L 657 879 Q 647 879 647 869 L 647 849 Q 647 839 657 839 Z" opacity="0.2"/></g><g transform="translate(-422,-510) scale(1,1)"><path fill="#ffffff" stroke="none" d="M 650 832 L 693 832 Q 703 832 703 842 L 703 862 Q 703 872 693 872 L 650 872 Q 640 872 640 862 L 640 842 Q 640 832 650 832 Z"/></g><g transform="translate(-422,-510) scale(1,1)"><path fill="none" stroke="#000000" d="M 650 832 L 693 832 Q 703 832 703 842 L 703 862 Q 703 872 693 872 L 650 872 Q 640 872 640 862 L 640 842 Q 640 832 650 832 Z" stroke-miterlimit="10"/></g><g transform="translate(-422,-510) scale(1,1)"><g><path fill="none" stroke="none"/><text fill="#000000" stroke="none" font-family="Arial" font-size="13px" font-style="normal" font-weight="bold" text-decoration="none" x="664.27001953125" y="851.5">no</text></g></g><g transform="translate(-422,-510) scale(1,1)"><path fill="none" stroke="#000000" d="M 577 649 L 576 711" stroke-miterlimit="10"/></g><g transform="translate(-422,-510) scale(1,1)"><path fill="none" stroke="#000000" d="M 571.954922475101 700.7707601544613 L 576 711 L 580.3728631128827 700.9065333905545" stroke-miterlimit="10"/></g><g transform="translate(-422,-510) scale(1,1)"><path fill="none" stroke="#000000" d="M 577 753 L 579 783" stroke-miterlimit="10"/></g><g transform="translate(-422,-510) scale(1,1)"><path fill="none" stroke="#000000" d="M 574.1237945855094 773.1398468188526 L 579 783 L 582.5241832628826 772.5798209070276" stroke-miterlimit="10"/></g><g transform="translate(-422,-510) scale(1,1)"><path fill="none" stroke="#000000" d="M 568 792 L 480 792 L 480 832" stroke-miterlimit="10"/></g><g transform="translate(-422,-510) scale(1,1)"><path fill="none" stroke="#000000" d="M 475.790482243984 821.8373251423759 L 480 832 L 484.209517756016 821.8373251423759" stroke-miterlimit="10"/></g><g transform="translate(-422,-510) scale(1,1)"><path fill="none" stroke="#000000" d="M 590 792 L 680 792 L 680 832" stroke-miterlimit="10"/></g><g transform="translate(-422,-510) scale(1,1)"><path fill="none" stroke="#000000" d="M 675.790482243984 821.8373251423759 L 680 832 L 684.209517756016 821.8373251423759" stroke-miterlimit="10"/></g><g transform="translate(-422,-510) scale(1,1)"><path fill="none" stroke="#000000" d="M 482 873 Q 504 944 575 947" stroke-miterlimit="10"/></g><g transform="translate(-422,-510) scale(1,1)"><path fill="none" stroke="#000000" d="M 564.6686766481845 950.7767390431736 L 575 947 L 565.0240934111002 942.3652089875004" stroke-miterlimit="10"/></g><g transform="translate(-422,-510) scale(1,1)"><path fill="none" stroke="#000000" d="M 704 853 Q 816 856 824 740 Q 832 624 701 624" stroke-miterlimit="10"/></g><g transform="translate(-422,-510) scale(1,1)"><path fill="none" stroke="#000000" d="M 711.1626748576241 619.790482243984 L 701 624 L 711.1626748576241 628.209517756016" stroke-miterlimit="10"/></g></g></svg>