<svg version="1.1" xmlns="http://www.w3.org/2000/svg" xmlns:xlink="http://www.w3.org/1999/xlink" width="228.42431640625" height="725"><defs/><g><text fill="#eeeeee" stroke="none" font-family="Arial" font-size="24px" font-style="normal" font-weight="normal" text-decoration="none" x="0" y="0">UNREGISTERED</text><text fill="#eeeeee" stroke="none" font-family="Arial" font-size="24px" font-style="normal" font-weight="normal" text-decoration="none" x="0" y="30">UNREGISTERED</text><text fill="#eeeeee" stroke="none" font-family="Arial" font-size="24px" font-style="normal" font-weight="normal" text-decoration="none" x="0" y="60">UNREGISTERED</text><text fill="#eeeeee" stroke="none" font-family="Arial" font-size="24px" font-style="normal" font-weight="normal" text-decoration="none" x="0" y="90">UNREGISTERED</text><text fill="#eeeeee" stroke="none" font-family="Arial" font-size="24px" font-style="normal" font-weight="normal" text-decoration="none" x="0" y="120">UNREGISTERED</text><text fill="#eeeeee" stroke="none" font-family="Arial" font-size="24px" font-style="normal" font-weight="normal" text-decoration="none" x="0" y="150">UNREGISTERED</text><text fill="#eeeeee" stroke="none" font-family="Arial" font-size="24px" font-style="normal" font-weight="normal" text-decoration="none" x="0" y="180">UNREGISTERED</text><text fill="#eeeeee" stroke="none" font-family="Arial" font-size="24px" font-style="normal" font-weight="normal" text-decoration="none" x="0" y="210">UNREGISTERED</text><text fill="#eeeeee" stroke="none" font-family="Arial" font-size="24px" font-style="normal" font-weight="normal" text-decoration="none" x="0" y="240">UNREGISTERED</text><text fill="#eeeeee" stroke="none" font-family="Arial" font-size="24px" font-style="normal" font-weight="normal" text-decoration="none" x="0" y="270">UNREGISTERED</text><text fill="#eeeeee" stroke="none" font-family="Arial" font-size="24px" font-style="normal" font-weight="normal" text-decoration="none" x="0" y="300">UNREGISTERED</text><text fill="#eeeeee" stroke="none" font-family="Arial" font-size="24px" font-style="normal" font-weight="normal" text-decoration="none" x="0" y="330">UNREGISTERED</text><text fill="#eeeeee" stroke="none" font-family="Arial" font-size="24px" font-style="normal" font-weight="normal" text-decoration="none" x="0" y="360">UNREGISTERED</text><text fill="#eeeeee" stroke="none" font-family="Arial" font-size="24px" font-style="normal" font-weight="normal" text-decoration="none" x="0" y="390">UNREGISTERED</text><text fill="#eeeeee" stroke="none" font-family="Arial" font-size="24px" font-style="normal" font-weight="normal" text-decoration="none" x="0" y="420">UNREGISTERED</text><text fill="#eeeeee" stroke="none" font-family="Arial" font-size="24px" font-style="normal" font-weight="normal" text-decoration="none" x="0" y="450">UNREGISTERED</text><text fill="#eeeeee" stroke="none" font-family="Arial" font-size="24px" font-style="normal" font-weight="normal" text-decoration="none" x="0" y="480">UNREGISTERED</text><text fill="#eeeeee" stroke="none" font-family="Arial" font-size="24px" font-style="normal" font-weight="normal" text-decoration="none" x="0" y="510">UNREGISTERED</text><text fill="#eeeeee" stroke="none" font-family="Arial" font-size="24px" font-style="normal" font-weight="normal" text-decoration="none" x="0" y="540">UNREGISTERED</text><text fill="#eeeeee" stroke="none" font-family="Arial" font-size="24px" font-style="normal" font-weight="normal" text-decoration="none" x="0" y="570">UNREGISTERED</text><text fill="#eeeeee" stroke="none" font-family="Arial" font-size="24px" font-style="normal" font-weight="normal" text-decoration="none" x="0" y="600">UNREGISTERED</text><text fill="#eeeeee" stroke="none" font-family="Arial" font-size="24px" font-style="normal" font-weight="normal" text-decoration="none" x="0" y="630">UNREGISTERED</text><text fill="#eeeeee" stroke="none" font-family="Arial" font-size="24px" font-style="normal" font-weight="normal" text-decoration="none" x="0" y="660">UNREGISTERED</text><text fill="#eeeeee" stroke="none" font-family="Arial" font-size="24px" font-style="normal" font-weight="normal" text-decoration="none" x="0" y="690">UNREGISTERED</text><text fill="#eeeeee" stroke="none" font-family="Arial" font-size="24px" font-style="normal" font-weight="normal" text-decoration="none" x="0" y="720">UNREGISTERED</text><text fill="#eeeeee" stroke="none" font-family="Arial" font-size="24px" font-style="normal" font-weight="normal" text-decoration="none" x="200" y="0">UNREGISTERED</text><text fill="#eeeeee" stroke="none" font-family="Arial" font-size="24px" font-style="normal" font-weight="normal" text-decoration="none" x="200" y="30">UNREGISTERED</text><text fill="#eeeeee" stroke="none" font-family="Arial" font-size="24px" font-style="normal" font-weight="normal" text-decoration="none" x="200" y="60">UNREGISTERED</text><text fill="#eeeeee" stroke="none" font-family="Arial" font-size="24px" font-style="normal" font-weight="normal" text-decoration="none" x="200" y="90">UNREGISTERED</text><text fill="#eeeeee" stroke="none" font-family="Arial" font-size="24px" font-style="normal" font-weight="normal" text-decoration="none" x="200" y="120">UNREGISTERED</text><text fill="#eeeeee" stroke="none" font-family="Arial" font-size="24px" font-style="normal" font-weight="normal" text-decoration="none" x="200" y="150">UNREGISTERED</text><text fill="#eeeeee" stroke="none" font-family="Arial" font-size="24px" font-style="normal" font-weight="normal" text-decoration="none" x="200" y="180">UNREGISTERED</text><text fill="#eeeeee" stroke="none" font-family="Arial" font-size="24px" font-style="normal" font-weight="normal" text-decoration="none" x="200" y="210">UNREGISTERED</text><text fill="#eeeeee" stroke="none" font-family="Arial" font-size="24px" font-style="normal" font-weight="normal" text-decoration="none" x="200" y="240">UNREGISTERED</text><text fill="#eeeeee" stroke="none" font-family="Arial" font-size="24px" font-style="normal" font-weight="normal" text-decoration="none" x="200" y="270">UNREGISTERED</text><text fill="#eeeeee" stroke="none" font-family="Arial" font-size="24px" font-style="normal" font-weight="normal" text-decoration="none" x="200" y="300">UNREGISTERED</text><text fill="#eeeeee" stroke="none" font-family="Arial" font-size="24px" font-style="normal" font-weight="normal" text-decoration="none" x="200" y="330">UNREGISTERED</text><text fill="#eeeeee" stroke="none" font-family="Arial" font-size="24px" font-style="normal" font-weight="normal" text-decoration="none" x="200" y="360">UNREGISTERED</text><text fill="#eeeeee" stroke="none" font-family="Arial" font-size="24px" font-style="normal" font-weight="normal" text-decoration="none" x="200" y="390">UNREGISTERED</text><text fill="#eeeeee" stroke="none" font-family="Arial" font-size="24px" font-style="normal" font-weight="normal" text-decoration="none" x="200" y="420">UNREGISTERED</text><text fill="#eeeeee" stroke="none" font-family="Arial" font-size="24px" font-style="normal" font-weight="normal" text-decoration="none" x="200" y="450">UNREGISTERED</text><text fill="#eeeeee" stroke="none" font-family="Arial" font-size="24px" font-style="normal" font-weight="normal" text-decoration="none" x="200" y="480">UNREGISTERED</text><text fill="#eeeeee" stroke="none" font-family="Arial" font-size="24px" font-style="normal" font-weight="normal" text-decoration="none" x="200" y="510">UNREGISTERED</text><text fill="#eeeeee" stroke="none" font-family="Arial" font-size="24px" font-style="normal" font-weight="normal" text-decoration="none" x="200" y="540">UNREGISTERED</text><text fill="#eeeeee" stroke="none" font-family="Arial" font-size="24px" font-style="normal" font-weight="normal" text-decoration="none" x="200" y="570">UNREGISTERED</text><text fill="#eeeeee" stroke="none" font-family="Arial" font-size="24px" font-style="normal" font-weight="normal" text-decoration="none" x="200" y="600">UNREGISTERED</text><text fill="#eeeeee" stroke="none" font-family="Arial" font-size="24px" font-style="normal" font-weight="normal" text-decoration="none" x="200" y="630">UNREGISTERED</text><text fill="#eeeeee" stroke="none" font-family="Arial" font-size="24px" font-style="normal" font-weight="normal" text-decoration="none" x="200" y="660">UNREGISTERED</text><text fill="#eeeeee" stroke="none" font-family="Arial" font-size="24px" font-style="normal" font-weight="normal" text-decoration="none" x="200" y="690">UNREGISTERED</text><text fill="#eeeeee" stroke="none" font-family="Arial" font-size="24px" font-style="normal" font-weight="normal" text-decoration="none" x="200" y="720">UNREGISTERED</text><g transform="translate(-710,-262) scale(1,1)"><path fill="#C0C0C0" stroke="none" d="M 799 288.5 C 799 283.2532944 803.2532944 279 808.5 279 C 813.7467056 279 818 283.2532944 818 288.5 C 818 293.7467056 813.7467056 298 808.5 298 C 803.2532944 298 799 293.7467056 799 288.5 Z" opacity="0.2"/></g><g transform="translate(-710,-262) scale(1,1)"><path fill="#000000" stroke="none" d="M 792 281.5 C 792 276.2532944 796.2532944 272 801.5 272 C 806.7467056 272 811 276.2532944 811 281.5 C 811 286.7467056 806.7467056 291 801.5 291 C 796.2532944 291 792 286.7467056 792 281.5 Z"/></g><g transform="translate(-710,-262) scale(1,1)"><path fill="#C0C0C0" stroke="none" d="M 737 367 L 884 367 Q 894 367 894 377 L 894 396 Q 894 406 884 406 L 737 406 Q 727 406 727 396 L 727 377 Q 727 367 737 367 Z" opacity="0.2"/></g><g transform="translate(-710,-262) scale(1,1)"><path fill="#ffffff" stroke="none" d="M 730 360 L 877 360 Q 887 360 887 370 L 887 389 Q 887 399 877 399 L 730 399 Q 720 399 720 389 L 720 370 Q 720 360 730 360 Z"/></g><g transform="translate(-710,-262) scale(1,1)"><path fill="none" stroke="#000000" d="M 730 360 L 877 360 Q 887 360 887 370 L 887 389 Q 887 399 877 399 L 730 399 Q 720 399 720 389 L 720 370 Q 720 360 730 360 Z" stroke-miterlimit="10"/></g><g transform="translate(-710,-262) scale(1,1)"><g><path fill="none" stroke="none"/><text fill="#000000" stroke="none" font-family="Arial" font-size="13px" font-style="normal" font-weight="bold" text-decoration="none" x="772.7900390625" y="379.5">registrated</text></g></g><g transform="translate(-710,-262) scale(1,1)"><path fill="none" stroke="#000000" d="M 801 292 L 803 359" stroke-miterlimit="10"/></g><g transform="translate(-710,-262) scale(1,1)"><path fill="none" stroke="#000000" d="M 798.4891281125524 348.96745123036845 L 803 359 L 806.9044151669133 348.7162486317308" stroke-miterlimit="10"/></g><g transform="translate(-710,-262) scale(1,1)"><g><path fill="none" stroke="none"/><text fill="#000000" stroke="none" font-family="Arial" font-size="13px" font-style="normal" font-weight="normal" text-decoration="none" x="821.5" y="332.5">do registartion</text></g></g><g transform="translate(-710,-262) scale(1,1)"><path fill="#C0C0C0" stroke="none" d="M 745 503 L 861.8291015625 503 Q 871.8291015625 503 871.8291015625 513 L 871.8291015625 532 Q 871.8291015625 542 861.8291015625 542 L 745 542 Q 735 542 735 532 L 735 513 Q 735 503 745 503 Z" opacity="0.2"/></g><g transform="translate(-710,-262) scale(1,1)"><path fill="#ffffff" stroke="none" d="M 738 496 L 854.8291015625 496 Q 864.8291015625 496 864.8291015625 506 L 864.8291015625 525 Q 864.8291015625 535 854.8291015625 535 L 738 535 Q 728 535 728 525 L 728 506 Q 728 496 738 496 Z"/></g><g transform="translate(-710,-262) scale(1,1)"><path fill="none" stroke="#000000" d="M 738 496 L 854.8291015625 496 Q 864.8291015625 496 864.8291015625 506 L 864.8291015625 525 Q 864.8291015625 535 854.8291015625 535 L 738 535 Q 728 535 728 525 L 728 506 Q 728 496 738 496 Z" stroke-miterlimit="10"/></g><g transform="translate(-710,-262) scale(1,1)"><g><path fill="none" stroke="none"/><text fill="#000000" stroke="none" font-family="Arial" font-size="13px" font-style="normal" font-weight="bold" text-decoration="none" x="737.50830078125" y="515.5">appointment booked</text></g></g><g transform="translate(-710,-262) scale(1,1)"><path fill="#C0C0C0" stroke="none" d="M 791 971.5 C 791 964.59644 796.59644 959 803.5 959 C 810.40356 959 816 964.59644 816 971.5 C 816 978.40356 810.40356 984 803.5 984 C 796.59644 984 791 978.40356 791 971.5 Z" opacity="0.2"/></g><g transform="translate(-710,-262) scale(1,1)"><path fill="none" stroke="#000000" d="M 784 964.5 C 784 957.59644 789.59644 952 796.5 952 C 803.40356 952 809 957.59644 809 964.5 C 809 971.40356 803.40356 977 796.5 977 C 789.59644 977 784 971.40356 784 964.5 Z" stroke-miterlimit="10"/></g><g transform="translate(-710,-262) scale(1,1)"><path fill="#000000" stroke="none" d="M 789 964.5 C 789 960.357864 792.357864 957 796.5 957 C 800.642136 957 804 960.357864 804 964.5 C 804 968.642136 800.642136 972 796.5 972 C 792.357864 972 789 968.642136 789 964.5 Z"/></g><g transform="translate(-710,-262) scale(1,1)"><path fill="none" stroke="#000000" d="M 802 400 L 797 495" stroke-miterlimit="10"/></g><g transform="translate(-710,-262) scale(1,1)"><path fill="none" stroke="#000000" d="M 793.3304388478734 484.63012435220156 L 797 495 L 801.7378378159722 485.07261903473307" stroke-miterlimit="10"/></g><g transform="translate(-710,-262) scale(1,1)"><g><path fill="none" stroke="none"/><text fill="#000000" stroke="none" font-family="Arial" font-size="13px" font-style="normal" font-weight="normal" text-decoration="none" x="807.5" y="452.5">book an appointment</text></g></g><g transform="translate(-710,-262) scale(1,1)"><path fill="#C0C0C0" stroke="none" d="M 753 623 L 860 623 Q 870 623 870 633 L 870 652 Q 870 662 860 662 L 753 662 Q 743 662 743 652 L 743 633 Q 743 623 753 623 Z" opacity="0.2"/></g><g transform="translate(-710,-262) scale(1,1)"><path fill="#ffffff" stroke="none" d="M 746 616 L 853 616 Q 863 616 863 626 L 863 645 Q 863 655 853 655 L 746 655 Q 736 655 736 645 L 736 626 Q 736 616 746 616 Z"/></g><g transform="translate(-710,-262) scale(1,1)"><path fill="none" stroke="#000000" d="M 746 616 L 853 616 Q 863 616 863 626 L 863 645 Q 863 655 853 655 L 746 655 Q 736 655 736 645 L 736 626 Q 736 616 746 616 Z" stroke-miterlimit="10"/></g><g transform="translate(-710,-262) scale(1,1)"><g><path fill="none" stroke="none"/><text fill="#000000" stroke="none" font-family="Arial" font-size="13px" font-style="normal" font-weight="bold" text-decoration="none" x="761.1982421875" y="635.5">get checkked</text></g></g><g transform="translate(-710,-262) scale(1,1)"><path fill="none" stroke="#000000" d="M 797 536 L 799 615" stroke-miterlimit="10"/></g><g transform="translate(-710,-262) scale(1,1)"><path fill="none" stroke="#000000" d="M 794.5346300859649 604.9471162579671 L 799 615 L 802.9509689177509 604.7340443888079" stroke-miterlimit="10"/></g><g transform="translate(-710,-262) scale(1,1)"><g><path fill="none" stroke="none"/><text fill="#000000" stroke="none" font-family="Arial" font-size="13px" font-style="normal" font-weight="normal" text-decoration="none" x="823.5" y="580.5">go to hospital</text></g></g><g transform="translate(-710,-262) scale(1,1)"><path fill="#C0C0C0" stroke="none" d="M 753 743 L 874.1962890625 743 Q 884.1962890625 743 884.1962890625 753 L 884.1962890625 788 Q 884.1962890625 798 874.1962890625 798 L 753 798 Q 743 798 743 788 L 743 753 Q 743 743 753 743 Z" opacity="0.2"/></g><g transform="translate(-710,-262) scale(1,1)"><path fill="#ffffff" stroke="none" d="M 746 736 L 867.1962890625 736 Q 877.1962890625 736 877.1962890625 746 L 877.1962890625 781 Q 877.1962890625 791 867.1962890625 791 L 746 791 Q 736 791 736 781 L 736 746 Q 736 736 746 736 Z"/></g><g transform="translate(-710,-262) scale(1,1)"><path fill="none" stroke="#000000" d="M 746 736 L 867.1962890625 736 Q 877.1962890625 736 877.1962890625 746 L 877.1962890625 781 Q 877.1962890625 791 867.1962890625 791 L 746 791 Q 736 791 736 781 L 736 746 Q 736 736 746 736 Z" stroke-miterlimit="10"/></g><g transform="translate(-710,-262) scale(1,1)"><g><path fill="none" stroke="none"/><text fill="#000000" stroke="none" font-family="Arial" font-size="13px" font-style="normal" font-weight="bold" text-decoration="none" x="745.90185546875" y="755.5">got prescripted meds</text></g></g><g transform="translate(-710,-262) scale(1,1)"><path fill="none" stroke="#000000" d="M 800 656 L 804 735" stroke-miterlimit="10"/></g><g transform="translate(-710,-262) scale(1,1)"><path fill="none" stroke="#000000" d="M 799.2819603567701 725.0631945815111 L 804 735 L 807.69022466911 724.6374596796204" stroke-miterlimit="10"/></g><g transform="translate(-710,-262) scale(1,1)"><g><path fill="none" stroke="none"/><text fill="#000000" stroke="none" font-family="Arial" font-size="13px" font-style="normal" font-weight="normal" text-decoration="none" x="814.5" y="708.5">go to pharmacy</text></g></g><g transform="translate(-710,-262) scale(1,1)"><path fill="#C0C0C0" stroke="none" d="M 753 847 L 828 847 Q 838 847 838 857 L 838 876 Q 838 886 828 886 L 753 886 Q 743 886 743 876 L 743 857 Q 743 847 753 847 Z" opacity="0.2"/></g><g transform="translate(-710,-262) scale(1,1)"><path fill="#ffffff" stroke="none" d="M 746 840 L 821 840 Q 831 840 831 850 L 831 869 Q 831 879 821 879 L 746 879 Q 736 879 736 869 L 736 850 Q 736 840 746 840 Z"/></g><g transform="translate(-710,-262) scale(1,1)"><path fill="none" stroke="#000000" d="M 746 840 L 821 840 Q 831 840 831 850 L 831 869 Q 831 879 821 879 L 746 879 Q 736 879 736 869 L 736 850 Q 736 840 746 840 Z" stroke-miterlimit="10"/></g><g transform="translate(-710,-262) scale(1,1)"><g><path fill="none" stroke="none"/><text fill="#000000" stroke="none" font-family="Arial" font-size="13px" font-style="normal" font-weight="bold" text-decoration="none" x="745.195068359375" y="859.5">payed the bill</text></g></g><g transform="translate(-710,-262) scale(1,1)"><path fill="none" stroke="#000000" d="M 799 792 L 788 839" stroke-miterlimit="10"/></g><g transform="translate(-710,-262) scale(1,1)"><path fill="none" stroke="#000000" d="M 786.2171580695979 828.1454399144322 L 788 839 L 794.4146734245307 830.0640073379271" stroke-miterlimit="10"/></g><g transform="translate(-710,-262) scale(1,1)"><g><path fill="none" stroke="none"/><text fill="#000000" stroke="none" font-family="Arial" font-size="13px" font-style="normal" font-weight="normal" text-decoration="none" x="813.5" y="824.5">finnised payment</text></g></g><g transform="translate(-710,-262) scale(1,1)"><path fill="none" stroke="#000000" d="M 786 880 L 794 951" stroke-miterlimit="10"/></g><g transform="translate(-710,-262) scale(1,1)"><path fill="none" stroke="#000000" d="M 788.6790626146274 941.3725587334461 L 794 951 L 797.0451580975895 940.4299000874786" stroke-miterlimit="10"/></g><g transform="translate(-710,-262) scale(1,1)"><g><path fill="none" stroke="none"/><text fill="#000000" stroke="none" font-family="Arial" font-size="13px" font-style="normal" font-weight="normal" text-decoration="none" x="861.5" y="932.5">go home</text></g></g></g></svg>