<svg version="1.1" xmlns="http://www.w3.org/2000/svg" xmlns:xlink="http://www.w3.org/1999/xlink" width="148" height="301"><defs/><g><text fill="#eeeeee" stroke="none" font-family="Arial" font-size="24px" font-style="normal" font-weight="normal" text-decoration="none" x="0" y="0">UNREGISTERED</text><text fill="#eeeeee" stroke="none" font-family="Arial" font-size="24px" font-style="normal" font-weight="normal" text-decoration="none" x="0" y="30">UNREGISTERED</text><text fill="#eeeeee" stroke="none" font-family="Arial" font-size="24px" font-style="normal" font-weight="normal" text-decoration="none" x="0" y="60">UNREGISTERED</text><text fill="#eeeeee" stroke="none" font-family="Arial" font-size="24px" font-style="normal" font-weight="normal" text-decoration="none" x="0" y="90">UNREGISTERED</text><text fill="#eeeeee" stroke="none" font-family="Arial" font-size="24px" font-style="normal" font-weight="normal" text-decoration="none" x="0" y="120">UNREGISTERED</text><text fill="#eeeeee" stroke="none" font-family="Arial" font-size="24px" font-style="normal" font-weight="normal" text-decoration="none" x="0" y="150">UNREGISTERED</text><text fill="#eeeeee" stroke="none" font-family="Arial" font-size="24px" font-style="normal" font-weight="normal" text-decoration="none" x="0" y="180">UNREGISTERED</text><text fill="#eeeeee" stroke="none" font-family="Arial" font-size="24px" font-style="normal" font-weight="normal" text-decoration="none" x="0" y="210">UNREGISTERED</text><text fill="#eeeeee" stroke="none" font-family="Arial" font-size="24px" font-style="normal" font-weight="normal" text-decoration="none" x="0" y="240">UNREGISTERED</text><text fill="#eeeeee" stroke="none" font-family="Arial" font-size="24px" font-style="normal" font-weight="normal" text-decoration="none" x="0" y="270">UNREGISTERED</text><text fill="#eeeeee" stroke="none" font-family="Arial" font-size="24px" font-style="normal" font-weight="normal" text-decoration="none" x="0" y="300">UNREGISTERED</text><g transform="translate(-774,-494) scale(1,1)"><path fill="#C0C0C0" stroke="none" d="M 847 520.5 C 847 515.2532944 851.2532944 511 856.5 511 C 861.7467056 511 866 515.2532944 866 520.5 C 866 525.7467056 861.7467056 530 856.5 530 C 851.2532944 530 847 525.7467056 847 520.5 Z" opacity="0.2"/></g><g transform="translate(-774,-494) scale(1,1)"><path fill="#000000" stroke="none" d="M 840 513.5 C 840 508.2532944 844.2532944 504 849.5 504 C 854.7467056 504 859 508.2532944 859 513.5 C 859 518.7467056 854.7467056 523 849.5 523 C 844.2532944 523 840 518.7467056 840 513.5 Z"/></g><g transform="translate(-774,-494) scale(1,1)"><path fill="#C0C0C0" stroke="none" d="M 809 559 L 904.919921875 559 Q 914.919921875 559 914.919921875 569 L 914.919921875 589 Q 914.919921875 599 904.919921875 599 L 809 599 Q 799 599 799 589 L 799 569 Q 799 559 809 559 Z" opacity="0.2"/></g><g transform="translate(-774,-494) scale(1,1)"><path fill="#ffffff" stroke="none" d="M 802 552 L 897.919921875 552 Q 907.919921875 552 907.919921875 562 L 907.919921875 582 Q 907.919921875 592 897.919921875 592 L 802 592 Q 792 592 792 582 L 792 562 Q 792 552 802 552 Z"/></g><g transform="translate(-774,-494) scale(1,1)"><path fill="none" stroke="#000000" d="M 802 552 L 897.919921875 552 Q 907.919921875 552 907.919921875 562 L 907.919921875 582 Q 907.919921875 592 897.919921875 592 L 802 592 Q 792 592 792 582 L 792 562 Q 792 552 802 552 Z" stroke-miterlimit="10"/></g><g transform="translate(-774,-494) scale(1,1)"><g><path fill="none" stroke="none"/><text fill="#000000" stroke="none" font-family="Arial" font-size="13px" font-style="normal" font-weight="bold" text-decoration="none" x="801.552734375" y="571.5">view prescription</text></g></g><g transform="translate(-774,-494) scale(1,1)"><path fill="#C0C0C0" stroke="none" d="M 847 779.5 C 847 772.59644 852.59644 767 859.5 767 C 866.40356 767 872 772.59644 872 779.5 C 872 786.40356 866.40356 792 859.5 792 C 852.59644 792 847 786.40356 847 779.5 Z" opacity="0.2"/></g><g transform="translate(-774,-494) scale(1,1)"><path fill="none" stroke="#000000" d="M 840 772.5 C 840 765.59644 845.59644 760 852.5 760 C 859.40356 760 865 765.59644 865 772.5 C 865 779.40356 859.40356 785 852.5 785 C 845.59644 785 840 779.40356 840 772.5 Z" stroke-miterlimit="10"/></g><g transform="translate(-774,-494) scale(1,1)"><path fill="#000000" stroke="none" d="M 845 772.5 C 845 768.357864 848.357864 765 852.5 765 C 856.642136 765 860 768.357864 860 772.5 C 860 776.642136 856.642136 780 852.5 780 C 848.357864 780 845 776.642136 845 772.5 Z"/></g><g transform="translate(-774,-494) scale(1,1)"><path fill="none" stroke="#000000" d="M 849 524 L 849 551" stroke-miterlimit="10"/></g><g transform="translate(-774,-494) scale(1,1)"><path fill="none" stroke="#000000" d="M 844.790482243984 540.8373251423759 L 849 551 L 853.209517756016 540.8373251423759" stroke-miterlimit="10"/></g><g transform="translate(-774,-494) scale(1,1)"><path fill="#C0C0C0" stroke="none" d="M 801 663 L 909 663 Q 919 663 919 673 L 919 706 Q 919 716 909 716 L 801 716 Q 791 716 791 706 L 791 673 Q 791 663 801 663 Z" opacity="0.2"/></g><g transform="translate(-774,-494) scale(1,1)"><path fill="#ffffff" stroke="none" d="M 794 656 L 902 656 Q 912 656 912 666 L 912 699 Q 912 709 902 709 L 794 709 Q 784 709 784 699 L 784 666 Q 784 656 794 656 Z"/></g><g transform="translate(-774,-494) scale(1,1)"><path fill="none" stroke="#000000" d="M 794 656 L 902 656 Q 912 656 912 666 L 912 699 Q 912 709 902 709 L 794 709 Q 784 709 784 699 L 784 666 Q 784 656 794 656 Z" stroke-miterlimit="10"/></g><g transform="translate(-774,-494) scale(1,1)"><g><path fill="none" stroke="none"/><text fill="#000000" stroke="none" font-family="Arial" font-size="13px" font-style="normal" font-weight="bold" text-decoration="none" x="802.833251953125" y="675.5">automated print</text><text fill="#000000" stroke="none" font-family="Arial" font-size="13px" font-style="normal" font-weight="bold" text-decoration="none" x="803.56005859375" y="688.5">out prescription</text></g></g><g transform="translate(-774,-494) scale(1,1)"><path fill="none" stroke="#000000" d="M 849 593 L 848 655" stroke-miterlimit="10"/></g><g transform="translate(-774,-494) scale(1,1)"><path fill="none" stroke="#000000" d="M 843.954922475101 644.7707601544613 L 848 655 L 852.3728631128827 644.9065333905545" stroke-miterlimit="10"/></g><g transform="translate(-774,-494) scale(1,1)"><path fill="none" stroke="#000000" d="M 849 710 L 851 759" stroke-miterlimit="10"/></g><g transform="translate(-774,-494) scale(1,1)"><path fill="none" stroke="#000000" d="M 846.3795263779318 749.0174540568164 L 851 759 L 854.7915576994734 748.6741058396105" stroke-miterlimit="10"/></g></g></svg>