<svg version="1.1" xmlns="http://www.w3.org/2000/svg" xmlns:xlink="http://www.w3.org/1999/xlink" width="587" height="621"><defs/><g><text fill="#eeeeee" stroke="none" font-family="Arial" font-size="24px" font-style="normal" font-weight="normal" text-decoration="none" x="0" y="0">UNREGISTERED</text><text fill="#eeeeee" stroke="none" font-family="Arial" font-size="24px" font-style="normal" font-weight="normal" text-decoration="none" x="0" y="30">UNREGISTERED</text><text fill="#eeeeee" stroke="none" font-family="Arial" font-size="24px" font-style="normal" font-weight="normal" text-decoration="none" x="0" y="60">UNREGISTERED</text><text fill="#eeeeee" stroke="none" font-family="Arial" font-size="24px" font-style="normal" font-weight="normal" text-decoration="none" x="0" y="90">UNREGISTERED</text><text fill="#eeeeee" stroke="none" font-family="Arial" font-size="24px" font-style="normal" font-weight="normal" text-decoration="none" x="0" y="120">UNREGISTERED</text><text fill="#eeeeee" stroke="none" font-family="Arial" font-size="24px" font-style="normal" font-weight="normal" text-decoration="none" x="0" y="150">UNREGISTERED</text><text fill="#eeeeee" stroke="none" font-family="Arial" font-size="24px" font-style="normal" font-weight="normal" text-decoration="none" x="0" y="180">UNREGISTERED</text><text fill="#eeeeee" stroke="none" font-family="Arial" font-size="24px" font-style="normal" font-weight="normal" text-decoration="none" x="0" y="210">UNREGISTERED</text><text fill="#eeeeee" stroke="none" font-family="Arial" font-size="24px" font-style="normal" font-weight="normal" text-decoration="none" x="0" y="240">UNREGISTERED</text><text fill="#eeeeee" stroke="none" font-family="Arial" font-size="24px" font-style="normal" font-weight="normal" text-decoration="none" x="0" y="270">UNREGISTERED</text><text fill="#eeeeee" stroke="none" font-family="Arial" font-size="24px" font-style="normal" font-weight="normal" text-decoration="none" x="0" y="300">UNREGISTERED</text><text fill="#eeeeee" stroke="none" font-family="Arial" font-size="24px" font-style="normal" font-weight="normal" text-decoration="none" x="0" y="330">UNREGISTERED</text><text fill="#eeeeee" stroke="none" font-family="Arial" font-size="24px" font-style="normal" font-weight="normal" text-decoration="none" x="0" y="360">UNREGISTERED</text><text fill="#eeeeee" stroke="none" font-family="Arial" font-size="24px" font-style="normal" font-weight="normal" text-decoration="none" x="0" y="390">UNREGISTERED</text><text fill="#eeeeee" stroke="none" font-family="Arial" font-size="24px" font-style="normal" font-weight="normal" text-decoration="none" x="0" y="420">UNREGISTERED</text><text fill="#eeeeee" stroke="none" font-family="Arial" font-size="24px" font-style="normal" font-weight="normal" text-decoration="none" x="0" y="450">UNREGISTERED</text><text fill="#eeeeee" stroke="none" font-family="Arial" font-size="24px" font-style="normal" font-weight="normal" text-decoration="none" x="0" y="480">UNREGISTERED</text><text fill="#eeeeee" stroke="none" font-family="Arial" font-size="24px" font-style="normal" font-weight="normal" text-decoration="none" x="0" y="510">UNREGISTERED</text><text fill="#eeeeee" stroke="none" font-family="Arial" font-size="24px" font-style="normal" font-weight="normal" text-decoration="none" x="0" y="540">UNREGISTERED</text><text fill="#eeeeee" stroke="none" font-family="Arial" font-size="24px" font-style="normal" font-weight="normal" text-decoration="none" x="0" y="570">UNREGISTERED</text><text fill="#eeeeee" stroke="none" font-family="Arial" font-size="24px" font-style="normal" font-weight="normal" text-decoration="none" x="0" y="600">UNREGISTERED</text><text fill="#eeeeee" stroke="none" font-family="Arial" font-size="24px" font-style="normal" font-weight="normal" text-decoration="none" x="200" y="0">UNREGISTERED</text><text fill="#eeeeee" stroke="none" font-family="Arial" font-size="24px" font-style="normal" font-weight="normal" text-decoration="none" x="200" y="30">UNREGISTERED</text><text fill="#eeeeee" stroke="none" font-family="Arial" font-size="24px" font-style="normal" font-weight="normal" text-decoration="none" x="200" y="60">UNREGISTERED</text><text fill="#eeeeee" stroke="none" font-family="Arial" font-size="24px" font-style="normal" font-weight="normal" text-decoration="none" x="200" y="90">UNREGISTERED</text><text fill="#eeeeee" stroke="none" font-family="Arial" font-size="24px" font-style="normal" font-weight="normal" text-decoration="none" x="200" y="120">UNREGISTERED</text><text fill="#eeeeee" stroke="none" font-family="Arial" font-size="24px" font-style="normal" font-weight="normal" text-decoration="none" x="200" y="150">UNREGISTERED</text><text fill="#eeeeee" stroke="none" font-family="Arial" font-size="24px" font-style="normal" font-weight="normal" text-decoration="none" x="200" y="180">UNREGISTERED</text><text fill="#eeeeee" stroke="none" font-family="Arial" font-size="24px" font-style="normal" font-weight="normal" text-decoration="none" x="200" y="210">UNREGISTERED</text><text fill="#eeeeee" stroke="none" font-family="Arial" font-size="24px" font-style="normal" font-weight="normal" text-decoration="none" x="200" y="240">UNREGISTERED</text><text fill="#eeeeee" stroke="none" font-family="Arial" font-size="24px" font-style="normal" font-weight="normal" text-decoration="none" x="200" y="270">UNREGISTERED</text><text fill="#eeeeee" stroke="none" font-family="Arial" font-size="24px" font-style="normal" font-weight="normal" text-decoration="none" x="200" y="300">UNREGISTERED</text><text fill="#eeeeee" stroke="none" font-family="Arial" font-size="24px" font-style="normal" font-weight="normal" text-decoration="none" x="200" y="330">UNREGISTERED</text><text fill="#eeeeee" stroke="none" font-family="Arial" font-size="24px" font-style="normal" font-weight="normal" text-decoration="none" x="200" y="360">UNREGISTERED</text><text fill="#eeeeee" stroke="none" font-family="Arial" font-size="24px" font-style="normal" font-weight="normal" text-decoration="none" x="200" y="390">UNREGISTERED</text><text fill="#eeeeee" stroke="none" font-family="Arial" font-size="24px" font-style="normal" font-weight="normal" text-decoration="none" x="200" y="420">UNREGISTERED</text><text fill="#eeeeee" stroke="none" font-family="Arial" font-size="24px" font-style="normal" font-weight="normal" text-decoration="none" x="200" y="450">UNREGISTERED</text><text fill="#eeeeee" stroke="none" font-family="Arial" font-size="24px" font-style="normal" font-weight="normal" text-decoration="none" x="200" y="480">UNREGISTERED</text><text fill="#eeeeee" stroke="none" font-family="Arial" font-size="24px" font-style="normal" font-weight="normal" text-decoration="none" x="200" y="510">UNREGISTERED</text><text fill="#eeeeee" stroke="none" font-family="Arial" font-size="24px" font-style="normal" font-weight="normal" text-decoration="none" x="200" y="540">UNREGISTERED</text><text fill="#eeeeee" stroke="none" font-family="Arial" font-size="24px" font-style="normal" font-weight="normal" text-decoration="none" x="200" y="570">UNREGISTERED</text><text fill="#eeeeee" stroke="none" font-family="Arial" font-size="24px" font-style="normal" font-weight="normal" text-decoration="none" x="200" y="600">UNREGISTERED</text><text fill="#eeeeee" stroke="none" font-family="Arial" font-size="24px" font-style="normal" font-weight="normal" text-decoration="none" x="400" y="0">UNREGISTERED</text><text fill="#eeeeee" stroke="none" font-family="Arial" font-size="24px" font-style="normal" font-weight="normal" text-decoration="none" x="400" y="30">UNREGISTERED</text><text fill="#eeeeee" stroke="none" font-family="Arial" font-size="24px" font-style="normal" font-weight="normal" text-decoration="none" x="400" y="60">UNREGISTERED</text><text fill="#eeeeee" stroke="none" font-family="Arial" font-size="24px" font-style="normal" font-weight="normal" text-decoration="none" x="400" y="90">UNREGISTERED</text><text fill="#eeeeee" stroke="none" font-family="Arial" font-size="24px" font-style="normal" font-weight="normal" text-decoration="none" x="400" y="120">UNREGISTERED</text><text fill="#eeeeee" stroke="none" font-family="Arial" font-size="24px" font-style="normal" font-weight="normal" text-decoration="none" x="400" y="150">UNREGISTERED</text><text fill="#eeeeee" stroke="none" font-family="Arial" font-size="24px" font-style="normal" font-weight="normal" text-decoration="none" x="400" y="180">UNREGISTERED</text><text fill="#eeeeee" stroke="none" font-family="Arial" font-size="24px" font-style="normal" font-weight="normal" text-decoration="none" x="400" y="210">UNREGISTERED</text><text fill="#eeeeee" stroke="none" font-family="Arial" font-size="24px" font-style="normal" font-weight="normal" text-decoration="none" x="400" y="240">UNREGISTERED</text><text fill="#eeeeee" stroke="none" font-family="Arial" font-size="24px" font-style="normal" font-weight="normal" text-decoration="none" x="400" y="270">UNREGISTERED</text><text fill="#eeeeee" stroke="none" font-family="Arial" font-size="24px" font-style="normal" font-weight="normal" text-decoration="none" x="400" y="300">UNREGISTERED</text><text fill="#eeeeee" stroke="none" font-family="Arial" font-size="24px" font-style="normal" font-weight="normal" text-decoration="none" x="400" y="330">UNREGISTERED</text><text fill="#eeeeee" stroke="none" font-family="Arial" font-size="24px" font-style="normal" font-weight="normal" text-decoration="none" x="400" y="360">UNREGISTERED</text><text fill="#eeeeee" stroke="none" font-family="Arial" font-size="24px" font-style="normal" font-weight="normal" text-decoration="none" x="400" y="390">UNREGISTERED</text><text fill="#eeeeee" stroke="none" font-family="Arial" font-size="24px" font-style="normal" font-weight="normal" text-decoration="none" x="400" y="420">UNREGISTERED</text><text fill="#eeeeee" stroke="none" font-family="Arial" font-size="24px" font-style="normal" font-weight="normal" text-decoration="none" x="400" y="450">UNREGISTERED</text><text fill="#eeeeee" stroke="none" font-family="Arial" font-size="24px" font-style="normal" font-weight="normal" text-decoration="none" x="400" y="480">UNREGISTERED</text><text fill="#eeeeee" stroke="none" font-family="Arial" font-size="24px" font-style="normal" font-weight="normal" text-decoration="none" x="400" y="510">UNREGISTERED</text><text fill="#eeeeee" stroke="none" font-family="Arial" font-size="24px" font-style="normal" font-weight="normal" text-decoration="none" x="400" y="540">UNREGISTERED</text><text fill="#eeeeee" stroke="none" font-family="Arial" font-size="24px" font-style="normal" font-weight="normal" text-decoration="none" x="400" y="570">UNREGISTERED</text><text fill="#eeeeee" stroke="none" font-family="Arial" font-size="24px" font-style="normal" font-weight="normal" text-decoration="none" x="400" y="600">UNREGISTERED</text><g transform="translate(-374,-590) scale(1,1)"><path fill="#C0C0C0" stroke="none" d="M 719 616.5 C 719 611.2532944 723.2532944 607 728.5 607 C 733.7467056 607 738 611.2532944 738 616.5 C 738 621.7467056 733.7467056 626 728.5 626 C 723.2532944 626 719 621.7467056 719 616.5 Z" opacity="0.2"/></g><g transform="translate(-374,-590) scale(1,1)"><path fill="#000000" stroke="none" d="M 712 609.5 C 712 604.2532944 716.2532944 600 721.5 600 C 726.7467056 600 731 604.2532944 731 609.5 C 731 614.7467056 726.7467056 619 721.5 619 C 716.2532944 619 712 614.7467056 712 609.5 Z"/></g><g transform="translate(-374,-590) scale(1,1)"><path fill="#C0C0C0" stroke="none" d="M 697 655 L 780 655 Q 790 655 790 665 L 790 685 Q 790 695 780 695 L 697 695 Q 687 695 687 685 L 687 665 Q 687 655 697 655 Z" opacity="0.2"/></g><g transform="translate(-374,-590) scale(1,1)"><path fill="#ffffff" stroke="none" d="M 690 648 L 773 648 Q 783 648 783 658 L 783 678 Q 783 688 773 688 L 690 688 Q 680 688 680 678 L 680 658 Q 680 648 690 648 Z"/></g><g transform="translate(-374,-590) scale(1,1)"><path fill="none" stroke="#000000" d="M 690 648 L 773 648 Q 783 648 783 658 L 783 678 Q 783 688 773 688 L 690 688 Q 680 688 680 678 L 680 658 Q 680 648 690 648 Z" stroke-miterlimit="10"/></g><g transform="translate(-374,-590) scale(1,1)"><g><path fill="none" stroke="none"/><text fill="#000000" stroke="none" font-family="Arial" font-size="13px" font-style="normal" font-weight="bold" text-decoration="none" x="706.582275390625" y="667.5">view MR</text></g></g><g transform="translate(-374,-590) scale(1,1)"><path fill="#C0C0C0" stroke="none" d="M 505 799 L 592.96630859375 799 Q 602.96630859375 799 602.96630859375 809 L 602.96630859375 829 Q 602.96630859375 839 592.96630859375 839 L 505 839 Q 495 839 495 829 L 495 809 Q 495 799 505 799 Z" opacity="0.2"/></g><g transform="translate(-374,-590) scale(1,1)"><path fill="#ffffff" stroke="none" d="M 498 792 L 585.96630859375 792 Q 595.96630859375 792 595.96630859375 802 L 595.96630859375 822 Q 595.96630859375 832 585.96630859375 832 L 498 832 Q 488 832 488 822 L 488 802 Q 488 792 498 792 Z"/></g><g transform="translate(-374,-590) scale(1,1)"><path fill="none" stroke="#000000" d="M 498 792 L 585.96630859375 792 Q 595.96630859375 792 595.96630859375 802 L 595.96630859375 822 Q 595.96630859375 832 585.96630859375 832 L 498 832 Q 488 832 488 822 L 488 802 Q 488 792 498 792 Z" stroke-miterlimit="10"/></g><g transform="translate(-374,-590) scale(1,1)"><g><path fill="none" stroke="none"/><text fill="#000000" stroke="none" font-family="Arial" font-size="13px" font-style="normal" font-weight="bold" text-decoration="none" x="496.114990234375" y="811.5">view MR history</text></g></g><g transform="translate(-374,-590) scale(1,1)"><path fill="#C0C0C0" stroke="none" d="M 535 880.5 L 546.5 871 L 557 880.5 L 546.5 889 L 535 880.5" opacity="0.2"/></g><g transform="translate(-374,-590) scale(1,1)"><path fill="#ffffff" stroke="none" d="M 528 873 L 539 864 L 550 873 L 539 882 L 528 873"/></g><g transform="translate(-374,-590) scale(1,1)"><path fill="none" stroke="#000000" d="M 528 873 L 539 864 L 550 873 L 539 882 L 528 873 L 528 873" stroke-miterlimit="10"/></g><g transform="translate(-374,-590) scale(1,1)"><path fill="#C0C0C0" stroke="none" d="M 441 927 L 484 927 Q 494 927 494 937 L 494 957 Q 494 967 484 967 L 441 967 Q 431 967 431 957 L 431 937 Q 431 927 441 927 Z" opacity="0.2"/></g><g transform="translate(-374,-590) scale(1,1)"><path fill="#ffffff" stroke="none" d="M 434 920 L 477 920 Q 487 920 487 930 L 487 950 Q 487 960 477 960 L 434 960 Q 424 960 424 950 L 424 930 Q 424 920 434 920 Z"/></g><g transform="translate(-374,-590) scale(1,1)"><path fill="none" stroke="#000000" d="M 434 920 L 477 920 Q 487 920 487 930 L 487 950 Q 487 960 477 960 L 434 960 Q 424 960 424 950 L 424 930 Q 424 920 434 920 Z" stroke-miterlimit="10"/></g><g transform="translate(-374,-590) scale(1,1)"><g><path fill="none" stroke="none"/><text fill="#000000" stroke="none" font-family="Arial" font-size="13px" font-style="normal" font-weight="bold" text-decoration="none" x="445.385009765625" y="939.5">yes</text></g></g><g transform="translate(-374,-590) scale(1,1)"><path fill="#C0C0C0" stroke="none" d="M 601 927 L 676.66455078125 927 Q 686.66455078125 927 686.66455078125 937 L 686.66455078125 957 Q 686.66455078125 967 676.66455078125 967 L 601 967 Q 591 967 591 957 L 591 937 Q 591 927 601 927 Z" opacity="0.2"/></g><g transform="translate(-374,-590) scale(1,1)"><path fill="#ffffff" stroke="none" d="M 594 920 L 669.66455078125 920 Q 679.66455078125 920 679.66455078125 930 L 679.66455078125 950 Q 679.66455078125 960 669.66455078125 960 L 594 960 Q 584 960 584 950 L 584 930 Q 584 920 594 920 Z"/></g><g transform="translate(-374,-590) scale(1,1)"><path fill="none" stroke="#000000" d="M 594 920 L 669.66455078125 920 Q 679.66455078125 920 679.66455078125 930 L 679.66455078125 950 Q 679.66455078125 960 669.66455078125 960 L 594 960 Q 584 960 584 950 L 584 930 Q 584 920 594 920 Z" stroke-miterlimit="10"/></g><g transform="translate(-374,-590) scale(1,1)"><g><path fill="none" stroke="none"/><text fill="#000000" stroke="none" font-family="Arial" font-size="13px" font-style="normal" font-weight="bold" text-decoration="none" x="591.7373046875" y="939.5">no MR history</text></g></g><g transform="translate(-374,-590) scale(1,1)"><path fill="#C0C0C0" stroke="none" d="M 401 1023 L 530.1435546875 1023 Q 540.1435546875 1023 540.1435546875 1033 L 540.1435546875 1053 Q 540.1435546875 1063 530.1435546875 1063 L 401 1063 Q 391 1063 391 1053 L 391 1033 Q 391 1023 401 1023 Z" opacity="0.2"/></g><g transform="translate(-374,-590) scale(1,1)"><path fill="#ffffff" stroke="none" d="M 394 1016 L 523.1435546875 1016 Q 533.1435546875 1016 533.1435546875 1026 L 533.1435546875 1046 Q 533.1435546875 1056 523.1435546875 1056 L 394 1056 Q 384 1056 384 1046 L 384 1026 Q 384 1016 394 1016 Z"/></g><g transform="translate(-374,-590) scale(1,1)"><path fill="none" stroke="#000000" d="M 394 1016 L 523.1435546875 1016 Q 533.1435546875 1016 533.1435546875 1026 L 533.1435546875 1046 Q 533.1435546875 1056 523.1435546875 1056 L 394 1056 Q 384 1056 384 1046 L 384 1026 Q 384 1016 394 1016 Z" stroke-miterlimit="10"/></g><g transform="translate(-374,-590) scale(1,1)"><g><path fill="none" stroke="none"/><text fill="#000000" stroke="none" font-family="Arial" font-size="13px" font-style="normal" font-weight="bold" text-decoration="none" x="398.224609375" y="1035.5">choose patient name</text></g></g><g transform="translate(-374,-590) scale(1,1)"><path fill="#C0C0C0" stroke="none" d="M 425 1103 L 509 1103 Q 519 1103 519 1113 L 519 1159 Q 519 1169 509 1169 L 425 1169 Q 415 1169 415 1159 L 415 1113 Q 415 1103 425 1103 Z" opacity="0.2"/></g><g transform="translate(-374,-590) scale(1,1)"><path fill="#ffffff" stroke="none" d="M 418 1096 L 502 1096 Q 512 1096 512 1106 L 512 1152 Q 512 1162 502 1162 L 418 1162 Q 408 1162 408 1152 L 408 1106 Q 408 1096 418 1096 Z"/></g><g transform="translate(-374,-590) scale(1,1)"><path fill="none" stroke="#000000" d="M 418 1096 L 502 1096 Q 512 1096 512 1106 L 512 1152 Q 512 1162 502 1162 L 418 1162 Q 408 1162 408 1152 L 408 1106 Q 408 1096 418 1096 Z" stroke-miterlimit="10"/></g><g transform="translate(-374,-590) scale(1,1)"><g><path fill="none" stroke="none"/><text fill="#000000" stroke="none" font-family="Arial" font-size="13px" font-style="normal" font-weight="bold" text-decoration="none" x="416.997802734375" y="1115.5">choose date or</text><text fill="#000000" stroke="none" font-family="Arial" font-size="13px" font-style="normal" font-weight="bold" text-decoration="none" x="418.819580078125" y="1128.5">wich history to</text><text fill="#000000" stroke="none" font-family="Arial" font-size="13px" font-style="normal" font-weight="bold" text-decoration="none" x="430.73095703125" y="1141.5">be viewed</text></g></g><g transform="translate(-374,-590) scale(1,1)"><path fill="#C0C0C0" stroke="none" d="M 841 799 L 948 799 Q 958 799 958 809 L 958 829 Q 958 839 948 839 L 841 839 Q 831 839 831 829 L 831 809 Q 831 799 841 799 Z" opacity="0.2"/></g><g transform="translate(-374,-590) scale(1,1)"><path fill="#ffffff" stroke="none" d="M 834 792 L 941 792 Q 951 792 951 802 L 951 822 Q 951 832 941 832 L 834 832 Q 824 832 824 822 L 824 802 Q 824 792 834 792 Z"/></g><g transform="translate(-374,-590) scale(1,1)"><path fill="none" stroke="#000000" d="M 834 792 L 941 792 Q 951 792 951 802 L 951 822 Q 951 832 941 832 L 834 832 Q 824 832 824 822 L 824 802 Q 824 792 834 792 Z" stroke-miterlimit="10"/></g><g transform="translate(-374,-590) scale(1,1)"><g><path fill="none" stroke="none"/><text fill="#000000" stroke="none" font-family="Arial" font-size="13px" font-style="normal" font-weight="bold" text-decoration="none" x="842.7109375" y="811.5">view recent MR</text></g></g><g transform="translate(-374,-590) scale(1,1)"><path fill="#C0C0C0" stroke="none" d="M 743 1195.5 C 743 1188.59644 748.59644 1183 755.5 1183 C 762.40356 1183 768 1188.59644 768 1195.5 C 768 1202.40356 762.40356 1208 755.5 1208 C 748.59644 1208 743 1202.40356 743 1195.5 Z" opacity="0.2"/></g><g transform="translate(-374,-590) scale(1,1)"><path fill="none" stroke="#000000" d="M 736 1188.5 C 736 1181.59644 741.59644 1176 748.5 1176 C 755.40356 1176 761 1181.59644 761 1188.5 C 761 1195.40356 755.40356 1201 748.5 1201 C 741.59644 1201 736 1195.40356 736 1188.5 Z" stroke-miterlimit="10"/></g><g transform="translate(-374,-590) scale(1,1)"><path fill="#000000" stroke="none" d="M 741 1188.5 C 741 1184.357864 744.357864 1181 748.5 1181 C 752.642136 1181 756 1184.357864 756 1188.5 C 756 1192.642136 752.642136 1196 748.5 1196 C 744.357864 1196 741 1192.642136 741 1188.5 Z"/></g><g transform="translate(-374,-590) scale(1,1)"><path fill="#C0C0C0" stroke="none" d="M 727 728.5 L 738.5 719 L 749 728.5 L 738.5 737 L 727 728.5" opacity="0.2"/></g><g transform="translate(-374,-590) scale(1,1)"><path fill="#ffffff" stroke="none" d="M 720 721 L 731 712 L 742 721 L 731 730 L 720 721"/></g><g transform="translate(-374,-590) scale(1,1)"><path fill="none" stroke="#000000" d="M 720 721 L 731 712 L 742 721 L 731 730 L 720 721 L 720 721" stroke-miterlimit="10"/></g><g transform="translate(-374,-590) scale(1,1)"><path fill="none" stroke="#000000" d="M 731 689 L 731 711" stroke-miterlimit="10"/></g><g transform="translate(-374,-590) scale(1,1)"><path fill="none" stroke="#000000" d="M 726.790482243984 700.8373251423759 L 731 711 L 735.209517756016 700.8373251423759" stroke-miterlimit="10"/></g><g transform="translate(-374,-590) scale(1,1)"><path fill="none" stroke="#000000" d="M 540 833 L 539 863" stroke-miterlimit="10"/></g><g transform="translate(-374,-590) scale(1,1)"><path fill="none" stroke="#000000" d="M 535.1313867055028 852.7027270028594 L 539 863 L 543.5457488696798 852.9832057416654" stroke-miterlimit="10"/></g><g transform="translate(-374,-590) scale(1,1)"><path fill="none" stroke="#000000" d="M 527 883 L 481 919" stroke-miterlimit="10"/></g><g transform="translate(-374,-590) scale(1,1)"><path fill="none" stroke="#000000" d="M 486.4087967033639 909.4216432400083 L 481 919 L 491.59751784462225 916.0516758093939" stroke-miterlimit="10"/></g><g transform="translate(-374,-590) scale(1,1)"><path fill="none" stroke="#000000" d="M 551 882 L 602 919" stroke-miterlimit="10"/></g><g transform="translate(-374,-590) scale(1,1)"><path fill="none" stroke="#000000" d="M 591.3021638635355 916.4394723205255 L 602 919 L 596.2460540094557 909.6249210383112" stroke-miterlimit="10"/></g><g transform="translate(-374,-590) scale(1,1)"><path fill="none" stroke="#000000" d="M 456 961 L 457 1015" stroke-miterlimit="10"/></g><g transform="translate(-374,-590) scale(1,1)"><path fill="none" stroke="#000000" d="M 452.6030384339769 1004.9170079347986 L 457 1015 L 461.02063072400256 1004.7611265960943" stroke-miterlimit="10"/></g><g transform="translate(-374,-590) scale(1,1)"><path fill="none" stroke="#000000" d="M 458 1057 L 459 1095" stroke-miterlimit="10"/></g><g transform="translate(-374,-590) scale(1,1)"><path fill="none" stroke="#000000" d="M 454.5245928199676 1084.9515806928196 L 459 1095 L 462.9407146667412 1084.730103802115" stroke-miterlimit="10"/></g><g transform="translate(-374,-590) scale(1,1)"><path fill="none" stroke="#000000" d="M 513 1140 L 735 1185" stroke-miterlimit="10"/></g><g transform="translate(-374,-590) scale(1,1)"><path fill="none" stroke="#000000" d="M 724.2036147928694 1187.1066718916936 L 735 1185 L 725.8761608273842 1178.8554447880874" stroke-miterlimit="10"/></g><g transform="translate(-374,-590) scale(1,1)"><path fill="none" stroke="#000000" d="M 641 961 L 742 1175" stroke-miterlimit="10"/></g><g transform="translate(-374,-590) scale(1,1)"><path fill="none" stroke="#000000" d="M 733.8555924853752 1167.606176480621 L 742 1175 L 741.4692569671116 1164.0128114682127" stroke-miterlimit="10"/></g><g transform="translate(-374,-590) scale(1,1)"><path fill="none" stroke="#000000" d="M 879 833 L 753 1175" stroke-miterlimit="10"/></g><g transform="translate(-374,-590) scale(1,1)"><path fill="none" stroke="#000000" d="M 752.5633191468237 1164.0086711525644 L 753 1175 L 760.4632631697777 1166.9191768452317" stroke-miterlimit="10"/></g><g transform="translate(-374,-590) scale(1,1)"><path fill="none" stroke="#000000" d="M 719 727 L 585 791" stroke-miterlimit="10"/></g><g transform="translate(-374,-590) scale(1,1)"><path fill="none" stroke="#000000" d="M 592.3561985632357 782.8215928996992 L 585 791 L 595.9846250077455 790.4186107678918" stroke-miterlimit="10"/></g><g transform="translate(-374,-590) scale(1,1)"><path fill="none" stroke="#000000" d="M 743 728 L 851 791" stroke-miterlimit="10"/></g><g transform="translate(-374,-590) scale(1,1)"><path fill="none" stroke="#000000" d="M 840.1006418526076 789.515415218025 L 851 791 L 844.3427499099789 782.2432299768171" stroke-miterlimit="10"/></g></g></svg>