<svg version="1.1" xmlns="http://www.w3.org/2000/svg" xmlns:xlink="http://www.w3.org/1999/xlink" width="189.3544921875" height="381"><defs/><g><text fill="#eeeeee" stroke="none" font-family="Arial" font-size="24px" font-style="normal" font-weight="normal" text-decoration="none" x="0" y="0">UNREGISTERED</text><text fill="#eeeeee" stroke="none" font-family="Arial" font-size="24px" font-style="normal" font-weight="normal" text-decoration="none" x="0" y="30">UNREGISTERED</text><text fill="#eeeeee" stroke="none" font-family="Arial" font-size="24px" font-style="normal" font-weight="normal" text-decoration="none" x="0" y="60">UNREGISTERED</text><text fill="#eeeeee" stroke="none" font-family="Arial" font-size="24px" font-style="normal" font-weight="normal" text-decoration="none" x="0" y="90">UNREGISTERED</text><text fill="#eeeeee" stroke="none" font-family="Arial" font-size="24px" font-style="normal" font-weight="normal" text-decoration="none" x="0" y="120">UNREGISTERED</text><text fill="#eeeeee" stroke="none" font-family="Arial" font-size="24px" font-style="normal" font-weight="normal" text-decoration="none" x="0" y="150">UNREGISTERED</text><text fill="#eeeeee" stroke="none" font-family="Arial" font-size="24px" font-style="normal" font-weight="normal" text-decoration="none" x="0" y="180">UNREGISTERED</text><text fill="#eeeeee" stroke="none" font-family="Arial" font-size="24px" font-style="normal" font-weight="normal" text-decoration="none" x="0" y="210">UNREGISTERED</text><text fill="#eeeeee" stroke="none" font-family="Arial" font-size="24px" font-style="normal" font-weight="normal" text-decoration="none" x="0" y="240">UNREGISTERED</text><text fill="#eeeeee" stroke="none" font-family="Arial" font-size="24px" font-style="normal" font-weight="normal" text-decoration="none" x="0" y="270">UNREGISTERED</text><text fill="#eeeeee" stroke="none" font-family="Arial" font-size="24px" font-style="normal" font-weight="normal" text-decoration="none" x="0" y="300">UNREGISTERED</text><text fill="#eeeeee" stroke="none" font-family="Arial" font-size="24px" font-style="normal" font-weight="normal" text-decoration="none" x="0" y="330">UNREGISTERED</text><text fill="#eeeeee" stroke="none" font-family="Arial" font-size="24px" font-style="normal" font-weight="normal" text-decoration="none" x="0" y="360">UNREGISTERED</text><g transform="translate(-662,-502) scale(1,1)"><path fill="#C0C0C0" stroke="none" d="M 751 528.5 C 751 523.2532944 755.2532944 519 760.5 519 C 765.7467056 519 770 523.2532944 770 528.5 C 770 533.7467056 765.7467056 538 760.5 538 C 755.2532944 538 751 533.7467056 751 528.5 Z" opacity="0.2"/></g><g transform="translate(-662,-502) scale(1,1)"><path fill="#000000" stroke="none" d="M 744 521.5 C 744 516.2532944 748.2532944 512 753.5 512 C 758.7467056 512 763 516.2532944 763 521.5 C 763 526.7467056 758.7467056 531 753.5 531 C 748.2532944 531 744 526.7467056 744 521.5 Z"/></g><g transform="translate(-662,-502) scale(1,1)"><path fill="#C0C0C0" stroke="none" d="M 689 575 L 821 575 Q 831 575 831 585 L 831 618 Q 831 628 821 628 L 689 628 Q 679 628 679 618 L 679 585 Q 679 575 689 575 Z" opacity="0.2"/></g><g transform="translate(-662,-502) scale(1,1)"><path fill="#ffffff" stroke="none" d="M 682 568 L 814 568 Q 824 568 824 578 L 824 611 Q 824 621 814 621 L 682 621 Q 672 621 672 611 L 672 578 Q 672 568 682 568 Z"/></g><g transform="translate(-662,-502) scale(1,1)"><path fill="none" stroke="#000000" d="M 682 568 L 814 568 Q 824 568 824 578 L 824 611 Q 824 621 814 621 L 682 621 Q 672 621 672 611 L 672 578 Q 672 568 682 568 Z" stroke-miterlimit="10"/></g><g transform="translate(-662,-502) scale(1,1)"><g><path fill="none" stroke="none"/><text fill="#000000" stroke="none" font-family="Arial" font-size="13px" font-style="normal" font-weight="bold" text-decoration="none" x="683.333251953125" y="587.5">recieve data from user</text><text fill="#000000" stroke="none" font-family="Arial" font-size="13px" font-style="normal" font-weight="bold" text-decoration="none" x="715.845947265625" y="600.5">registration</text></g></g><g transform="translate(-662,-502) scale(1,1)"><path fill="#C0C0C0" stroke="none" d="M 689 671 L 838.3544921875 671 Q 848.3544921875 671 848.3544921875 681 L 848.3544921875 701 Q 848.3544921875 711 838.3544921875 711 L 689 711 Q 679 711 679 701 L 679 681 Q 679 671 689 671 Z" opacity="0.2"/></g><g transform="translate(-662,-502) scale(1,1)"><path fill="#ffffff" stroke="none" d="M 682 664 L 831.3544921875 664 Q 841.3544921875 664 841.3544921875 674 L 841.3544921875 694 Q 841.3544921875 704 831.3544921875 704 L 682 704 Q 672 704 672 694 L 672 674 Q 672 664 682 664 Z"/></g><g transform="translate(-662,-502) scale(1,1)"><path fill="none" stroke="#000000" d="M 682 664 L 831.3544921875 664 Q 841.3544921875 664 841.3544921875 674 L 841.3544921875 694 Q 841.3544921875 704 831.3544921875 704 L 682 704 Q 672 704 672 694 L 672 674 Q 672 664 682 664 Z" stroke-miterlimit="10"/></g><g transform="translate(-662,-502) scale(1,1)"><g><path fill="none" stroke="none"/><text fill="#000000" stroke="none" font-family="Arial" font-size="13px" font-style="normal" font-weight="bold" text-decoration="none" x="682.60009765625" y="683.5">input patient medical data</text></g></g><g transform="translate(-662,-502) scale(1,1)"><path fill="#C0C0C0" stroke="none" d="M 697 759 L 812 759 Q 822 759 822 769 L 822 789 Q 822 799 812 799 L 697 799 Q 687 799 687 789 L 687 769 Q 687 759 697 759 Z" opacity="0.2"/></g><g transform="translate(-662,-502) scale(1,1)"><path fill="#ffffff" stroke="none" d="M 690 752 L 805 752 Q 815 752 815 762 L 815 782 Q 815 792 805 792 L 690 792 Q 680 792 680 782 L 680 762 Q 680 752 690 752 Z"/></g><g transform="translate(-662,-502) scale(1,1)"><path fill="none" stroke="#000000" d="M 690 752 L 805 752 Q 815 752 815 762 L 815 782 Q 815 792 805 792 L 690 792 Q 680 792 680 782 L 680 762 Q 680 752 690 752 Z" stroke-miterlimit="10"/></g><g transform="translate(-662,-502) scale(1,1)"><g><path fill="none" stroke="none"/><text fill="#000000" stroke="none" font-family="Arial" font-size="13px" font-style="normal" font-weight="bold" text-decoration="none" x="704.15185546875" y="771.5">save to system</text></g></g><g transform="translate(-662,-502) scale(1,1)"><path fill="none" stroke="#000000" d="M 752 532 L 750 567" stroke-miterlimit="10"/></g><g transform="translate(-662,-502) scale(1,1)"><path fill="none" stroke="#000000" d="M 746.3771166125833 556.6137246348279 L 750 567 L 754.7824403312936 557.0940288473256" stroke-miterlimit="10"/></g><g transform="translate(-662,-502) scale(1,1)"><path fill="none" stroke="#000000" d="M 750 622 L 754 663" stroke-miterlimit="10"/></g><g transform="translate(-662,-502) scale(1,1)"><path fill="none" stroke="#000000" d="M 748.8235783906581 653.2940915251411 L 754 663 L 757.2028308779024 652.4766034776051" stroke-miterlimit="10"/></g><g transform="translate(-662,-502) scale(1,1)"><path fill="none" stroke="#000000" d="M 754 705 L 749 751" stroke-miterlimit="10"/></g><g transform="translate(-662,-502) scale(1,1)"><path fill="none" stroke="#000000" d="M 745.9133015501948 740.4419560201726 L 749 751 L 754.2830390888665 741.3517101004629" stroke-miterlimit="10"/></g><g transform="translate(-662,-502) scale(1,1)"><path fill="#C0C0C0" stroke="none" d="M 735 867.5 C 735 860.59644 740.59644 855 747.5 855 C 754.40356 855 760 860.59644 760 867.5 C 760 874.40356 754.40356 880 747.5 880 C 740.59644 880 735 874.40356 735 867.5 Z" opacity="0.2"/></g><g transform="translate(-662,-502) scale(1,1)"><path fill="none" stroke="#000000" d="M 728 860.5 C 728 853.59644 733.59644 848 740.5 848 C 747.40356 848 753 853.59644 753 860.5 C 753 867.40356 747.40356 873 740.5 873 C 733.59644 873 728 867.40356 728 860.5 Z" stroke-miterlimit="10"/></g><g transform="translate(-662,-502) scale(1,1)"><path fill="#000000" stroke="none" d="M 733 860.5 C 733 856.357864 736.357864 853 740.5 853 C 744.642136 853 748 856.357864 748 860.5 C 748 864.642136 744.642136 868 740.5 868 C 736.357864 868 733 864.642136 733 860.5 Z"/></g><g transform="translate(-662,-502) scale(1,1)"><path fill="none" stroke="#000000" d="M 745 793 L 741 847" stroke-miterlimit="10"/></g><g transform="translate(-662,-502) scale(1,1)"><path fill="none" stroke="#000000" d="M 737.5527176011891 836.5541278936199 L 741 847 L 745.9487502409645 837.1760562373071" stroke-miterlimit="10"/></g></g></svg>