<svg version="1.1" xmlns="http://www.w3.org/2000/svg" xmlns:xlink="http://www.w3.org/1999/xlink" width="148" height="301"><defs/><g><text fill="#eeeeee" stroke="none" font-family="Arial" font-size="24px" font-style="normal" font-weight="normal" text-decoration="none" x="0" y="0">UNREGISTERED</text><text fill="#eeeeee" stroke="none" font-family="Arial" font-size="24px" font-style="normal" font-weight="normal" text-decoration="none" x="0" y="30">UNREGISTERED</text><text fill="#eeeeee" stroke="none" font-family="Arial" font-size="24px" font-style="normal" font-weight="normal" text-decoration="none" x="0" y="60">UNREGISTERED</text><text fill="#eeeeee" stroke="none" font-family="Arial" font-size="24px" font-style="normal" font-weight="normal" text-decoration="none" x="0" y="90">UNREGISTERED</text><text fill="#eeeeee" stroke="none" font-family="Arial" font-size="24px" font-style="normal" font-weight="normal" text-decoration="none" x="0" y="120">UNREGISTERED</text><text fill="#eeeeee" stroke="none" font-family="Arial" font-size="24px" font-style="normal" font-weight="normal" text-decoration="none" x="0" y="150">UNREGISTERED</text><text fill="#eeeeee" stroke="none" font-family="Arial" font-size="24px" font-style="normal" font-weight="normal" text-decoration="none" x="0" y="180">UNREGISTERED</text><text fill="#eeeeee" stroke="none" font-family="Arial" font-size="24px" font-style="normal" font-weight="normal" text-decoration="none" x="0" y="210">UNREGISTERED</text><text fill="#eeeeee" stroke="none" font-family="Arial" font-size="24px" font-style="normal" font-weight="normal" text-decoration="none" x="0" y="240">UNREGISTERED</text><text fill="#eeeeee" stroke="none" font-family="Arial" font-size="24px" font-style="normal" font-weight="normal" text-decoration="none" x="0" y="270">UNREGISTERED</text><text fill="#eeeeee" stroke="none" font-family="Arial" font-size="24px" font-style="normal" font-weight="normal" text-decoration="none" x="0" y="300">UNREGISTERED</text><g transform="translate(-574,-334) scale(1,1)"><path fill="#C0C0C0" stroke="none" d="M 639 360.5 C 639 355.2532944 643.2532944 351 648.5 351 C 653.7467056 351 658 355.2532944 658 360.5 C 658 365.7467056 653.7467056 370 648.5 370 C 643.2532944 370 639 365.7467056 639 360.5 Z" opacity="0.2"/></g><g transform="translate(-574,-334) scale(1,1)"><path fill="#000000" stroke="none" d="M 632 353.5 C 632 348.2532944 636.2532944 344 641.5 344 C 646.7467056 344 651 348.2532944 651 353.5 C 651 358.7467056 646.7467056 363 641.5 363 C 636.2532944 363 632 358.7467056 632 353.5 Z"/></g><g transform="translate(-574,-334) scale(1,1)"><path fill="#C0C0C0" stroke="none" d="M 601 407 L 708 407 Q 718 407 718 417 L 718 437 Q 718 447 708 447 L 601 447 Q 591 447 591 437 L 591 417 Q 591 407 601 407 Z" opacity="0.2"/></g><g transform="translate(-574,-334) scale(1,1)"><path fill="#ffffff" stroke="none" d="M 594 400 L 701 400 Q 711 400 711 410 L 711 430 Q 711 440 701 440 L 594 440 Q 584 440 584 430 L 584 410 Q 584 400 594 400 Z"/></g><g transform="translate(-574,-334) scale(1,1)"><path fill="none" stroke="#000000" d="M 594 400 L 701 400 Q 711 400 711 410 L 711 430 Q 711 440 701 440 L 594 440 Q 584 440 584 430 L 584 410 Q 584 400 594 400 Z" stroke-miterlimit="10"/></g><g transform="translate(-574,-334) scale(1,1)"><g><path fill="none" stroke="none"/><text fill="#000000" stroke="none" font-family="Arial" font-size="13px" font-style="normal" font-weight="bold" text-decoration="none" x="596.188720703125" y="419.5">recieve input data</text></g></g><g transform="translate(-574,-334) scale(1,1)"><path fill="#C0C0C0" stroke="none" d="M 601 511 L 709 511 Q 719 511 719 521 L 719 541 Q 719 551 709 551 L 601 551 Q 591 551 591 541 L 591 521 Q 591 511 601 511 Z" opacity="0.2"/></g><g transform="translate(-574,-334) scale(1,1)"><path fill="#ffffff" stroke="none" d="M 594 504 L 702 504 Q 712 504 712 514 L 712 534 Q 712 544 702 544 L 594 544 Q 584 544 584 534 L 584 514 Q 584 504 594 504 Z"/></g><g transform="translate(-574,-334) scale(1,1)"><path fill="none" stroke="#000000" d="M 594 504 L 702 504 Q 712 504 712 514 L 712 534 Q 712 544 702 544 L 594 544 Q 584 544 584 534 L 584 514 Q 584 504 594 504 Z" stroke-miterlimit="10"/></g><g transform="translate(-574,-334) scale(1,1)"><g><path fill="none" stroke="none"/><text fill="#000000" stroke="none" font-family="Arial" font-size="13px" font-style="normal" font-weight="bold" text-decoration="none" x="603.5537109375" y="523.5">generate report</text></g></g><g transform="translate(-574,-334) scale(1,1)"><path fill="#C0C0C0" stroke="none" d="M 639 619.5 C 639 612.59644 644.59644 607 651.5 607 C 658.40356 607 664 612.59644 664 619.5 C 664 626.40356 658.40356 632 651.5 632 C 644.59644 632 639 626.40356 639 619.5 Z" opacity="0.2"/></g><g transform="translate(-574,-334) scale(1,1)"><path fill="none" stroke="#000000" d="M 632 612.5 C 632 605.59644 637.59644 600 644.5 600 C 651.40356 600 657 605.59644 657 612.5 C 657 619.40356 651.40356 625 644.5 625 C 637.59644 625 632 619.40356 632 612.5 Z" stroke-miterlimit="10"/></g><g transform="translate(-574,-334) scale(1,1)"><path fill="#000000" stroke="none" d="M 637 612.5 C 637 608.357864 640.357864 605 644.5 605 C 648.642136 605 652 608.357864 652 612.5 C 652 616.642136 648.642136 620 644.5 620 C 640.357864 620 637 616.642136 637 612.5 Z"/></g><g transform="translate(-574,-334) scale(1,1)"><path fill="none" stroke="#000000" d="M 642 364 L 645 399" stroke-miterlimit="10"/></g><g transform="translate(-574,-334) scale(1,1)"><path fill="none" stroke="#000000" d="M 639.9379570577379 389.2339505811872 L 645 399 L 648.3262348783145 388.51495533942347" stroke-miterlimit="10"/></g><g transform="translate(-574,-334) scale(1,1)"><path fill="none" stroke="#000000" d="M 647 441 L 648 503" stroke-miterlimit="10"/></g><g transform="translate(-574,-334) scale(1,1)"><path fill="none" stroke="#000000" d="M 643.6271368871173 492.90653339055456 L 648 503 L 652.045077524899 492.7707601544613" stroke-miterlimit="10"/></g><g transform="translate(-574,-334) scale(1,1)"><path fill="none" stroke="#000000" d="M 647 545 L 645 599" stroke-miterlimit="10"/></g><g transform="translate(-574,-334) scale(1,1)"><path fill="none" stroke="#000000" d="M 641.1695039351113 588.6884870219317 L 645 599 L 649.582771008294 589.0000895061236" stroke-miterlimit="10"/></g></g></svg>