<svg version="1.1" xmlns="http://www.w3.org/2000/svg" xmlns:xlink="http://www.w3.org/1999/xlink" width="453" height="445"><defs/><g><text fill="#eeeeee" stroke="none" font-family="Arial" font-size="24px" font-style="normal" font-weight="normal" text-decoration="none" x="0" y="0">UNREGISTERED</text><text fill="#eeeeee" stroke="none" font-family="Arial" font-size="24px" font-style="normal" font-weight="normal" text-decoration="none" x="0" y="30">UNREGISTERED</text><text fill="#eeeeee" stroke="none" font-family="Arial" font-size="24px" font-style="normal" font-weight="normal" text-decoration="none" x="0" y="60">UNREGISTERED</text><text fill="#eeeeee" stroke="none" font-family="Arial" font-size="24px" font-style="normal" font-weight="normal" text-decoration="none" x="0" y="90">UNREGISTERED</text><text fill="#eeeeee" stroke="none" font-family="Arial" font-size="24px" font-style="normal" font-weight="normal" text-decoration="none" x="0" y="120">UNREGISTERED</text><text fill="#eeeeee" stroke="none" font-family="Arial" font-size="24px" font-style="normal" font-weight="normal" text-decoration="none" x="0" y="150">UNREGISTERED</text><text fill="#eeeeee" stroke="none" font-family="Arial" font-size="24px" font-style="normal" font-weight="normal" text-decoration="none" x="0" y="180">UNREGISTERED</text><text fill="#eeeeee" stroke="none" font-family="Arial" font-size="24px" font-style="normal" font-weight="normal" text-decoration="none" x="0" y="210">UNREGISTERED</text><text fill="#eeeeee" stroke="none" font-family="Arial" font-size="24px" font-style="normal" font-weight="normal" text-decoration="none" x="0" y="240">UNREGISTERED</text><text fill="#eeeeee" stroke="none" font-family="Arial" font-size="24px" font-style="normal" font-weight="normal" text-decoration="none" x="0" y="270">UNREGISTERED</text><text fill="#eeeeee" stroke="none" font-family="Arial" font-size="24px" font-style="normal" font-weight="normal" text-decoration="none" x="0" y="300">UNREGISTERED</text><text fill="#eeeeee" stroke="none" font-family="Arial" font-size="24px" font-style="normal" font-weight="normal" text-decoration="none" x="0" y="330">UNREGISTERED</text><text fill="#eeeeee" stroke="none" font-family="Arial" font-size="24px" font-style="normal" font-weight="normal" text-decoration="none" x="0" y="360">UNREGISTERED</text><text fill="#eeeeee" stroke="none" font-family="Arial" font-size="24px" font-style="normal" font-weight="normal" text-decoration="none" x="0" y="390">UNREGISTERED</text><text fill="#eeeeee" stroke="none" font-family="Arial" font-size="24px" font-style="normal" font-weight="normal" text-decoration="none" x="0" y="420">UNREGISTERED</text><text fill="#eeeeee" stroke="none" font-family="Arial" font-size="24px" font-style="normal" font-weight="normal" text-decoration="none" x="200" y="0">UNREGISTERED</text><text fill="#eeeeee" stroke="none" font-family="Arial" font-size="24px" font-style="normal" font-weight="normal" text-decoration="none" x="200" y="30">UNREGISTERED</text><text fill="#eeeeee" stroke="none" font-family="Arial" font-size="24px" font-style="normal" font-weight="normal" text-decoration="none" x="200" y="60">UNREGISTERED</text><text fill="#eeeeee" stroke="none" font-family="Arial" font-size="24px" font-style="normal" font-weight="normal" text-decoration="none" x="200" y="90">UNREGISTERED</text><text fill="#eeeeee" stroke="none" font-family="Arial" font-size="24px" font-style="normal" font-weight="normal" text-decoration="none" x="200" y="120">UNREGISTERED</text><text fill="#eeeeee" stroke="none" font-family="Arial" font-size="24px" font-style="normal" font-weight="normal" text-decoration="none" x="200" y="150">UNREGISTERED</text><text fill="#eeeeee" stroke="none" font-family="Arial" font-size="24px" font-style="normal" font-weight="normal" text-decoration="none" x="200" y="180">UNREGISTERED</text><text fill="#eeeeee" stroke="none" font-family="Arial" font-size="24px" font-style="normal" font-weight="normal" text-decoration="none" x="200" y="210">UNREGISTERED</text><text fill="#eeeeee" stroke="none" font-family="Arial" font-size="24px" font-style="normal" font-weight="normal" text-decoration="none" x="200" y="240">UNREGISTERED</text><text fill="#eeeeee" stroke="none" font-family="Arial" font-size="24px" font-style="normal" font-weight="normal" text-decoration="none" x="200" y="270">UNREGISTERED</text><text fill="#eeeeee" stroke="none" font-family="Arial" font-size="24px" font-style="normal" font-weight="normal" text-decoration="none" x="200" y="300">UNREGISTERED</text><text fill="#eeeeee" stroke="none" font-family="Arial" font-size="24px" font-style="normal" font-weight="normal" text-decoration="none" x="200" y="330">UNREGISTERED</text><text fill="#eeeeee" stroke="none" font-family="Arial" font-size="24px" font-style="normal" font-weight="normal" text-decoration="none" x="200" y="360">UNREGISTERED</text><text fill="#eeeeee" stroke="none" font-family="Arial" font-size="24px" font-style="normal" font-weight="normal" text-decoration="none" x="200" y="390">UNREGISTERED</text><text fill="#eeeeee" stroke="none" font-family="Arial" font-size="24px" font-style="normal" font-weight="normal" text-decoration="none" x="200" y="420">UNREGISTERED</text><text fill="#eeeeee" stroke="none" font-family="Arial" font-size="24px" font-style="normal" font-weight="normal" text-decoration="none" x="400" y="0">UNREGISTERED</text><text fill="#eeeeee" stroke="none" font-family="Arial" font-size="24px" font-style="normal" font-weight="normal" text-decoration="none" x="400" y="30">UNREGISTERED</text><text fill="#eeeeee" stroke="none" font-family="Arial" font-size="24px" font-style="normal" font-weight="normal" text-decoration="none" x="400" y="60">UNREGISTERED</text><text fill="#eeeeee" stroke="none" font-family="Arial" font-size="24px" font-style="normal" font-weight="normal" text-decoration="none" x="400" y="90">UNREGISTERED</text><text fill="#eeeeee" stroke="none" font-family="Arial" font-size="24px" font-style="normal" font-weight="normal" text-decoration="none" x="400" y="120">UNREGISTERED</text><text fill="#eeeeee" stroke="none" font-family="Arial" font-size="24px" font-style="normal" font-weight="normal" text-decoration="none" x="400" y="150">UNREGISTERED</text><text fill="#eeeeee" stroke="none" font-family="Arial" font-size="24px" font-style="normal" font-weight="normal" text-decoration="none" x="400" y="180">UNREGISTERED</text><text fill="#eeeeee" stroke="none" font-family="Arial" font-size="24px" font-style="normal" font-weight="normal" text-decoration="none" x="400" y="210">UNREGISTERED</text><text fill="#eeeeee" stroke="none" font-family="Arial" font-size="24px" font-style="normal" font-weight="normal" text-decoration="none" x="400" y="240">UNREGISTERED</text><text fill="#eeeeee" stroke="none" font-family="Arial" font-size="24px" font-style="normal" font-weight="normal" text-decoration="none" x="400" y="270">UNREGISTERED</text><text fill="#eeeeee" stroke="none" font-family="Arial" font-size="24px" font-style="normal" font-weight="normal" text-decoration="none" x="400" y="300">UNREGISTERED</text><text fill="#eeeeee" stroke="none" font-family="Arial" font-size="24px" font-style="normal" font-weight="normal" text-decoration="none" x="400" y="330">UNREGISTERED</text><text fill="#eeeeee" stroke="none" font-family="Arial" font-size="24px" font-style="normal" font-weight="normal" text-decoration="none" x="400" y="360">UNREGISTERED</text><text fill="#eeeeee" stroke="none" font-family="Arial" font-size="24px" font-style="normal" font-weight="normal" text-decoration="none" x="400" y="390">UNREGISTERED</text><text fill="#eeeeee" stroke="none" font-family="Arial" font-size="24px" font-style="normal" font-weight="normal" text-decoration="none" x="400" y="420">UNREGISTERED</text><g transform="translate(-638,-382) scale(1,1)"><path fill="#C0C0C0" stroke="none" d="M 791 408.5 C 791 403.2532944 795.2532944 399 800.5 399 C 805.7467056 399 810 403.2532944 810 408.5 C 810 413.7467056 805.7467056 418 800.5 418 C 795.2532944 418 791 413.7467056 791 408.5 Z" opacity="0.2"/></g><g transform="translate(-638,-382) scale(1,1)"><path fill="#000000" stroke="none" d="M 784 401.5 C 784 396.2532944 788.2532944 392 793.5 392 C 798.7467056 392 803 396.2532944 803 401.5 C 803 406.7467056 798.7467056 411 793.5 411 C 788.2532944 411 784 406.7467056 784 401.5 Z"/></g><g transform="translate(-638,-382) scale(1,1)"><path fill="#C0C0C0" stroke="none" d="M 721 471 L 884 471 Q 894 471 894 481 L 894 501 Q 894 511 884 511 L 721 511 Q 711 511 711 501 L 711 481 Q 711 471 721 471 Z" opacity="0.2"/></g><g transform="translate(-638,-382) scale(1,1)"><path fill="#ffffff" stroke="none" d="M 714 464 L 877 464 Q 887 464 887 474 L 887 494 Q 887 504 877 504 L 714 504 Q 704 504 704 494 L 704 474 Q 704 464 714 464 Z"/></g><g transform="translate(-638,-382) scale(1,1)"><path fill="none" stroke="#000000" d="M 714 464 L 877 464 Q 887 464 887 474 L 887 494 Q 887 504 877 504 L 714 504 Q 704 504 704 494 L 704 474 Q 704 464 714 464 Z" stroke-miterlimit="10"/></g><g transform="translate(-638,-382) scale(1,1)"><g><path fill="none" stroke="none"/><text fill="#000000" stroke="none" font-family="Arial" font-size="13px" font-style="normal" font-weight="bold" text-decoration="none" x="722.8828125" y="483.5">fill in required information</text></g></g><g transform="translate(-638,-382) scale(1,1)"><path fill="#C0C0C0" stroke="none" d="M 769 559 L 836.0126953125 559 Q 846.0126953125 559 846.0126953125 569 L 846.0126953125 589 Q 846.0126953125 599 836.0126953125 599 L 769 599 Q 759 599 759 589 L 759 569 Q 759 559 769 559 Z" opacity="0.2"/></g><g transform="translate(-638,-382) scale(1,1)"><path fill="#ffffff" stroke="none" d="M 762 552 L 829.0126953125 552 Q 839.0126953125 552 839.0126953125 562 L 839.0126953125 582 Q 839.0126953125 592 829.0126953125 592 L 762 592 Q 752 592 752 582 L 752 562 Q 752 552 762 552 Z"/></g><g transform="translate(-638,-382) scale(1,1)"><path fill="none" stroke="#000000" d="M 762 552 L 829.0126953125 552 Q 839.0126953125 552 839.0126953125 562 L 839.0126953125 582 Q 839.0126953125 592 829.0126953125 592 L 762 592 Q 752 592 752 582 L 752 562 Q 752 552 762 552 Z" stroke-miterlimit="10"/></g><g transform="translate(-638,-382) scale(1,1)"><g><path fill="none" stroke="none"/><text fill="#000000" stroke="none" font-family="Arial" font-size="13px" font-style="normal" font-weight="bold" text-decoration="none" x="759.740478515625" y="571.5">confirm data</text></g></g><g transform="translate(-638,-382) scale(1,1)"><path fill="#C0C0C0" stroke="none" d="M 799 811.5 C 799 804.59644 804.59644 799 811.5 799 C 818.40356 799 824 804.59644 824 811.5 C 824 818.40356 818.40356 824 811.5 824 C 804.59644 824 799 818.40356 799 811.5 Z" opacity="0.2"/></g><g transform="translate(-638,-382) scale(1,1)"><path fill="none" stroke="#000000" d="M 792 804.5 C 792 797.59644 797.59644 792 804.5 792 C 811.40356 792 817 797.59644 817 804.5 C 817 811.40356 811.40356 817 804.5 817 C 797.59644 817 792 811.40356 792 804.5 Z" stroke-miterlimit="10"/></g><g transform="translate(-638,-382) scale(1,1)"><path fill="#000000" stroke="none" d="M 797 804.5 C 797 800.357864 800.357864 797 804.5 797 C 808.642136 797 812 800.357864 812 804.5 C 812 808.642136 808.642136 812 804.5 812 C 800.357864 812 797 808.642136 797 804.5 Z"/></g><g transform="translate(-638,-382) scale(1,1)"><path fill="none" stroke="#000000" d="M 793 412 L 794 463" stroke-miterlimit="10"/></g><g transform="translate(-638,-382) scale(1,1)"><path fill="none" stroke="#000000" d="M 789.592061382689 452.92180188992006 L 794 463 L 798.0094789384244 452.75675448686644" stroke-miterlimit="10"/></g><g transform="translate(-638,-382) scale(1,1)"><path fill="none" stroke="#000000" d="M 795 505 L 795 551" stroke-miterlimit="10"/></g><g transform="translate(-638,-382) scale(1,1)"><path fill="none" stroke="#000000" d="M 790.790482243984 540.8373251423759 L 795 551 L 799.209517756016 540.8373251423759" stroke-miterlimit="10"/></g><g transform="translate(-638,-382) scale(1,1)"><path fill="#C0C0C0" stroke="none" d="M 791 624.5 L 802.5 615 L 813 624.5 L 802.5 633 L 791 624.5" opacity="0.2"/></g><g transform="translate(-638,-382) scale(1,1)"><path fill="#ffffff" stroke="none" d="M 784 617 L 795 608 L 806 617 L 795 626 L 784 617"/></g><g transform="translate(-638,-382) scale(1,1)"><path fill="none" stroke="#000000" d="M 784 617 L 795 608 L 806 617 L 795 626 L 784 617 L 784 617" stroke-miterlimit="10"/></g><g transform="translate(-638,-382) scale(1,1)"><path fill="#C0C0C0" stroke="none" d="M 665 631 L 704 631 Q 714 631 714 641 L 714 661 Q 714 671 704 671 L 665 671 Q 655 671 655 661 L 655 641 Q 655 631 665 631 Z" opacity="0.2"/></g><g transform="translate(-638,-382) scale(1,1)"><path fill="#ffffff" stroke="none" d="M 658 624 L 697 624 Q 707 624 707 634 L 707 654 Q 707 664 697 664 L 658 664 Q 648 664 648 654 L 648 634 Q 648 624 658 624 Z"/></g><g transform="translate(-638,-382) scale(1,1)"><path fill="none" stroke="#000000" d="M 658 624 L 697 624 Q 707 624 707 634 L 707 654 Q 707 664 697 664 L 658 664 Q 648 664 648 654 L 648 634 Q 648 624 658 624 Z" stroke-miterlimit="10"/></g><g transform="translate(-638,-382) scale(1,1)"><g><path fill="none" stroke="none"/><text fill="#000000" stroke="none" font-family="Arial" font-size="13px" font-style="normal" font-weight="bold" text-decoration="none" x="667.385009765625" y="643.5">yes</text></g></g><g transform="translate(-638,-382) scale(1,1)"><path fill="#C0C0C0" stroke="none" d="M 929 623 L 968 623 Q 978 623 978 633 L 978 653 Q 978 663 968 663 L 929 663 Q 919 663 919 653 L 919 633 Q 919 623 929 623 Z" opacity="0.2"/></g><g transform="translate(-638,-382) scale(1,1)"><path fill="#ffffff" stroke="none" d="M 922 616 L 961 616 Q 971 616 971 626 L 971 646 Q 971 656 961 656 L 922 656 Q 912 656 912 646 L 912 626 Q 912 616 922 616 Z"/></g><g transform="translate(-638,-382) scale(1,1)"><path fill="none" stroke="#000000" d="M 922 616 L 961 616 Q 971 616 971 626 L 971 646 Q 971 656 961 656 L 922 656 Q 912 656 912 646 L 912 626 Q 912 616 922 616 Z" stroke-miterlimit="10"/></g><g transform="translate(-638,-382) scale(1,1)"><g><path fill="none" stroke="none"/><text fill="#000000" stroke="none" font-family="Arial" font-size="13px" font-style="normal" font-weight="bold" text-decoration="none" x="934.27001953125" y="635.5">no</text></g></g><g transform="translate(-638,-382) scale(1,1)"><path fill="none" stroke="#000000" d="M 795 593 L 795 607" stroke-miterlimit="10"/></g><g transform="translate(-638,-382) scale(1,1)"><path fill="none" stroke="#000000" d="M 790.790482243984 596.8373251423759 L 795 607 L 799.209517756016 596.8373251423759" stroke-miterlimit="10"/></g><g transform="translate(-638,-382) scale(1,1)"><path fill="none" stroke="#000000" d="M 783 620 L 708 637" stroke-miterlimit="10"/></g><g transform="translate(-638,-382) scale(1,1)"><path fill="none" stroke="#000000" d="M 716.9807027299311 630.6480728533296 L 708 637 L 718.8418065591684 638.8588250411412" stroke-miterlimit="10"/></g><g transform="translate(-638,-382) scale(1,1)"><path fill="none" stroke="#000000" d="M 807 619 L 911 632" stroke-miterlimit="10"/></g><g transform="translate(-638,-382) scale(1,1)"><path fill="none" stroke="#000000" d="M 900.3936761529293 634.9164866622461 L 911 632 L 901.4379289881613 626.5624639803901" stroke-miterlimit="10"/></g><g transform="translate(-638,-382) scale(1,1)"><path fill="#C0C0C0" stroke="none" d="M 945 695 L 1054.6181640625 695 Q 1064.6181640625 695 1064.6181640625 705 L 1064.6181640625 725 Q 1064.6181640625 735 1054.6181640625 735 L 945 735 Q 935 735 935 725 L 935 705 Q 935 695 945 695 Z" opacity="0.2"/></g><g transform="translate(-638,-382) scale(1,1)"><path fill="#ffffff" stroke="none" d="M 938 688 L 1047.6181640625 688 Q 1057.6181640625 688 1057.6181640625 698 L 1057.6181640625 718 Q 1057.6181640625 728 1047.6181640625 728 L 938 728 Q 928 728 928 718 L 928 698 Q 928 688 938 688 Z"/></g><g transform="translate(-638,-382) scale(1,1)"><path fill="none" stroke="#000000" d="M 938 688 L 1047.6181640625 688 Q 1057.6181640625 688 1057.6181640625 698 L 1057.6181640625 718 Q 1057.6181640625 728 1047.6181640625 728 L 938 728 Q 928 728 928 718 L 928 698 Q 928 688 938 688 Z" stroke-miterlimit="10"/></g><g transform="translate(-638,-382) scale(1,1)"><g><path fill="none" stroke="none"/><text fill="#000000" stroke="none" font-family="Arial" font-size="13px" font-style="normal" font-weight="bold" text-decoration="none" x="937.524169921875" y="707.5">change information</text></g></g><g transform="translate(-638,-382) scale(1,1)"><path fill="none" stroke="#000000" d="M 956 657 L 977 687" stroke-miterlimit="10"/></g><g transform="translate(-638,-382) scale(1,1)"><path fill="none" stroke="#000000" d="M 967.7235173354246 681.088412279782 L 977 687 L 974.6206599668645 676.260412437774" stroke-miterlimit="10"/></g><g transform="translate(-638,-382) scale(1,1)"><path fill="none" stroke="#000000" d="M 1059 711 Q 1080 712 1064 664 Q 1048 616 1020 592 Q 992 568 840 571" stroke-miterlimit="10"/></g><g transform="translate(-638,-382) scale(1,1)"><path fill="none" stroke="#000000" d="M 850.0776296267314 566.5907618451228 L 840 571 L 850.2437624465284 575.0081580481681" stroke-miterlimit="10"/></g><g transform="translate(-638,-382) scale(1,1)"><path fill="none" stroke="#000000" d="M 694 665 L 794 791" stroke-miterlimit="10"/></g><g transform="translate(-638,-382) scale(1,1)"><path fill="none" stroke="#000000" d="M 784.3850247550824 785.6565693567127 L 794 791 L 790.9795618460464 780.4228097607096" stroke-miterlimit="10"/></g></g></svg>