<svg version="1.1" xmlns="http://www.w3.org/2000/svg" xmlns:xlink="http://www.w3.org/1999/xlink" width="218.2109375" height="373"><defs/><g><text fill="#eeeeee" stroke="none" font-family="Arial" font-size="24px" font-style="normal" font-weight="normal" text-decoration="none" x="0" y="0">UNREGISTERED</text><text fill="#eeeeee" stroke="none" font-family="Arial" font-size="24px" font-style="normal" font-weight="normal" text-decoration="none" x="0" y="30">UNREGISTERED</text><text fill="#eeeeee" stroke="none" font-family="Arial" font-size="24px" font-style="normal" font-weight="normal" text-decoration="none" x="0" y="60">UNREGISTERED</text><text fill="#eeeeee" stroke="none" font-family="Arial" font-size="24px" font-style="normal" font-weight="normal" text-decoration="none" x="0" y="90">UNREGISTERED</text><text fill="#eeeeee" stroke="none" font-family="Arial" font-size="24px" font-style="normal" font-weight="normal" text-decoration="none" x="0" y="120">UNREGISTERED</text><text fill="#eeeeee" stroke="none" font-family="Arial" font-size="24px" font-style="normal" font-weight="normal" text-decoration="none" x="0" y="150">UNREGISTERED</text><text fill="#eeeeee" stroke="none" font-family="Arial" font-size="24px" font-style="normal" font-weight="normal" text-decoration="none" x="0" y="180">UNREGISTERED</text><text fill="#eeeeee" stroke="none" font-family="Arial" font-size="24px" font-style="normal" font-weight="normal" text-decoration="none" x="0" y="210">UNREGISTERED</text><text fill="#eeeeee" stroke="none" font-family="Arial" font-size="24px" font-style="normal" font-weight="normal" text-decoration="none" x="0" y="240">UNREGISTERED</text><text fill="#eeeeee" stroke="none" font-family="Arial" font-size="24px" font-style="normal" font-weight="normal" text-decoration="none" x="0" y="270">UNREGISTERED</text><text fill="#eeeeee" stroke="none" font-family="Arial" font-size="24px" font-style="normal" font-weight="normal" text-decoration="none" x="0" y="300">UNREGISTERED</text><text fill="#eeeeee" stroke="none" font-family="Arial" font-size="24px" font-style="normal" font-weight="normal" text-decoration="none" x="0" y="330">UNREGISTERED</text><text fill="#eeeeee" stroke="none" font-family="Arial" font-size="24px" font-style="normal" font-weight="normal" text-decoration="none" x="0" y="360">UNREGISTERED</text><text fill="#eeeeee" stroke="none" font-family="Arial" font-size="24px" font-style="normal" font-weight="normal" text-decoration="none" x="200" y="0">UNREGISTERED</text><text fill="#eeeeee" stroke="none" font-family="Arial" font-size="24px" font-style="normal" font-weight="normal" text-decoration="none" x="200" y="30">UNREGISTERED</text><text fill="#eeeeee" stroke="none" font-family="Arial" font-size="24px" font-style="normal" font-weight="normal" text-decoration="none" x="200" y="60">UNREGISTERED</text><text fill="#eeeeee" stroke="none" font-family="Arial" font-size="24px" font-style="normal" font-weight="normal" text-decoration="none" x="200" y="90">UNREGISTERED</text><text fill="#eeeeee" stroke="none" font-family="Arial" font-size="24px" font-style="normal" font-weight="normal" text-decoration="none" x="200" y="120">UNREGISTERED</text><text fill="#eeeeee" stroke="none" font-family="Arial" font-size="24px" font-style="normal" font-weight="normal" text-decoration="none" x="200" y="150">UNREGISTERED</text><text fill="#eeeeee" stroke="none" font-family="Arial" font-size="24px" font-style="normal" font-weight="normal" text-decoration="none" x="200" y="180">UNREGISTERED</text><text fill="#eeeeee" stroke="none" font-family="Arial" font-size="24px" font-style="normal" font-weight="normal" text-decoration="none" x="200" y="210">UNREGISTERED</text><text fill="#eeeeee" stroke="none" font-family="Arial" font-size="24px" font-style="normal" font-weight="normal" text-decoration="none" x="200" y="240">UNREGISTERED</text><text fill="#eeeeee" stroke="none" font-family="Arial" font-size="24px" font-style="normal" font-weight="normal" text-decoration="none" x="200" y="270">UNREGISTERED</text><text fill="#eeeeee" stroke="none" font-family="Arial" font-size="24px" font-style="normal" font-weight="normal" text-decoration="none" x="200" y="300">UNREGISTERED</text><text fill="#eeeeee" stroke="none" font-family="Arial" font-size="24px" font-style="normal" font-weight="normal" text-decoration="none" x="200" y="330">UNREGISTERED</text><text fill="#eeeeee" stroke="none" font-family="Arial" font-size="24px" font-style="normal" font-weight="normal" text-decoration="none" x="200" y="360">UNREGISTERED</text><g transform="translate(-534,-294) scale(1,1)"><path fill="#C0C0C0" stroke="none" d="M 631 320.5 C 631 315.2532944 635.2532944 311 640.5 311 C 645.7467056 311 650 315.2532944 650 320.5 C 650 325.7467056 645.7467056 330 640.5 330 C 635.2532944 330 631 325.7467056 631 320.5 Z" opacity="0.2"/></g><g transform="translate(-534,-294) scale(1,1)"><path fill="#000000" stroke="none" d="M 624 313.5 C 624 308.2532944 628.2532944 304 633.5 304 C 638.7467056 304 643 308.2532944 643 313.5 C 643 318.7467056 638.7467056 323 633.5 323 C 628.2532944 323 624 318.7467056 624 313.5 Z"/></g><g transform="translate(-534,-294) scale(1,1)"><path fill="#C0C0C0" stroke="none" d="M 577 375 L 717.65185546875 375 Q 727.65185546875 375 727.65185546875 385 L 727.65185546875 405 Q 727.65185546875 415 717.65185546875 415 L 577 415 Q 567 415 567 405 L 567 385 Q 567 375 577 375 Z" opacity="0.2"/></g><g transform="translate(-534,-294) scale(1,1)"><path fill="#ffffff" stroke="none" d="M 570 368 L 710.65185546875 368 Q 720.65185546875 368 720.65185546875 378 L 720.65185546875 398 Q 720.65185546875 408 710.65185546875 408 L 570 408 Q 560 408 560 398 L 560 378 Q 560 368 570 368 Z"/></g><g transform="translate(-534,-294) scale(1,1)"><path fill="none" stroke="#000000" d="M 570 368 L 710.65185546875 368 Q 720.65185546875 368 720.65185546875 378 L 720.65185546875 398 Q 720.65185546875 408 710.65185546875 408 L 570 408 Q 560 408 560 398 L 560 378 Q 560 368 570 368 Z" stroke-miterlimit="10"/></g><g transform="translate(-534,-294) scale(1,1)"><g><path fill="none" stroke="none"/><text fill="#000000" stroke="none" font-family="Arial" font-size="13px" font-style="normal" font-weight="bold" text-decoration="none" x="571.669677734375" y="387.5">appointment notification</text></g></g><g transform="translate(-534,-294) scale(1,1)"><path fill="#C0C0C0" stroke="none" d="M 577 455 L 724 455 Q 734 455 734 465 L 734 485 Q 734 495 724 495 L 577 495 Q 567 495 567 485 L 567 465 Q 567 455 577 455 Z" opacity="0.2"/></g><g transform="translate(-534,-294) scale(1,1)"><path fill="#ffffff" stroke="none" d="M 570 448 L 717 448 Q 727 448 727 458 L 727 478 Q 727 488 717 488 L 570 488 Q 560 488 560 478 L 560 458 Q 560 448 570 448 Z"/></g><g transform="translate(-534,-294) scale(1,1)"><path fill="none" stroke="#000000" d="M 570 448 L 717 448 Q 727 448 727 458 L 727 478 Q 727 488 717 488 L 570 488 Q 560 488 560 478 L 560 458 Q 560 448 570 448 Z" stroke-miterlimit="10"/></g><g transform="translate(-534,-294) scale(1,1)"><g><path fill="none" stroke="none"/><text fill="#000000" stroke="none" font-family="Arial" font-size="13px" font-style="normal" font-weight="bold" text-decoration="none" x="589.66552734375" y="467.5">recieve notification</text></g></g><g transform="translate(-534,-294) scale(1,1)"><path fill="#C0C0C0" stroke="none" d="M 561 543 L 739.2109375 543 Q 749.2109375 543 749.2109375 553 L 749.2109375 580 Q 749.2109375 590 739.2109375 590 L 561 590 Q 551 590 551 580 L 551 553 Q 551 543 561 543 Z" opacity="0.2"/></g><g transform="translate(-534,-294) scale(1,1)"><path fill="#ffffff" stroke="none" d="M 554 536 L 732.2109375 536 Q 742.2109375 536 742.2109375 546 L 742.2109375 573 Q 742.2109375 583 732.2109375 583 L 554 583 Q 544 583 544 573 L 544 546 Q 544 536 554 536 Z"/></g><g transform="translate(-534,-294) scale(1,1)"><path fill="none" stroke="#000000" d="M 554 536 L 732.2109375 536 Q 742.2109375 536 742.2109375 546 L 742.2109375 573 Q 742.2109375 583 732.2109375 583 L 554 583 Q 544 583 544 573 L 544 546 Q 544 536 554 536 Z" stroke-miterlimit="10"/></g><g transform="translate(-534,-294) scale(1,1)"><g><path fill="none" stroke="none"/><text fill="#000000" stroke="none" font-family="Arial" font-size="13px" font-style="normal" font-weight="bold" text-decoration="none" x="557.116943359375" y="555.5">inform appointment to doctors</text></g></g><g transform="translate(-534,-294) scale(1,1)"><path fill="#C0C0C0" stroke="none" d="M 639 651.5 C 639 644.59644 644.59644 639 651.5 639 C 658.40356 639 664 644.59644 664 651.5 C 664 658.40356 658.40356 664 651.5 664 C 644.59644 664 639 658.40356 639 651.5 Z" opacity="0.2"/></g><g transform="translate(-534,-294) scale(1,1)"><path fill="none" stroke="#000000" d="M 632 644.5 C 632 637.59644 637.59644 632 644.5 632 C 651.40356 632 657 637.59644 657 644.5 C 657 651.40356 651.40356 657 644.5 657 C 637.59644 657 632 651.40356 632 644.5 Z" stroke-miterlimit="10"/></g><g transform="translate(-534,-294) scale(1,1)"><path fill="#000000" stroke="none" d="M 637 644.5 C 637 640.357864 640.357864 637 644.5 637 C 648.642136 637 652 640.357864 652 644.5 C 652 648.642136 648.642136 652 644.5 652 C 640.357864 652 637 648.642136 637 644.5 Z"/></g><g transform="translate(-534,-294) scale(1,1)"><path fill="none" stroke="#000000" d="M 634 324 L 638 367" stroke-miterlimit="10"/></g><g transform="translate(-534,-294) scale(1,1)"><path fill="none" stroke="#000000" d="M 632.8672768689463 357.27091200266204 L 638 367 L 641.2501207657572 356.4911125704005" stroke-miterlimit="10"/></g><g transform="translate(-534,-294) scale(1,1)"><path fill="none" stroke="#000000" d="M 641 409 L 642 447" stroke-miterlimit="10"/></g><g transform="translate(-534,-294) scale(1,1)"><path fill="none" stroke="#000000" d="M 637.5245928199677 436.9515806928197 L 642 447 L 645.9407146667412 436.7301038021151" stroke-miterlimit="10"/></g><g transform="translate(-534,-294) scale(1,1)"><path fill="none" stroke="#000000" d="M 643 489 L 643 535" stroke-miterlimit="10"/></g><g transform="translate(-534,-294) scale(1,1)"><path fill="none" stroke="#000000" d="M 638.790482243984 524.8373251423759 L 643 535 L 647.209517756016 524.8373251423759" stroke-miterlimit="10"/></g><g transform="translate(-534,-294) scale(1,1)"><path fill="none" stroke="#000000" d="M 643 584 L 644 631" stroke-miterlimit="10"/></g><g transform="translate(-534,-294) scale(1,1)"><path fill="none" stroke="#000000" d="M 639.5752565323953 620.9291685921227 L 644 631 L 647.9923870697424 620.7500807083493" stroke-miterlimit="10"/></g></g></svg>