<svg version="1.1" xmlns="http://www.w3.org/2000/svg" xmlns:xlink="http://www.w3.org/1999/xlink" width="187.9326171875" height="365"><defs/><g><text fill="#eeeeee" stroke="none" font-family="Arial" font-size="24px" font-style="normal" font-weight="normal" text-decoration="none" x="0" y="0">UNREGISTERED</text><text fill="#eeeeee" stroke="none" font-family="Arial" font-size="24px" font-style="normal" font-weight="normal" text-decoration="none" x="0" y="30">UNREGISTERED</text><text fill="#eeeeee" stroke="none" font-family="Arial" font-size="24px" font-style="normal" font-weight="normal" text-decoration="none" x="0" y="60">UNREGISTERED</text><text fill="#eeeeee" stroke="none" font-family="Arial" font-size="24px" font-style="normal" font-weight="normal" text-decoration="none" x="0" y="90">UNREGISTERED</text><text fill="#eeeeee" stroke="none" font-family="Arial" font-size="24px" font-style="normal" font-weight="normal" text-decoration="none" x="0" y="120">UNREGISTERED</text><text fill="#eeeeee" stroke="none" font-family="Arial" font-size="24px" font-style="normal" font-weight="normal" text-decoration="none" x="0" y="150">UNREGISTERED</text><text fill="#eeeeee" stroke="none" font-family="Arial" font-size="24px" font-style="normal" font-weight="normal" text-decoration="none" x="0" y="180">UNREGISTERED</text><text fill="#eeeeee" stroke="none" font-family="Arial" font-size="24px" font-style="normal" font-weight="normal" text-decoration="none" x="0" y="210">UNREGISTERED</text><text fill="#eeeeee" stroke="none" font-family="Arial" font-size="24px" font-style="normal" font-weight="normal" text-decoration="none" x="0" y="240">UNREGISTERED</text><text fill="#eeeeee" stroke="none" font-family="Arial" font-size="24px" font-style="normal" font-weight="normal" text-decoration="none" x="0" y="270">UNREGISTERED</text><text fill="#eeeeee" stroke="none" font-family="Arial" font-size="24px" font-style="normal" font-weight="normal" text-decoration="none" x="0" y="300">UNREGISTERED</text><text fill="#eeeeee" stroke="none" font-family="Arial" font-size="24px" font-style="normal" font-weight="normal" text-decoration="none" x="0" y="330">UNREGISTERED</text><text fill="#eeeeee" stroke="none" font-family="Arial" font-size="24px" font-style="normal" font-weight="normal" text-decoration="none" x="0" y="360">UNREGISTERED</text><g transform="translate(-446,-150) scale(1,1)"><path fill="#C0C0C0" stroke="none" d="M 535 176.5 C 535 171.2532944 539.2532944 167 544.5 167 C 549.7467056 167 554 171.2532944 554 176.5 C 554 181.7467056 549.7467056 186 544.5 186 C 539.2532944 186 535 181.7467056 535 176.5 Z" opacity="0.2"/></g><g transform="translate(-446,-150) scale(1,1)"><path fill="#000000" stroke="none" d="M 528 169.5 C 528 164.2532944 532.2532944 160 537.5 160 C 542.7467056 160 547 164.2532944 547 169.5 C 547 174.7467056 542.7467056 179 537.5 179 C 532.2532944 179 528 174.7467056 528 169.5 Z"/></g><g transform="translate(-446,-150) scale(1,1)"><path fill="#C0C0C0" stroke="none" d="M 473 255 L 620.9326171875 255 Q 630.9326171875 255 630.9326171875 265 L 630.9326171875 292 Q 630.9326171875 302 620.9326171875 302 L 473 302 Q 463 302 463 292 L 463 265 Q 463 255 473 255 Z" opacity="0.2"/></g><g transform="translate(-446,-150) scale(1,1)"><path fill="#ffffff" stroke="none" d="M 466 248 L 613.9326171875 248 Q 623.9326171875 248 623.9326171875 258 L 623.9326171875 285 Q 623.9326171875 295 613.9326171875 295 L 466 295 Q 456 295 456 285 L 456 258 Q 456 248 466 248 Z"/></g><g transform="translate(-446,-150) scale(1,1)"><path fill="none" stroke="#000000" d="M 466 248 L 613.9326171875 248 Q 623.9326171875 248 623.9326171875 258 L 623.9326171875 285 Q 623.9326171875 295 613.9326171875 295 L 466 295 Q 456 295 456 285 L 456 258 Q 456 248 466 248 Z" stroke-miterlimit="10"/></g><g transform="translate(-446,-150) scale(1,1)"><g><path fill="none" stroke="none"/><text fill="#000000" stroke="none" font-family="Arial" font-size="13px" font-style="normal" font-weight="bold" text-decoration="none" x="467.707763671875" y="267.5">recieve prescription input</text></g></g><g transform="translate(-446,-150) scale(1,1)"><path fill="#C0C0C0" stroke="none" d="M 473 359 L 612 359 Q 622 359 622 369 L 622 396 Q 622 406 612 406 L 473 406 Q 463 406 463 396 L 463 369 Q 463 359 473 359 Z" opacity="0.2"/></g><g transform="translate(-446,-150) scale(1,1)"><path fill="#ffffff" stroke="none" d="M 466 352 L 605 352 Q 615 352 615 362 L 615 389 Q 615 399 605 399 L 466 399 Q 456 399 456 389 L 456 362 Q 456 352 466 352 Z"/></g><g transform="translate(-446,-150) scale(1,1)"><path fill="none" stroke="#000000" d="M 466 352 L 605 352 Q 615 352 615 362 L 615 389 Q 615 399 605 399 L 466 399 Q 456 399 456 389 L 456 362 Q 456 352 466 352 Z" stroke-miterlimit="10"/></g><g transform="translate(-446,-150) scale(1,1)"><g><path fill="none" stroke="none"/><text fill="#000000" stroke="none" font-family="Arial" font-size="13px" font-style="normal" font-weight="bold" text-decoration="none" x="474.435546875" y="371.5">generate prescription</text></g></g><g transform="translate(-446,-150) scale(1,1)"><path fill="#C0C0C0" stroke="none" d="M 535 499.5 C 535 492.59644 540.59644 487 547.5 487 C 554.40356 487 560 492.59644 560 499.5 C 560 506.40356 554.40356 512 547.5 512 C 540.59644 512 535 506.40356 535 499.5 Z" opacity="0.2"/></g><g transform="translate(-446,-150) scale(1,1)"><path fill="none" stroke="#000000" d="M 528 492.5 C 528 485.59644 533.59644 480 540.5 480 C 547.40356 480 553 485.59644 553 492.5 C 553 499.40356 547.40356 505 540.5 505 C 533.59644 505 528 499.40356 528 492.5 Z" stroke-miterlimit="10"/></g><g transform="translate(-446,-150) scale(1,1)"><path fill="#000000" stroke="none" d="M 533 492.5 C 533 488.357864 536.357864 485 540.5 485 C 544.642136 485 548 488.357864 548 492.5 C 548 496.642136 544.642136 500 540.5 500 C 536.357864 500 533 496.642136 533 492.5 Z"/></g><g transform="translate(-446,-150) scale(1,1)"><path fill="none" stroke="#000000" d="M 537 180 L 539 247" stroke-miterlimit="10"/></g><g transform="translate(-446,-150) scale(1,1)"><path fill="none" stroke="#000000" d="M 534.4891281125524 236.96745123036848 L 539 247 L 542.9044151669133 236.71624863173085" stroke-miterlimit="10"/></g><g transform="translate(-446,-150) scale(1,1)"><path fill="none" stroke="#000000" d="M 538 296 L 536 351" stroke-miterlimit="10"/></g><g transform="translate(-446,-150) scale(1,1)"><path fill="none" stroke="#000000" d="M 532.1625703623795 340.6910653423202 L 536 351 L 540.5760450841667 340.9970098776579" stroke-miterlimit="10"/></g><g transform="translate(-446,-150) scale(1,1)"><path fill="none" stroke="#000000" d="M 536 400 L 539 479" stroke-miterlimit="10"/></g><g transform="translate(-446,-150) scale(1,1)"><path fill="none" stroke="#000000" d="M 534.4078677926238 469.00438487185613 L 539 479 L 542.8208394153005 468.6849049368178" stroke-miterlimit="10"/></g></g></svg>