<svg version="1.1" xmlns="http://www.w3.org/2000/svg" xmlns:xlink="http://www.w3.org/1999/xlink" width="179.2236328125" height="229"><defs/><g><text fill="#eeeeee" stroke="none" font-family="Arial" font-size="24px" font-style="normal" font-weight="normal" text-decoration="none" x="0" y="0">UNREGISTERED</text><text fill="#eeeeee" stroke="none" font-family="Arial" font-size="24px" font-style="normal" font-weight="normal" text-decoration="none" x="0" y="30">UNREGISTERED</text><text fill="#eeeeee" stroke="none" font-family="Arial" font-size="24px" font-style="normal" font-weight="normal" text-decoration="none" x="0" y="60">UNREGISTERED</text><text fill="#eeeeee" stroke="none" font-family="Arial" font-size="24px" font-style="normal" font-weight="normal" text-decoration="none" x="0" y="90">UNREGISTERED</text><text fill="#eeeeee" stroke="none" font-family="Arial" font-size="24px" font-style="normal" font-weight="normal" text-decoration="none" x="0" y="120">UNREGISTERED</text><text fill="#eeeeee" stroke="none" font-family="Arial" font-size="24px" font-style="normal" font-weight="normal" text-decoration="none" x="0" y="150">UNREGISTERED</text><text fill="#eeeeee" stroke="none" font-family="Arial" font-size="24px" font-style="normal" font-weight="normal" text-decoration="none" x="0" y="180">UNREGISTERED</text><text fill="#eeeeee" stroke="none" font-family="Arial" font-size="24px" font-style="normal" font-weight="normal" text-decoration="none" x="0" y="210">UNREGISTERED</text><g transform="translate(-790,-558) scale(1,1)"><path fill="#C0C0C0" stroke="none" d="M 879 584.5 C 879 579.2532944 883.2532944 575 888.5 575 C 893.7467056 575 898 579.2532944 898 584.5 C 898 589.7467056 893.7467056 594 888.5 594 C 883.2532944 594 879 589.7467056 879 584.5 Z" opacity="0.2"/></g><g transform="translate(-790,-558) scale(1,1)"><path fill="#000000" stroke="none" d="M 872 577.5 C 872 572.2532944 876.2532944 568 881.5 568 C 886.7467056 568 891 572.2532944 891 577.5 C 891 582.7467056 886.7467056 587 881.5 587 C 876.2532944 587 872 582.7467056 872 577.5 Z"/></g><g transform="translate(-790,-558) scale(1,1)"><path fill="#C0C0C0" stroke="none" d="M 817 655 L 956.2236328125 655 Q 966.2236328125 655 966.2236328125 665 L 966.2236328125 685 Q 966.2236328125 695 956.2236328125 695 L 817 695 Q 807 695 807 685 L 807 665 Q 807 655 817 655 Z" opacity="0.2"/></g><g transform="translate(-790,-558) scale(1,1)"><path fill="#ffffff" stroke="none" d="M 810 648 L 949.2236328125 648 Q 959.2236328125 648 959.2236328125 658 L 959.2236328125 678 Q 959.2236328125 688 949.2236328125 688 L 810 688 Q 800 688 800 678 L 800 658 Q 800 648 810 648 Z"/></g><g transform="translate(-790,-558) scale(1,1)"><path fill="none" stroke="#000000" d="M 810 648 L 949.2236328125 648 Q 959.2236328125 648 959.2236328125 658 L 959.2236328125 678 Q 959.2236328125 688 949.2236328125 688 L 810 688 Q 800 688 800 678 L 800 658 Q 800 648 810 648 Z" stroke-miterlimit="10"/></g><g transform="translate(-790,-558) scale(1,1)"><g><path fill="none" stroke="none"/><text fill="#000000" stroke="none" font-family="Arial" font-size="13px" font-style="normal" font-weight="bold" text-decoration="none" x="810.228759765625" y="667.5">handing meds to patient</text></g></g><g transform="translate(-790,-558) scale(1,1)"><path fill="#C0C0C0" stroke="none" d="M 871 771.5 C 871 764.59644 876.59644 759 883.5 759 C 890.40356 759 896 764.59644 896 771.5 C 896 778.40356 890.40356 784 883.5 784 C 876.59644 784 871 778.40356 871 771.5 Z" opacity="0.2"/></g><g transform="translate(-790,-558) scale(1,1)"><path fill="none" stroke="#000000" d="M 864 764.5 C 864 757.59644 869.59644 752 876.5 752 C 883.40356 752 889 757.59644 889 764.5 C 889 771.40356 883.40356 777 876.5 777 C 869.59644 777 864 771.40356 864 764.5 Z" stroke-miterlimit="10"/></g><g transform="translate(-790,-558) scale(1,1)"><path fill="#000000" stroke="none" d="M 869 764.5 C 869 760.357864 872.357864 757 876.5 757 C 880.642136 757 884 760.357864 884 764.5 C 884 768.642136 880.642136 772 876.5 772 C 872.357864 772 869 768.642136 869 764.5 Z"/></g><g transform="translate(-790,-558) scale(1,1)"><path fill="none" stroke="#000000" d="M 881 588 L 879 647" stroke-miterlimit="10"/></g><g transform="translate(-790,-558) scale(1,1)"><path fill="none" stroke="#000000" d="M 875.1371984227445 636.7005454525614 L 879 647 L 883.551400963361 636.9857726573281" stroke-miterlimit="10"/></g><g transform="translate(-790,-558) scale(1,1)"><path fill="none" stroke="#000000" d="M 878 689 L 876 751" stroke-miterlimit="10"/></g><g transform="translate(-790,-558) scale(1,1)"><path fill="none" stroke="#000000" d="M 872.1203284999245 740.7068882716885 L 876 751 L 880.5349870761203 740.9783288709207" stroke-miterlimit="10"/></g></g></svg>