<svg version="1.1" xmlns="http://www.w3.org/2000/svg" xmlns:xlink="http://www.w3.org/1999/xlink" width="649" height="773"><defs/><g><text fill="#eeeeee" stroke="none" font-family="Arial" font-size="24px" font-style="normal" font-weight="normal" text-decoration="none" x="0" y="0">UNREGISTERED</text><text fill="#eeeeee" stroke="none" font-family="Arial" font-size="24px" font-style="normal" font-weight="normal" text-decoration="none" x="0" y="30">UNREGISTERED</text><text fill="#eeeeee" stroke="none" font-family="Arial" font-size="24px" font-style="normal" font-weight="normal" text-decoration="none" x="0" y="60">UNREGISTERED</text><text fill="#eeeeee" stroke="none" font-family="Arial" font-size="24px" font-style="normal" font-weight="normal" text-decoration="none" x="0" y="90">UNREGISTERED</text><text fill="#eeeeee" stroke="none" font-family="Arial" font-size="24px" font-style="normal" font-weight="normal" text-decoration="none" x="0" y="120">UNREGISTERED</text><text fill="#eeeeee" stroke="none" font-family="Arial" font-size="24px" font-style="normal" font-weight="normal" text-decoration="none" x="0" y="150">UNREGISTERED</text><text fill="#eeeeee" stroke="none" font-family="Arial" font-size="24px" font-style="normal" font-weight="normal" text-decoration="none" x="0" y="180">UNREGISTERED</text><text fill="#eeeeee" stroke="none" font-family="Arial" font-size="24px" font-style="normal" font-weight="normal" text-decoration="none" x="0" y="210">UNREGISTERED</text><text fill="#eeeeee" stroke="none" font-family="Arial" font-size="24px" font-style="normal" font-weight="normal" text-decoration="none" x="0" y="240">UNREGISTERED</text><text fill="#eeeeee" stroke="none" font-family="Arial" font-size="24px" font-style="normal" font-weight="normal" text-decoration="none" x="0" y="270">UNREGISTERED</text><text fill="#eeeeee" stroke="none" font-family="Arial" font-size="24px" font-style="normal" font-weight="normal" text-decoration="none" x="0" y="300">UNREGISTERED</text><text fill="#eeeeee" stroke="none" font-family="Arial" font-size="24px" font-style="normal" font-weight="normal" text-decoration="none" x="0" y="330">UNREGISTERED</text><text fill="#eeeeee" stroke="none" font-family="Arial" font-size="24px" font-style="normal" font-weight="normal" text-decoration="none" x="0" y="360">UNREGISTERED</text><text fill="#eeeeee" stroke="none" font-family="Arial" font-size="24px" font-style="normal" font-weight="normal" text-decoration="none" x="0" y="390">UNREGISTERED</text><text fill="#eeeeee" stroke="none" font-family="Arial" font-size="24px" font-style="normal" font-weight="normal" text-decoration="none" x="0" y="420">UNREGISTERED</text><text fill="#eeeeee" stroke="none" font-family="Arial" font-size="24px" font-style="normal" font-weight="normal" text-decoration="none" x="0" y="450">UNREGISTERED</text><text fill="#eeeeee" stroke="none" font-family="Arial" font-size="24px" font-style="normal" font-weight="normal" text-decoration="none" x="0" y="480">UNREGISTERED</text><text fill="#eeeeee" stroke="none" font-family="Arial" font-size="24px" font-style="normal" font-weight="normal" text-decoration="none" x="0" y="510">UNREGISTERED</text><text fill="#eeeeee" stroke="none" font-family="Arial" font-size="24px" font-style="normal" font-weight="normal" text-decoration="none" x="0" y="540">UNREGISTERED</text><text fill="#eeeeee" stroke="none" font-family="Arial" font-size="24px" font-style="normal" font-weight="normal" text-decoration="none" x="0" y="570">UNREGISTERED</text><text fill="#eeeeee" stroke="none" font-family="Arial" font-size="24px" font-style="normal" font-weight="normal" text-decoration="none" x="0" y="600">UNREGISTERED</text><text fill="#eeeeee" stroke="none" font-family="Arial" font-size="24px" font-style="normal" font-weight="normal" text-decoration="none" x="0" y="630">UNREGISTERED</text><text fill="#eeeeee" stroke="none" font-family="Arial" font-size="24px" font-style="normal" font-weight="normal" text-decoration="none" x="0" y="660">UNREGISTERED</text><text fill="#eeeeee" stroke="none" font-family="Arial" font-size="24px" font-style="normal" font-weight="normal" text-decoration="none" x="0" y="690">UNREGISTERED</text><text fill="#eeeeee" stroke="none" font-family="Arial" font-size="24px" font-style="normal" font-weight="normal" text-decoration="none" x="0" y="720">UNREGISTERED</text><text fill="#eeeeee" stroke="none" font-family="Arial" font-size="24px" font-style="normal" font-weight="normal" text-decoration="none" x="0" y="750">UNREGISTERED</text><text fill="#eeeeee" stroke="none" font-family="Arial" font-size="24px" font-style="normal" font-weight="normal" text-decoration="none" x="200" y="0">UNREGISTERED</text><text fill="#eeeeee" stroke="none" font-family="Arial" font-size="24px" font-style="normal" font-weight="normal" text-decoration="none" x="200" y="30">UNREGISTERED</text><text fill="#eeeeee" stroke="none" font-family="Arial" font-size="24px" font-style="normal" font-weight="normal" text-decoration="none" x="200" y="60">UNREGISTERED</text><text fill="#eeeeee" stroke="none" font-family="Arial" font-size="24px" font-style="normal" font-weight="normal" text-decoration="none" x="200" y="90">UNREGISTERED</text><text fill="#eeeeee" stroke="none" font-family="Arial" font-size="24px" font-style="normal" font-weight="normal" text-decoration="none" x="200" y="120">UNREGISTERED</text><text fill="#eeeeee" stroke="none" font-family="Arial" font-size="24px" font-style="normal" font-weight="normal" text-decoration="none" x="200" y="150">UNREGISTERED</text><text fill="#eeeeee" stroke="none" font-family="Arial" font-size="24px" font-style="normal" font-weight="normal" text-decoration="none" x="200" y="180">UNREGISTERED</text><text fill="#eeeeee" stroke="none" font-family="Arial" font-size="24px" font-style="normal" font-weight="normal" text-decoration="none" x="200" y="210">UNREGISTERED</text><text fill="#eeeeee" stroke="none" font-family="Arial" font-size="24px" font-style="normal" font-weight="normal" text-decoration="none" x="200" y="240">UNREGISTERED</text><text fill="#eeeeee" stroke="none" font-family="Arial" font-size="24px" font-style="normal" font-weight="normal" text-decoration="none" x="200" y="270">UNREGISTERED</text><text fill="#eeeeee" stroke="none" font-family="Arial" font-size="24px" font-style="normal" font-weight="normal" text-decoration="none" x="200" y="300">UNREGISTERED</text><text fill="#eeeeee" stroke="none" font-family="Arial" font-size="24px" font-style="normal" font-weight="normal" text-decoration="none" x="200" y="330">UNREGISTERED</text><text fill="#eeeeee" stroke="none" font-family="Arial" font-size="24px" font-style="normal" font-weight="normal" text-decoration="none" x="200" y="360">UNREGISTERED</text><text fill="#eeeeee" stroke="none" font-family="Arial" font-size="24px" font-style="normal" font-weight="normal" text-decoration="none" x="200" y="390">UNREGISTERED</text><text fill="#eeeeee" stroke="none" font-family="Arial" font-size="24px" font-style="normal" font-weight="normal" text-decoration="none" x="200" y="420">UNREGISTERED</text><text fill="#eeeeee" stroke="none" font-family="Arial" font-size="24px" font-style="normal" font-weight="normal" text-decoration="none" x="200" y="450">UNREGISTERED</text><text fill="#eeeeee" stroke="none" font-family="Arial" font-size="24px" font-style="normal" font-weight="normal" text-decoration="none" x="200" y="480">UNREGISTERED</text><text fill="#eeeeee" stroke="none" font-family="Arial" font-size="24px" font-style="normal" font-weight="normal" text-decoration="none" x="200" y="510">UNREGISTERED</text><text fill="#eeeeee" stroke="none" font-family="Arial" font-size="24px" font-style="normal" font-weight="normal" text-decoration="none" x="200" y="540">UNREGISTERED</text><text fill="#eeeeee" stroke="none" font-family="Arial" font-size="24px" font-style="normal" font-weight="normal" text-decoration="none" x="200" y="570">UNREGISTERED</text><text fill="#eeeeee" stroke="none" font-family="Arial" font-size="24px" font-style="normal" font-weight="normal" text-decoration="none" x="200" y="600">UNREGISTERED</text><text fill="#eeeeee" stroke="none" font-family="Arial" font-size="24px" font-style="normal" font-weight="normal" text-decoration="none" x="200" y="630">UNREGISTERED</text><text fill="#eeeeee" stroke="none" font-family="Arial" font-size="24px" font-style="normal" font-weight="normal" text-decoration="none" x="200" y="660">UNREGISTERED</text><text fill="#eeeeee" stroke="none" font-family="Arial" font-size="24px" font-style="normal" font-weight="normal" text-decoration="none" x="200" y="690">UNREGISTERED</text><text fill="#eeeeee" stroke="none" font-family="Arial" font-size="24px" font-style="normal" font-weight="normal" text-decoration="none" x="200" y="720">UNREGISTERED</text><text fill="#eeeeee" stroke="none" font-family="Arial" font-size="24px" font-style="normal" font-weight="normal" text-decoration="none" x="200" y="750">UNREGISTERED</text><text fill="#eeeeee" stroke="none" font-family="Arial" font-size="24px" font-style="normal" font-weight="normal" text-decoration="none" x="400" y="0">UNREGISTERED</text><text fill="#eeeeee" stroke="none" font-family="Arial" font-size="24px" font-style="normal" font-weight="normal" text-decoration="none" x="400" y="30">UNREGISTERED</text><text fill="#eeeeee" stroke="none" font-family="Arial" font-size="24px" font-style="normal" font-weight="normal" text-decoration="none" x="400" y="60">UNREGISTERED</text><text fill="#eeeeee" stroke="none" font-family="Arial" font-size="24px" font-style="normal" font-weight="normal" text-decoration="none" x="400" y="90">UNREGISTERED</text><text fill="#eeeeee" stroke="none" font-family="Arial" font-size="24px" font-style="normal" font-weight="normal" text-decoration="none" x="400" y="120">UNREGISTERED</text><text fill="#eeeeee" stroke="none" font-family="Arial" font-size="24px" font-style="normal" font-weight="normal" text-decoration="none" x="400" y="150">UNREGISTERED</text><text fill="#eeeeee" stroke="none" font-family="Arial" font-size="24px" font-style="normal" font-weight="normal" text-decoration="none" x="400" y="180">UNREGISTERED</text><text fill="#eeeeee" stroke="none" font-family="Arial" font-size="24px" font-style="normal" font-weight="normal" text-decoration="none" x="400" y="210">UNREGISTERED</text><text fill="#eeeeee" stroke="none" font-family="Arial" font-size="24px" font-style="normal" font-weight="normal" text-decoration="none" x="400" y="240">UNREGISTERED</text><text fill="#eeeeee" stroke="none" font-family="Arial" font-size="24px" font-style="normal" font-weight="normal" text-decoration="none" x="400" y="270">UNREGISTERED</text><text fill="#eeeeee" stroke="none" font-family="Arial" font-size="24px" font-style="normal" font-weight="normal" text-decoration="none" x="400" y="300">UNREGISTERED</text><text fill="#eeeeee" stroke="none" font-family="Arial" font-size="24px" font-style="normal" font-weight="normal" text-decoration="none" x="400" y="330">UNREGISTERED</text><text fill="#eeeeee" stroke="none" font-family="Arial" font-size="24px" font-style="normal" font-weight="normal" text-decoration="none" x="400" y="360">UNREGISTERED</text><text fill="#eeeeee" stroke="none" font-family="Arial" font-size="24px" font-style="normal" font-weight="normal" text-decoration="none" x="400" y="390">UNREGISTERED</text><text fill="#eeeeee" stroke="none" font-family="Arial" font-size="24px" font-style="normal" font-weight="normal" text-decoration="none" x="400" y="420">UNREGISTERED</text><text fill="#eeeeee" stroke="none" font-family="Arial" font-size="24px" font-style="normal" font-weight="normal" text-decoration="none" x="400" y="450">UNREGISTERED</text><text fill="#eeeeee" stroke="none" font-family="Arial" font-size="24px" font-style="normal" font-weight="normal" text-decoration="none" x="400" y="480">UNREGISTERED</text><text fill="#eeeeee" stroke="none" font-family="Arial" font-size="24px" font-style="normal" font-weight="normal" text-decoration="none" x="400" y="510">UNREGISTERED</text><text fill="#eeeeee" stroke="none" font-family="Arial" font-size="24px" font-style="normal" font-weight="normal" text-decoration="none" x="400" y="540">UNREGISTERED</text><text fill="#eeeeee" stroke="none" font-family="Arial" font-size="24px" font-style="normal" font-weight="normal" text-decoration="none" x="400" y="570">UNREGISTERED</text><text fill="#eeeeee" stroke="none" font-family="Arial" font-size="24px" font-style="normal" font-weight="normal" text-decoration="none" x="400" y="600">UNREGISTERED</text><text fill="#eeeeee" stroke="none" font-family="Arial" font-size="24px" font-style="normal" font-weight="normal" text-decoration="none" x="400" y="630">UNREGISTERED</text><text fill="#eeeeee" stroke="none" font-family="Arial" font-size="24px" font-style="normal" font-weight="normal" text-decoration="none" x="400" y="660">UNREGISTERED</text><text fill="#eeeeee" stroke="none" font-family="Arial" font-size="24px" font-style="normal" font-weight="normal" text-decoration="none" x="400" y="690">UNREGISTERED</text><text fill="#eeeeee" stroke="none" font-family="Arial" font-size="24px" font-style="normal" font-weight="normal" text-decoration="none" x="400" y="720">UNREGISTERED</text><text fill="#eeeeee" stroke="none" font-family="Arial" font-size="24px" font-style="normal" font-weight="normal" text-decoration="none" x="400" y="750">UNREGISTERED</text><text fill="#eeeeee" stroke="none" font-family="Arial" font-size="24px" font-style="normal" font-weight="normal" text-decoration="none" x="600" y="0">UNREGISTERED</text><text fill="#eeeeee" stroke="none" font-family="Arial" font-size="24px" font-style="normal" font-weight="normal" text-decoration="none" x="600" y="30">UNREGISTERED</text><text fill="#eeeeee" stroke="none" font-family="Arial" font-size="24px" font-style="normal" font-weight="normal" text-decoration="none" x="600" y="60">UNREGISTERED</text><text fill="#eeeeee" stroke="none" font-family="Arial" font-size="24px" font-style="normal" font-weight="normal" text-decoration="none" x="600" y="90">UNREGISTERED</text><text fill="#eeeeee" stroke="none" font-family="Arial" font-size="24px" font-style="normal" font-weight="normal" text-decoration="none" x="600" y="120">UNREGISTERED</text><text fill="#eeeeee" stroke="none" font-family="Arial" font-size="24px" font-style="normal" font-weight="normal" text-decoration="none" x="600" y="150">UNREGISTERED</text><text fill="#eeeeee" stroke="none" font-family="Arial" font-size="24px" font-style="normal" font-weight="normal" text-decoration="none" x="600" y="180">UNREGISTERED</text><text fill="#eeeeee" stroke="none" font-family="Arial" font-size="24px" font-style="normal" font-weight="normal" text-decoration="none" x="600" y="210">UNREGISTERED</text><text fill="#eeeeee" stroke="none" font-family="Arial" font-size="24px" font-style="normal" font-weight="normal" text-decoration="none" x="600" y="240">UNREGISTERED</text><text fill="#eeeeee" stroke="none" font-family="Arial" font-size="24px" font-style="normal" font-weight="normal" text-decoration="none" x="600" y="270">UNREGISTERED</text><text fill="#eeeeee" stroke="none" font-family="Arial" font-size="24px" font-style="normal" font-weight="normal" text-decoration="none" x="600" y="300">UNREGISTERED</text><text fill="#eeeeee" stroke="none" font-family="Arial" font-size="24px" font-style="normal" font-weight="normal" text-decoration="none" x="600" y="330">UNREGISTERED</text><text fill="#eeeeee" stroke="none" font-family="Arial" font-size="24px" font-style="normal" font-weight="normal" text-decoration="none" x="600" y="360">UNREGISTERED</text><text fill="#eeeeee" stroke="none" font-family="Arial" font-size="24px" font-style="normal" font-weight="normal" text-decoration="none" x="600" y="390">UNREGISTERED</text><text fill="#eeeeee" stroke="none" font-family="Arial" font-size="24px" font-style="normal" font-weight="normal" text-decoration="none" x="600" y="420">UNREGISTERED</text><text fill="#eeeeee" stroke="none" font-family="Arial" font-size="24px" font-style="normal" font-weight="normal" text-decoration="none" x="600" y="450">UNREGISTERED</text><text fill="#eeeeee" stroke="none" font-family="Arial" font-size="24px" font-style="normal" font-weight="normal" text-decoration="none" x="600" y="480">UNREGISTERED</text><text fill="#eeeeee" stroke="none" font-family="Arial" font-size="24px" font-style="normal" font-weight="normal" text-decoration="none" x="600" y="510">UNREGISTERED</text><text fill="#eeeeee" stroke="none" font-family="Arial" font-size="24px" font-style="normal" font-weight="normal" text-decoration="none" x="600" y="540">UNREGISTERED</text><text fill="#eeeeee" stroke="none" font-family="Arial" font-size="24px" font-style="normal" font-weight="normal" text-decoration="none" x="600" y="570">UNREGISTERED</text><text fill="#eeeeee" stroke="none" font-family="Arial" font-size="24px" font-style="normal" font-weight="normal" text-decoration="none" x="600" y="600">UNREGISTERED</text><text fill="#eeeeee" stroke="none" font-family="Arial" font-size="24px" font-style="normal" font-weight="normal" text-decoration="none" x="600" y="630">UNREGISTERED</text><text fill="#eeeeee" stroke="none" font-family="Arial" font-size="24px" font-style="normal" font-weight="normal" text-decoration="none" x="600" y="660">UNREGISTERED</text><text fill="#eeeeee" stroke="none" font-family="Arial" font-size="24px" font-style="normal" font-weight="normal" text-decoration="none" x="600" y="690">UNREGISTERED</text><text fill="#eeeeee" stroke="none" font-family="Arial" font-size="24px" font-style="normal" font-weight="normal" text-decoration="none" x="600" y="720">UNREGISTERED</text><text fill="#eeeeee" stroke="none" font-family="Arial" font-size="24px" font-style="normal" font-weight="normal" text-decoration="none" x="600" y="750">UNREGISTERED</text><g transform="translate(-518,-502) scale(1,1)"><path fill="#C0C0C0" stroke="none" d="M 647 528.5 C 647 523.2532944 651.2532944 519 656.5 519 C 661.7467056 519 666 523.2532944 666 528.5 C 666 533.7467056 661.7467056 538 656.5 538 C 651.2532944 538 647 533.7467056 647 528.5 Z" opacity="0.2"/></g><g transform="translate(-518,-502) scale(1,1)"><path fill="#000000" stroke="none" d="M 640 521.5 C 640 516.2532944 644.2532944 512 649.5 512 C 654.7467056 512 659 516.2532944 659 521.5 C 659 526.7467056 654.7467056 531 649.5 531 C 644.2532944 531 640 526.7467056 640 521.5 Z"/></g><g transform="translate(-518,-502) scale(1,1)"><path fill="#C0C0C0" stroke="none" d="M 585 599 L 740 599 Q 750 599 750 609 L 750 629 Q 750 639 740 639 L 585 639 Q 575 639 575 629 L 575 609 Q 575 599 585 599 Z" opacity="0.2"/></g><g transform="translate(-518,-502) scale(1,1)"><path fill="#ffffff" stroke="none" d="M 578 592 L 733 592 Q 743 592 743 602 L 743 622 Q 743 632 733 632 L 578 632 Q 568 632 568 622 L 568 602 Q 568 592 578 592 Z"/></g><g transform="translate(-518,-502) scale(1,1)"><path fill="none" stroke="#000000" d="M 578 592 L 733 592 Q 743 592 743 602 L 743 622 Q 743 632 733 632 L 578 632 Q 568 632 568 622 L 568 602 Q 568 592 578 592 Z" stroke-miterlimit="10"/></g><g transform="translate(-518,-502) scale(1,1)"><g><path fill="none" stroke="none"/><text fill="#000000" stroke="none" font-family="Arial" font-size="13px" font-style="normal" font-weight="bold" text-decoration="none" x="590.82373046875" y="611.5">input ID and password</text></g></g><g transform="translate(-518,-502) scale(1,1)"><path fill="#C0C0C0" stroke="none" d="M 583 1259.5 C 583 1252.59644 588.59644 1247 595.5 1247 C 602.40356 1247 608 1252.59644 608 1259.5 C 608 1266.40356 602.40356 1272 595.5 1272 C 588.59644 1272 583 1266.40356 583 1259.5 Z" opacity="0.2"/></g><g transform="translate(-518,-502) scale(1,1)"><path fill="none" stroke="#000000" d="M 576 1252.5 C 576 1245.59644 581.59644 1240 588.5 1240 C 595.40356 1240 601 1245.59644 601 1252.5 C 601 1259.40356 595.40356 1265 588.5 1265 C 581.59644 1265 576 1259.40356 576 1252.5 Z" stroke-miterlimit="10"/></g><g transform="translate(-518,-502) scale(1,1)"><path fill="#000000" stroke="none" d="M 581 1252.5 C 581 1248.357864 584.357864 1245 588.5 1245 C 592.642136 1245 596 1248.357864 596 1252.5 C 596 1256.642136 592.642136 1260 588.5 1260 C 584.357864 1260 581 1256.642136 581 1252.5 Z"/></g><g transform="translate(-518,-502) scale(1,1)"><path fill="none" stroke="#000000" d="M 650 532 L 654 591" stroke-miterlimit="10"/></g><g transform="translate(-518,-502) scale(1,1)"><path fill="none" stroke="#000000" d="M 649.1127063915578 581.1453380989057 L 654 591 L 657.5124598043853 580.5758632912564" stroke-miterlimit="10"/></g><g transform="translate(-518,-502) scale(1,1)"><path fill="#C0C0C0" stroke="none" d="M 609 727 L 760.5126953125 727 Q 770.5126953125 727 770.5126953125 737 L 770.5126953125 757 Q 770.5126953125 767 760.5126953125 767 L 609 767 Q 599 767 599 757 L 599 737 Q 599 727 609 727 Z" opacity="0.2"/></g><g transform="translate(-518,-502) scale(1,1)"><path fill="#ffffff" stroke="none" d="M 602 720 L 753.5126953125 720 Q 763.5126953125 720 763.5126953125 730 L 763.5126953125 750 Q 763.5126953125 760 753.5126953125 760 L 602 760 Q 592 760 592 750 L 592 730 Q 592 720 602 720 Z"/></g><g transform="translate(-518,-502) scale(1,1)"><path fill="none" stroke="#000000" d="M 602 720 L 753.5126953125 720 Q 763.5126953125 720 763.5126953125 730 L 763.5126953125 750 Q 763.5126953125 760 753.5126953125 760 L 602 760 Q 592 760 592 750 L 592 730 Q 592 720 602 720 Z" stroke-miterlimit="10"/></g><g transform="translate(-518,-502) scale(1,1)"><g><path fill="none" stroke="none"/><text fill="#000000" stroke="none" font-family="Arial" font-size="13px" font-style="normal" font-weight="bold" text-decoration="none" x="603.685546875" y="739.5">check inputed information</text></g></g><g transform="translate(-518,-502) scale(1,1)"><path fill="#C0C0C0" stroke="none" d="M 561 839 L 600 839 Q 610 839 610 849 L 610 869 Q 610 879 600 879 L 561 879 Q 551 879 551 869 L 551 849 Q 551 839 561 839 Z" opacity="0.2"/></g><g transform="translate(-518,-502) scale(1,1)"><path fill="#ffffff" stroke="none" d="M 554 832 L 593 832 Q 603 832 603 842 L 603 862 Q 603 872 593 872 L 554 872 Q 544 872 544 862 L 544 842 Q 544 832 554 832 Z"/></g><g transform="translate(-518,-502) scale(1,1)"><path fill="none" stroke="#000000" d="M 554 832 L 593 832 Q 603 832 603 842 L 603 862 Q 603 872 593 872 L 554 872 Q 544 872 544 862 L 544 842 Q 544 832 554 832 Z" stroke-miterlimit="10"/></g><g transform="translate(-518,-502) scale(1,1)"><g><path fill="none" stroke="none"/><text fill="#000000" stroke="none" font-family="Arial" font-size="13px" font-style="normal" font-weight="bold" text-decoration="none" x="562.299560546875" y="851.5">true</text></g></g><g transform="translate(-518,-502) scale(1,1)"><path fill="#C0C0C0" stroke="none" d="M 777 839 L 816 839 Q 826 839 826 849 L 826 869 Q 826 879 816 879 L 777 879 Q 767 879 767 869 L 767 849 Q 767 839 777 839 Z" opacity="0.2"/></g><g transform="translate(-518,-502) scale(1,1)"><path fill="#ffffff" stroke="none" d="M 770 832 L 809 832 Q 819 832 819 842 L 819 862 Q 819 872 809 872 L 770 872 Q 760 872 760 862 L 760 842 Q 760 832 770 832 Z"/></g><g transform="translate(-518,-502) scale(1,1)"><path fill="none" stroke="#000000" d="M 770 832 L 809 832 Q 819 832 819 842 L 819 862 Q 819 872 809 872 L 770 872 Q 760 872 760 862 L 760 842 Q 760 832 770 832 Z" stroke-miterlimit="10"/></g><g transform="translate(-518,-502) scale(1,1)"><g><path fill="none" stroke="none"/><text fill="#000000" stroke="none" font-family="Arial" font-size="13px" font-style="normal" font-weight="bold" text-decoration="none" x="775.77001953125" y="851.5">false</text></g></g><g transform="translate(-518,-502) scale(1,1)"><path fill="#C0C0C0" stroke="none" d="M 785 919 L 898.2490234375 919 Q 908.2490234375 919 908.2490234375 929 L 908.2490234375 949 Q 908.2490234375 959 898.2490234375 959 L 785 959 Q 775 959 775 949 L 775 929 Q 775 919 785 919 Z" opacity="0.2"/></g><g transform="translate(-518,-502) scale(1,1)"><path fill="#ffffff" stroke="none" d="M 778 912 L 891.2490234375 912 Q 901.2490234375 912 901.2490234375 922 L 901.2490234375 942 Q 901.2490234375 952 891.2490234375 952 L 778 952 Q 768 952 768 942 L 768 922 Q 768 912 778 912 Z"/></g><g transform="translate(-518,-502) scale(1,1)"><path fill="none" stroke="#000000" d="M 778 912 L 891.2490234375 912 Q 901.2490234375 912 901.2490234375 922 L 901.2490234375 942 Q 901.2490234375 952 891.2490234375 952 L 778 952 Q 768 952 768 942 L 768 922 Q 768 912 778 912 Z" stroke-miterlimit="10"/></g><g transform="translate(-518,-502) scale(1,1)"><g><path fill="none" stroke="none"/><text fill="#000000" stroke="none" font-family="Arial" font-size="13px" font-style="normal" font-weight="bold" text-decoration="none" x="812.947265625" y="931.5">attempt</text></g></g><g transform="translate(-518,-502) scale(1,1)"><path fill="#C0C0C0" stroke="none" d="M 761 1039 L 822.9599609375 1039 Q 832.9599609375 1039 832.9599609375 1049 L 832.9599609375 1069 Q 832.9599609375 1079 822.9599609375 1079 L 761 1079 Q 751 1079 751 1069 L 751 1049 Q 751 1039 761 1039 Z" opacity="0.2"/></g><g transform="translate(-518,-502) scale(1,1)"><path fill="#ffffff" stroke="none" d="M 754 1032 L 815.9599609375 1032 Q 825.9599609375 1032 825.9599609375 1042 L 825.9599609375 1062 Q 825.9599609375 1072 815.9599609375 1072 L 754 1072 Q 744 1072 744 1062 L 744 1042 Q 744 1032 754 1032 Z"/></g><g transform="translate(-518,-502) scale(1,1)"><path fill="none" stroke="#000000" d="M 754 1032 L 815.9599609375 1032 Q 825.9599609375 1032 825.9599609375 1042 L 825.9599609375 1062 Q 825.9599609375 1072 815.9599609375 1072 L 754 1072 Q 744 1072 744 1062 L 744 1042 Q 744 1032 754 1032 Z" stroke-miterlimit="10"/></g><g transform="translate(-518,-502) scale(1,1)"><g><path fill="none" stroke="none"/><text fill="#000000" stroke="none" font-family="Arial" font-size="13px" font-style="normal" font-weight="bold" text-decoration="none" x="751.3818359375" y="1051.5">five attempt</text></g></g><g transform="translate(-518,-502) scale(1,1)"><path fill="#C0C0C0" stroke="none" d="M 913 1047 L 1034.92626953125 1047 Q 1044.92626953125 1047 1044.92626953125 1057 L 1044.92626953125 1077 Q 1044.92626953125 1087 1034.92626953125 1087 L 913 1087 Q 903 1087 903 1077 L 903 1057 Q 903 1047 913 1047 Z" opacity="0.2"/></g><g transform="translate(-518,-502) scale(1,1)"><path fill="#ffffff" stroke="none" d="M 906 1040 L 1027.92626953125 1040 Q 1037.92626953125 1040 1037.92626953125 1050 L 1037.92626953125 1070 Q 1037.92626953125 1080 1027.92626953125 1080 L 906 1080 Q 896 1080 896 1070 L 896 1050 Q 896 1040 906 1040 Z"/></g><g transform="translate(-518,-502) scale(1,1)"><path fill="none" stroke="#000000" d="M 906 1040 L 1027.92626953125 1040 Q 1037.92626953125 1040 1037.92626953125 1050 L 1037.92626953125 1070 Q 1037.92626953125 1080 1027.92626953125 1080 L 906 1080 Q 896 1080 896 1070 L 896 1050 Q 896 1040 906 1040 Z" stroke-miterlimit="10"/></g><g transform="translate(-518,-502) scale(1,1)"><g><path fill="none" stroke="none"/><text fill="#000000" stroke="none" font-family="Arial" font-size="13px" font-style="normal" font-weight="bold" text-decoration="none" x="905.543212890625" y="1059.5">attempt less than five</text></g></g><g transform="translate(-518,-502) scale(1,1)"><path fill="none" stroke="#000000" d="M 659 633 L 673 719" stroke-miterlimit="10"/></g><g transform="translate(-518,-502) scale(1,1)"><path fill="none" stroke="#000000" d="M 667.2122814704012 709.6457328335065 L 673 719 L 675.52193072658 708.2929992336634" stroke-miterlimit="10"/></g><g transform="translate(-518,-502) scale(1,1)"><path fill="none" stroke="#000000" d="M 801 873 L 822 911" stroke-miterlimit="10"/></g><g transform="translate(-518,-502) scale(1,1)"><path fill="none" stroke="#000000" d="M 813.4001105295105 904.1412901289409 L 822 911 L 820.7688000979791 900.0691195779451" stroke-miterlimit="10"/></g><g transform="translate(-518,-502) scale(1,1)"><path fill="#C0C0C0" stroke="none" d="M 847 992.5 L 858.5 983 L 869 992.5 L 858.5 1001 L 847 992.5" opacity="0.2"/></g><g transform="translate(-518,-502) scale(1,1)"><path fill="#ffffff" stroke="none" d="M 840 985 L 851 976 L 862 985 L 851 994 L 840 985"/></g><g transform="translate(-518,-502) scale(1,1)"><path fill="none" stroke="#000000" d="M 840 985 L 851 976 L 862 985 L 851 994 L 840 985 L 840 985" stroke-miterlimit="10"/></g><g transform="translate(-518,-502) scale(1,1)"><path fill="none" stroke="#000000" d="M 841 953 L 848 975" stroke-miterlimit="10"/></g><g transform="translate(-518,-502) scale(1,1)"><path fill="none" stroke="#000000" d="M 840.9072818243206 966.5920663132737 L 848 975 L 848.9299978065831 964.0393839552811" stroke-miterlimit="10"/></g><g transform="translate(-518,-502) scale(1,1)"><path fill="none" stroke="#000000" d="M 863 993 L 934 1039" stroke-miterlimit="10"/></g><g transform="translate(-518,-502) scale(1,1)"><path fill="none" stroke="#000000" d="M 923.1820571931635 1037.0069838364898 L 934 1039 L 927.7598345270301 1029.941284038565" stroke-miterlimit="10"/></g><g transform="translate(-518,-502) scale(1,1)"><path fill="none" stroke="#000000" d="M 841 995 L 805 1031" stroke-miterlimit="10"/></g><g transform="translate(-518,-502) scale(1,1)"><path fill="none" stroke="#000000" d="M 809.209517756016 1020.8373251423759 L 805 1031 L 815.1626748576241 1026.7904822439841" stroke-miterlimit="10"/></g><g transform="translate(-518,-502) scale(1,1)"><path fill="#C0C0C0" stroke="none" d="M 679 808.5 L 690.5 799 L 701 808.5 L 690.5 817 L 679 808.5" opacity="0.2"/></g><g transform="translate(-518,-502) scale(1,1)"><path fill="#ffffff" stroke="none" d="M 672 801 L 683 792 L 694 801 L 683 810 L 672 801"/></g><g transform="translate(-518,-502) scale(1,1)"><path fill="none" stroke="#000000" d="M 672 801 L 683 792 L 694 801 L 683 810 L 672 801 L 672 801" stroke-miterlimit="10"/></g><g transform="translate(-518,-502) scale(1,1)"><path fill="none" stroke="#000000" d="M 679 761 L 682 791" stroke-miterlimit="10"/></g><g transform="translate(-518,-502) scale(1,1)"><path fill="none" stroke="#000000" d="M 676.80014933638 781.3066232366605 L 682 791 L 685.1774027765504 780.4688978926434" stroke-miterlimit="10"/></g><g transform="translate(-518,-502) scale(1,1)"><path fill="#C0C0C0" stroke="none" d="M 545 1071 L 644 1071 Q 654 1071 654 1081 L 654 1101 Q 654 1111 644 1111 L 545 1111 Q 535 1111 535 1101 L 535 1081 Q 535 1071 545 1071 Z" opacity="0.2"/></g><g transform="translate(-518,-502) scale(1,1)"><path fill="#ffffff" stroke="none" d="M 538 1064 L 637 1064 Q 647 1064 647 1074 L 647 1094 Q 647 1104 637 1104 L 538 1104 Q 528 1104 528 1094 L 528 1074 Q 528 1064 538 1064 Z"/></g><g transform="translate(-518,-502) scale(1,1)"><path fill="none" stroke="#000000" d="M 538 1064 L 637 1064 Q 647 1064 647 1074 L 647 1094 Q 647 1104 637 1104 L 538 1104 Q 528 1104 528 1094 L 528 1074 Q 528 1064 538 1064 Z" stroke-miterlimit="10"/></g><g transform="translate(-518,-502) scale(1,1)"><g><path fill="none" stroke="none"/><text fill="#000000" stroke="none" font-family="Arial" font-size="13px" font-style="normal" font-weight="bold" text-decoration="none" x="543.418701171875" y="1083.5">access garnted</text></g></g><g transform="translate(-518,-502) scale(1,1)"><path fill="#C0C0C0" stroke="none" d="M 753 1135 L 890.12255859375 1135 Q 900.12255859375 1135 900.12255859375 1145 L 900.12255859375 1165 Q 900.12255859375 1175 890.12255859375 1175 L 753 1175 Q 743 1175 743 1165 L 743 1145 Q 743 1135 753 1135 Z" opacity="0.2"/></g><g transform="translate(-518,-502) scale(1,1)"><path fill="#ffffff" stroke="none" d="M 746 1128 L 883.12255859375 1128 Q 893.12255859375 1128 893.12255859375 1138 L 893.12255859375 1158 Q 893.12255859375 1168 883.12255859375 1168 L 746 1168 Q 736 1168 736 1158 L 736 1138 Q 736 1128 746 1128 Z"/></g><g transform="translate(-518,-502) scale(1,1)"><path fill="none" stroke="#000000" d="M 746 1128 L 883.12255859375 1128 Q 893.12255859375 1128 893.12255859375 1138 L 893.12255859375 1158 Q 893.12255859375 1168 883.12255859375 1168 L 746 1168 Q 736 1168 736 1158 L 736 1138 Q 736 1128 746 1128 Z" stroke-miterlimit="10"/></g><g transform="translate(-518,-502) scale(1,1)"><g><path fill="none" stroke="none"/><text fill="#000000" stroke="none" font-family="Arial" font-size="13px" font-style="normal" font-weight="bold" text-decoration="none" x="747.0126953125" y="1147.5">contact security system</text></g></g><g transform="translate(-518,-502) scale(1,1)"><path fill="#C0C0C0" stroke="none" d="M 777 1215 L 901.08447265625 1215 Q 911.08447265625 1215 911.08447265625 1225 L 911.08447265625 1245 Q 911.08447265625 1255 901.08447265625 1255 L 777 1255 Q 767 1255 767 1245 L 767 1225 Q 767 1215 777 1215 Z" opacity="0.2"/></g><g transform="translate(-518,-502) scale(1,1)"><path fill="#ffffff" stroke="none" d="M 770 1208 L 894.08447265625 1208 Q 904.08447265625 1208 904.08447265625 1218 L 904.08447265625 1238 Q 904.08447265625 1248 894.08447265625 1248 L 770 1248 Q 760 1248 760 1238 L 760 1218 Q 760 1208 770 1208 Z"/></g><g transform="translate(-518,-502) scale(1,1)"><path fill="none" stroke="#000000" d="M 770 1208 L 894.08447265625 1208 Q 904.08447265625 1208 904.08447265625 1218 L 904.08447265625 1238 Q 904.08447265625 1248 894.08447265625 1248 L 770 1248 Q 760 1248 760 1238 L 760 1218 Q 760 1208 770 1208 Z" stroke-miterlimit="10"/></g><g transform="translate(-518,-502) scale(1,1)"><g><path fill="none" stroke="none"/><text fill="#000000" stroke="none" font-family="Arial" font-size="13px" font-style="normal" font-weight="bold" text-decoration="none" x="769.898681640625" y="1227.5">rearrange information</text></g></g><g transform="translate(-518,-502) scale(1,1)"><path fill="none" stroke="#000000" d="M 791 1073 L 807 1127" stroke-miterlimit="10"/></g><g transform="translate(-518,-502) scale(1,1)"><path fill="none" stroke="#000000" d="M 800.0768249946204 1118.4519213945537 L 807 1127 L 808.1489803543816 1116.0601716583283" stroke-miterlimit="10"/></g><g transform="translate(-518,-502) scale(1,1)"><path fill="none" stroke="#000000" d="M 819 1169 L 827 1207" stroke-miterlimit="10"/></g><g transform="translate(-518,-502) scale(1,1)"><path fill="none" stroke="#000000" d="M 820.7871597687804 1197.9225214810863 L 827 1207 L 829.0256051588751 1196.1881119252769" stroke-miterlimit="10"/></g><g transform="translate(-518,-502) scale(1,1)"><path fill="none" stroke="#000000" d="M 671 807 L 604 838" stroke-miterlimit="10"/></g><g transform="translate(-518,-502) scale(1,1)"><path fill="none" stroke="#000000" d="M 611.4556147781648 829.9121196670815 L 604 838 L 614.990910796387 837.552920738723" stroke-miterlimit="10"/></g><g transform="translate(-518,-502) scale(1,1)"><path fill="none" stroke="#000000" d="M 695 807 L 759 838" stroke-miterlimit="10"/></g><g transform="translate(-518,-502) scale(1,1)"><path fill="none" stroke="#000000" d="M 748.0187338617308 837.3582882263033 L 759 838 L 751.6888309943638 829.7813135008674" stroke-miterlimit="10"/></g><g transform="translate(-518,-502) scale(1,1)"><path fill="none" stroke="#000000" d="M 574 873 L 586 1063" stroke-miterlimit="10"/></g><g transform="translate(-518,-502) scale(1,1)"><path fill="none" stroke="#000000" d="M 581.1582761081944 1053.1228693561582 L 586 1063 L 589.5605702603974 1052.5921981465453" stroke-miterlimit="10"/></g><g transform="translate(-518,-502) scale(1,1)"><path fill="none" stroke="#000000" d="M 587 1105 L 588 1239" stroke-miterlimit="10"/></g><g transform="translate(-518,-502) scale(1,1)"><path fill="none" stroke="#000000" d="M 583.714760711287 1228.8690215557199 L 588 1239 L 592.1335617979493 1228.8061946819387" stroke-miterlimit="10"/></g><g transform="translate(-518,-502) scale(1,1)"><path fill="#C0C0C0" stroke="none" d="M 1098 991 L 1161 991 Q 1164 991 1164 994 L 1164 993 Q 1164 996 1161 996 L 1098 996 Q 1095 996 1095 993 L 1095 994 Q 1095 991 1098 991 Z" opacity="0.2"/></g><g transform="translate(-518,-502) scale(1,1)"><path fill="#000000" stroke="none" d="M 1091 984 L 1154 984 Q 1157 984 1157 987 L 1157 987 Q 1157 990 1154 990 L 1091 990 Q 1088 990 1088 987 L 1088 987 Q 1088 984 1091 984 Z"/></g><g transform="translate(-518,-502) scale(1,1)"><path fill="none" stroke="#000000" d="M 1039 1057 Q 1056 1056 1118 990" stroke-miterlimit="10"/></g><g transform="translate(-518,-502) scale(1,1)"><path fill="none" stroke="#000000" d="M 1114.1099648010322 1000.2891994902807 L 1118 990 L 1107.9737669991969 994.5248924643141" stroke-miterlimit="10"/></g><g transform="translate(-518,-502) scale(1,1)"><path fill="none" stroke="#000000" d="M 905 1229 Q 1128 1232 1122 990" stroke-miterlimit="10"/></g><g transform="translate(-518,-502) scale(1,1)"><path fill="none" stroke="#000000" d="M 1126.460114268724 1000.0552165918953 L 1122 990 L 1118.043665205853 1000.2638888827101" stroke-miterlimit="10"/></g><g transform="translate(-518,-502) scale(1,1)"><path fill="none" stroke="#000000" d="M 1122 983 Q 1080 624 660 524" stroke-miterlimit="10"/></g><g transform="translate(-518,-502) scale(1,1)"><path fill="none" stroke="#000000" d="M 670.861323981676 522.258839075482 L 660 524 L 668.911302536971 530.4489291432435" stroke-miterlimit="10"/></g></g></svg>