<svg version="1.1" xmlns="http://www.w3.org/2000/svg" xmlns:xlink="http://www.w3.org/1999/xlink" width="413.578125" height="517"><defs/><g><text fill="#eeeeee" stroke="none" font-family="Arial" font-size="24px" font-style="normal" font-weight="normal" text-decoration="none" x="0" y="0">UNREGISTERED</text><text fill="#eeeeee" stroke="none" font-family="Arial" font-size="24px" font-style="normal" font-weight="normal" text-decoration="none" x="0" y="30">UNREGISTERED</text><text fill="#eeeeee" stroke="none" font-family="Arial" font-size="24px" font-style="normal" font-weight="normal" text-decoration="none" x="0" y="60">UNREGISTERED</text><text fill="#eeeeee" stroke="none" font-family="Arial" font-size="24px" font-style="normal" font-weight="normal" text-decoration="none" x="0" y="90">UNREGISTERED</text><text fill="#eeeeee" stroke="none" font-family="Arial" font-size="24px" font-style="normal" font-weight="normal" text-decoration="none" x="0" y="120">UNREGISTERED</text><text fill="#eeeeee" stroke="none" font-family="Arial" font-size="24px" font-style="normal" font-weight="normal" text-decoration="none" x="0" y="150">UNREGISTERED</text><text fill="#eeeeee" stroke="none" font-family="Arial" font-size="24px" font-style="normal" font-weight="normal" text-decoration="none" x="0" y="180">UNREGISTERED</text><text fill="#eeeeee" stroke="none" font-family="Arial" font-size="24px" font-style="normal" font-weight="normal" text-decoration="none" x="0" y="210">UNREGISTERED</text><text fill="#eeeeee" stroke="none" font-family="Arial" font-size="24px" font-style="normal" font-weight="normal" text-decoration="none" x="0" y="240">UNREGISTERED</text><text fill="#eeeeee" stroke="none" font-family="Arial" font-size="24px" font-style="normal" font-weight="normal" text-decoration="none" x="0" y="270">UNREGISTERED</text><text fill="#eeeeee" stroke="none" font-family="Arial" font-size="24px" font-style="normal" font-weight="normal" text-decoration="none" x="0" y="300">UNREGISTERED</text><text fill="#eeeeee" stroke="none" font-family="Arial" font-size="24px" font-style="normal" font-weight="normal" text-decoration="none" x="0" y="330">UNREGISTERED</text><text fill="#eeeeee" stroke="none" font-family="Arial" font-size="24px" font-style="normal" font-weight="normal" text-decoration="none" x="0" y="360">UNREGISTERED</text><text fill="#eeeeee" stroke="none" font-family="Arial" font-size="24px" font-style="normal" font-weight="normal" text-decoration="none" x="0" y="390">UNREGISTERED</text><text fill="#eeeeee" stroke="none" font-family="Arial" font-size="24px" font-style="normal" font-weight="normal" text-decoration="none" x="0" y="420">UNREGISTERED</text><text fill="#eeeeee" stroke="none" font-family="Arial" font-size="24px" font-style="normal" font-weight="normal" text-decoration="none" x="0" y="450">UNREGISTERED</text><text fill="#eeeeee" stroke="none" font-family="Arial" font-size="24px" font-style="normal" font-weight="normal" text-decoration="none" x="0" y="480">UNREGISTERED</text><text fill="#eeeeee" stroke="none" font-family="Arial" font-size="24px" font-style="normal" font-weight="normal" text-decoration="none" x="0" y="510">UNREGISTERED</text><text fill="#eeeeee" stroke="none" font-family="Arial" font-size="24px" font-style="normal" font-weight="normal" text-decoration="none" x="200" y="0">UNREGISTERED</text><text fill="#eeeeee" stroke="none" font-family="Arial" font-size="24px" font-style="normal" font-weight="normal" text-decoration="none" x="200" y="30">UNREGISTERED</text><text fill="#eeeeee" stroke="none" font-family="Arial" font-size="24px" font-style="normal" font-weight="normal" text-decoration="none" x="200" y="60">UNREGISTERED</text><text fill="#eeeeee" stroke="none" font-family="Arial" font-size="24px" font-style="normal" font-weight="normal" text-decoration="none" x="200" y="90">UNREGISTERED</text><text fill="#eeeeee" stroke="none" font-family="Arial" font-size="24px" font-style="normal" font-weight="normal" text-decoration="none" x="200" y="120">UNREGISTERED</text><text fill="#eeeeee" stroke="none" font-family="Arial" font-size="24px" font-style="normal" font-weight="normal" text-decoration="none" x="200" y="150">UNREGISTERED</text><text fill="#eeeeee" stroke="none" font-family="Arial" font-size="24px" font-style="normal" font-weight="normal" text-decoration="none" x="200" y="180">UNREGISTERED</text><text fill="#eeeeee" stroke="none" font-family="Arial" font-size="24px" font-style="normal" font-weight="normal" text-decoration="none" x="200" y="210">UNREGISTERED</text><text fill="#eeeeee" stroke="none" font-family="Arial" font-size="24px" font-style="normal" font-weight="normal" text-decoration="none" x="200" y="240">UNREGISTERED</text><text fill="#eeeeee" stroke="none" font-family="Arial" font-size="24px" font-style="normal" font-weight="normal" text-decoration="none" x="200" y="270">UNREGISTERED</text><text fill="#eeeeee" stroke="none" font-family="Arial" font-size="24px" font-style="normal" font-weight="normal" text-decoration="none" x="200" y="300">UNREGISTERED</text><text fill="#eeeeee" stroke="none" font-family="Arial" font-size="24px" font-style="normal" font-weight="normal" text-decoration="none" x="200" y="330">UNREGISTERED</text><text fill="#eeeeee" stroke="none" font-family="Arial" font-size="24px" font-style="normal" font-weight="normal" text-decoration="none" x="200" y="360">UNREGISTERED</text><text fill="#eeeeee" stroke="none" font-family="Arial" font-size="24px" font-style="normal" font-weight="normal" text-decoration="none" x="200" y="390">UNREGISTERED</text><text fill="#eeeeee" stroke="none" font-family="Arial" font-size="24px" font-style="normal" font-weight="normal" text-decoration="none" x="200" y="420">UNREGISTERED</text><text fill="#eeeeee" stroke="none" font-family="Arial" font-size="24px" font-style="normal" font-weight="normal" text-decoration="none" x="200" y="450">UNREGISTERED</text><text fill="#eeeeee" stroke="none" font-family="Arial" font-size="24px" font-style="normal" font-weight="normal" text-decoration="none" x="200" y="480">UNREGISTERED</text><text fill="#eeeeee" stroke="none" font-family="Arial" font-size="24px" font-style="normal" font-weight="normal" text-decoration="none" x="200" y="510">UNREGISTERED</text><text fill="#eeeeee" stroke="none" font-family="Arial" font-size="24px" font-style="normal" font-weight="normal" text-decoration="none" x="400" y="0">UNREGISTERED</text><text fill="#eeeeee" stroke="none" font-family="Arial" font-size="24px" font-style="normal" font-weight="normal" text-decoration="none" x="400" y="30">UNREGISTERED</text><text fill="#eeeeee" stroke="none" font-family="Arial" font-size="24px" font-style="normal" font-weight="normal" text-decoration="none" x="400" y="60">UNREGISTERED</text><text fill="#eeeeee" stroke="none" font-family="Arial" font-size="24px" font-style="normal" font-weight="normal" text-decoration="none" x="400" y="90">UNREGISTERED</text><text fill="#eeeeee" stroke="none" font-family="Arial" font-size="24px" font-style="normal" font-weight="normal" text-decoration="none" x="400" y="120">UNREGISTERED</text><text fill="#eeeeee" stroke="none" font-family="Arial" font-size="24px" font-style="normal" font-weight="normal" text-decoration="none" x="400" y="150">UNREGISTERED</text><text fill="#eeeeee" stroke="none" font-family="Arial" font-size="24px" font-style="normal" font-weight="normal" text-decoration="none" x="400" y="180">UNREGISTERED</text><text fill="#eeeeee" stroke="none" font-family="Arial" font-size="24px" font-style="normal" font-weight="normal" text-decoration="none" x="400" y="210">UNREGISTERED</text><text fill="#eeeeee" stroke="none" font-family="Arial" font-size="24px" font-style="normal" font-weight="normal" text-decoration="none" x="400" y="240">UNREGISTERED</text><text fill="#eeeeee" stroke="none" font-family="Arial" font-size="24px" font-style="normal" font-weight="normal" text-decoration="none" x="400" y="270">UNREGISTERED</text><text fill="#eeeeee" stroke="none" font-family="Arial" font-size="24px" font-style="normal" font-weight="normal" text-decoration="none" x="400" y="300">UNREGISTERED</text><text fill="#eeeeee" stroke="none" font-family="Arial" font-size="24px" font-style="normal" font-weight="normal" text-decoration="none" x="400" y="330">UNREGISTERED</text><text fill="#eeeeee" stroke="none" font-family="Arial" font-size="24px" font-style="normal" font-weight="normal" text-decoration="none" x="400" y="360">UNREGISTERED</text><text fill="#eeeeee" stroke="none" font-family="Arial" font-size="24px" font-style="normal" font-weight="normal" text-decoration="none" x="400" y="390">UNREGISTERED</text><text fill="#eeeeee" stroke="none" font-family="Arial" font-size="24px" font-style="normal" font-weight="normal" text-decoration="none" x="400" y="420">UNREGISTERED</text><text fill="#eeeeee" stroke="none" font-family="Arial" font-size="24px" font-style="normal" font-weight="normal" text-decoration="none" x="400" y="450">UNREGISTERED</text><text fill="#eeeeee" stroke="none" font-family="Arial" font-size="24px" font-style="normal" font-weight="normal" text-decoration="none" x="400" y="480">UNREGISTERED</text><text fill="#eeeeee" stroke="none" font-family="Arial" font-size="24px" font-style="normal" font-weight="normal" text-decoration="none" x="400" y="510">UNREGISTERED</text><g transform="translate(-198,-246) scale(1,1)"><path fill="#C0C0C0" stroke="none" d="M 399 272.5 C 399 267.2532944 403.2532944 263 408.5 263 C 413.7467056 263 418 267.2532944 418 272.5 C 418 277.7467056 413.7467056 282 408.5 282 C 403.2532944 282 399 277.7467056 399 272.5 Z" opacity="0.2"/></g><g transform="translate(-198,-246) scale(1,1)"><path fill="#000000" stroke="none" d="M 392 265.5 C 392 260.2532944 396.2532944 256 401.5 256 C 406.7467056 256 411 260.2532944 411 265.5 C 411 270.7467056 406.7467056 275 401.5 275 C 396.2532944 275 392 270.7467056 392 265.5 Z"/></g><g transform="translate(-198,-246) scale(1,1)"><path fill="#C0C0C0" stroke="none" d="M 361 327 L 462.66455078125 327 Q 472.66455078125 327 472.66455078125 337 L 472.66455078125 357 Q 472.66455078125 367 462.66455078125 367 L 361 367 Q 351 367 351 357 L 351 337 Q 351 327 361 327 Z" opacity="0.2"/></g><g transform="translate(-198,-246) scale(1,1)"><path fill="#ffffff" stroke="none" d="M 354 320 L 455.66455078125 320 Q 465.66455078125 320 465.66455078125 330 L 465.66455078125 350 Q 465.66455078125 360 455.66455078125 360 L 354 360 Q 344 360 344 350 L 344 330 Q 344 320 354 320 Z"/></g><g transform="translate(-198,-246) scale(1,1)"><path fill="none" stroke="#000000" d="M 354 320 L 455.66455078125 320 Q 465.66455078125 320 465.66455078125 330 L 465.66455078125 350 Q 465.66455078125 360 455.66455078125 360 L 354 360 Q 344 360 344 350 L 344 330 Q 344 320 354 320 Z" stroke-miterlimit="10"/></g><g transform="translate(-198,-246) scale(1,1)"><g><path fill="none" stroke="none"/><text fill="#000000" stroke="none" font-family="Arial" font-size="13px" font-style="normal" font-weight="bold" text-decoration="none" x="351.715087890625" y="339.5">update patient MR</text></g></g><g transform="translate(-198,-246) scale(1,1)"><path fill="#C0C0C0" stroke="none" d="M 225 471 L 330.29541015625 471 Q 340.29541015625 471 340.29541015625 481 L 340.29541015625 501 Q 340.29541015625 511 330.29541015625 511 L 225 511 Q 215 511 215 501 L 215 481 Q 215 471 225 471 Z" opacity="0.2"/></g><g transform="translate(-198,-246) scale(1,1)"><path fill="#ffffff" stroke="none" d="M 218 464 L 323.29541015625 464 Q 333.29541015625 464 333.29541015625 474 L 333.29541015625 494 Q 333.29541015625 504 323.29541015625 504 L 218 504 Q 208 504 208 494 L 208 474 Q 208 464 218 464 Z"/></g><g transform="translate(-198,-246) scale(1,1)"><path fill="none" stroke="#000000" d="M 218 464 L 323.29541015625 464 Q 333.29541015625 464 333.29541015625 474 L 333.29541015625 494 Q 333.29541015625 504 323.29541015625 504 L 218 504 Q 208 504 208 494 L 208 474 Q 208 464 218 464 Z" stroke-miterlimit="10"/></g><g transform="translate(-198,-246) scale(1,1)"><g><path fill="none" stroke="none"/><text fill="#000000" stroke="none" font-family="Arial" font-size="13px" font-style="normal" font-weight="bold" text-decoration="none" x="216.8037109375" y="483.5">add new diagnosis</text></g></g><g transform="translate(-198,-246) scale(1,1)"><path fill="#C0C0C0" stroke="none" d="M 481 471 L 598.578125 471 Q 608.578125 471 608.578125 481 L 608.578125 501 Q 608.578125 511 598.578125 511 L 481 511 Q 471 511 471 501 L 471 481 Q 471 471 481 471 Z" opacity="0.2"/></g><g transform="translate(-198,-246) scale(1,1)"><path fill="#ffffff" stroke="none" d="M 474 464 L 591.578125 464 Q 601.578125 464 601.578125 474 L 601.578125 494 Q 601.578125 504 591.578125 504 L 474 504 Q 464 504 464 494 L 464 474 Q 464 464 474 464 Z"/></g><g transform="translate(-198,-246) scale(1,1)"><path fill="none" stroke="#000000" d="M 474 464 L 591.578125 464 Q 601.578125 464 601.578125 474 L 601.578125 494 Q 601.578125 504 591.578125 504 L 474 504 Q 464 504 464 494 L 464 474 Q 464 464 474 464 Z" stroke-miterlimit="10"/></g><g transform="translate(-198,-246) scale(1,1)"><g><path fill="none" stroke="none"/><text fill="#000000" stroke="none" font-family="Arial" font-size="13px" font-style="normal" font-weight="bold" text-decoration="none" x="473.52734375" y="483.5">add patient progress</text></g></g><g transform="translate(-198,-246) scale(1,1)"><path fill="none" stroke="#000000" d="M 401 276 L 403 319" stroke-miterlimit="10"/></g><g transform="translate(-198,-246) scale(1,1)"><path fill="none" stroke="#000000" d="M 398.322856065764 309.0438800419823 L 403 319 L 406.73279974413725 308.6527198708951" stroke-miterlimit="10"/></g><g transform="translate(-198,-246) scale(1,1)"><path fill="#C0C0C0" stroke="none" d="M 391 747.5 C 391 740.59644 396.59644 735 403.5 735 C 410.40356 735 416 740.59644 416 747.5 C 416 754.40356 410.40356 760 403.5 760 C 396.59644 760 391 754.40356 391 747.5 Z" opacity="0.2"/></g><g transform="translate(-198,-246) scale(1,1)"><path fill="none" stroke="#000000" d="M 384 740.5 C 384 733.59644 389.59644 728 396.5 728 C 403.40356 728 409 733.59644 409 740.5 C 409 747.40356 403.40356 753 396.5 753 C 389.59644 753 384 747.40356 384 740.5 Z" stroke-miterlimit="10"/></g><g transform="translate(-198,-246) scale(1,1)"><path fill="#000000" stroke="none" d="M 389 740.5 C 389 736.357864 392.357864 733 396.5 733 C 400.642136 733 404 736.357864 404 740.5 C 404 744.642136 400.642136 748 396.5 748 C 392.357864 748 389 744.642136 389 740.5 Z"/></g><g transform="translate(-198,-246) scale(1,1)"><path fill="#C0C0C0" stroke="none" d="M 399 424.5 L 410.5 415 L 421 424.5 L 410.5 433 L 399 424.5" opacity="0.2"/></g><g transform="translate(-198,-246) scale(1,1)"><path fill="#ffffff" stroke="none" d="M 392 417 L 403 408 L 414 417 L 403 426 L 392 417"/></g><g transform="translate(-198,-246) scale(1,1)"><path fill="none" stroke="#000000" d="M 392 417 L 403 408 L 414 417 L 403 426 L 392 417 L 392 417" stroke-miterlimit="10"/></g><g transform="translate(-198,-246) scale(1,1)"><path fill="none" stroke="#000000" d="M 404 361 L 403 407" stroke-miterlimit="10"/></g><g transform="translate(-198,-246) scale(1,1)"><path fill="none" stroke="#000000" d="M 399.0123521078249 396.74823604017183 L 403 407 L 407.42939894957703 396.93121531934037" stroke-miterlimit="10"/></g><g transform="translate(-198,-246) scale(1,1)"><path fill="none" stroke="#000000" d="M 391 423 L 312 463" stroke-miterlimit="10"/></g><g transform="translate(-198,-246) scale(1,1)"><path fill="none" stroke="#000000" d="M 319.1651581083797 454.6537128445086 L 312 463 L 322.9682481320872 462.1648156413309" stroke-miterlimit="10"/></g><g transform="translate(-198,-246) scale(1,1)"><path fill="none" stroke="#000000" d="M 415 423 L 492 463" stroke-miterlimit="10"/></g><g transform="translate(-198,-246) scale(1,1)"><path fill="none" stroke="#000000" d="M 481.0410423891061 462.0506591325396 L 492 463 L 484.9221321236398 454.5795613935622" stroke-miterlimit="10"/></g><g transform="translate(-198,-246) scale(1,1)"><path fill="#C0C0C0" stroke="none" d="M 361 591 L 443.89453125 591 Q 453.89453125 591 453.89453125 601 L 453.89453125 621 Q 453.89453125 631 443.89453125 631 L 361 631 Q 351 631 351 621 L 351 601 Q 351 591 361 591 Z" opacity="0.2"/></g><g transform="translate(-198,-246) scale(1,1)"><path fill="#ffffff" stroke="none" d="M 354 584 L 436.89453125 584 Q 446.89453125 584 446.89453125 594 L 446.89453125 614 Q 446.89453125 624 436.89453125 624 L 354 624 Q 344 624 344 614 L 344 594 Q 344 584 354 584 Z"/></g><g transform="translate(-198,-246) scale(1,1)"><path fill="none" stroke="#000000" d="M 354 584 L 436.89453125 584 Q 446.89453125 584 446.89453125 594 L 446.89453125 614 Q 446.89453125 624 436.89453125 624 L 354 624 Q 344 624 344 614 L 344 594 Q 344 584 354 584 Z" stroke-miterlimit="10"/></g><g transform="translate(-198,-246) scale(1,1)"><g><path fill="none" stroke="none"/><text fill="#000000" stroke="none" font-family="Arial" font-size="13px" font-style="normal" font-weight="bold" text-decoration="none" x="352.451416015625" y="603.5">confirm update</text></g></g><g transform="translate(-198,-246) scale(1,1)"><path fill="none" stroke="#000000" d="M 292 504 L 292 604 L 344 604" stroke-miterlimit="10"/></g><g transform="translate(-198,-246) scale(1,1)"><path fill="none" stroke="#000000" d="M 333.83732514237585 608.209517756016 L 344 604 L 333.83732514237585 599.790482243984" stroke-miterlimit="10"/></g><g transform="translate(-198,-246) scale(1,1)"><path fill="none" stroke="#000000" d="M 508 504 L 508 604 L 447 604" stroke-miterlimit="10"/></g><g transform="translate(-198,-246) scale(1,1)"><path fill="none" stroke="#000000" d="M 457.16267485762415 599.790482243984 L 447 604 L 457.16267485762415 608.209517756016" stroke-miterlimit="10"/></g><g transform="translate(-198,-246) scale(1,1)"><path fill="none" stroke="#000000" d="M 395 625 L 396 727" stroke-miterlimit="10"/></g><g transform="translate(-198,-246) scale(1,1)"><path fill="none" stroke="#000000" d="M 391.6910552529352 716.8790813081646 L 396 727 L 400.1096861884268 716.7965457107579" stroke-miterlimit="10"/></g></g></svg>