<svg version="1.1" xmlns="http://www.w3.org/2000/svg" xmlns:xlink="http://www.w3.org/1999/xlink" width="198.76806640625" height="253"><defs/><g><text fill="#eeeeee" stroke="none" font-family="Arial" font-size="24px" font-style="normal" font-weight="normal" text-decoration="none" x="0" y="0">UNREGISTERED</text><text fill="#eeeeee" stroke="none" font-family="Arial" font-size="24px" font-style="normal" font-weight="normal" text-decoration="none" x="0" y="30">UNREGISTERED</text><text fill="#eeeeee" stroke="none" font-family="Arial" font-size="24px" font-style="normal" font-weight="normal" text-decoration="none" x="0" y="60">UNREGISTERED</text><text fill="#eeeeee" stroke="none" font-family="Arial" font-size="24px" font-style="normal" font-weight="normal" text-decoration="none" x="0" y="90">UNREGISTERED</text><text fill="#eeeeee" stroke="none" font-family="Arial" font-size="24px" font-style="normal" font-weight="normal" text-decoration="none" x="0" y="120">UNREGISTERED</text><text fill="#eeeeee" stroke="none" font-family="Arial" font-size="24px" font-style="normal" font-weight="normal" text-decoration="none" x="0" y="150">UNREGISTERED</text><text fill="#eeeeee" stroke="none" font-family="Arial" font-size="24px" font-style="normal" font-weight="normal" text-decoration="none" x="0" y="180">UNREGISTERED</text><text fill="#eeeeee" stroke="none" font-family="Arial" font-size="24px" font-style="normal" font-weight="normal" text-decoration="none" x="0" y="210">UNREGISTERED</text><text fill="#eeeeee" stroke="none" font-family="Arial" font-size="24px" font-style="normal" font-weight="normal" text-decoration="none" x="0" y="240">UNREGISTERED</text><g transform="translate(-790,-526) scale(1,1)"><path fill="#C0C0C0" stroke="none" d="M 887 552.5 C 887 547.2532944 891.2532944 543 896.5 543 C 901.7467056 543 906 547.2532944 906 552.5 C 906 557.7467056 901.7467056 562 896.5 562 C 891.2532944 562 887 557.7467056 887 552.5 Z" opacity="0.2"/></g><g transform="translate(-790,-526) scale(1,1)"><path fill="#000000" stroke="none" d="M 880 545.5 C 880 540.2532944 884.2532944 536 889.5 536 C 894.7467056 536 899 540.2532944 899 545.5 C 899 550.7467056 894.7467056 555 889.5 555 C 884.2532944 555 880 550.7467056 880 545.5 Z"/></g><g transform="translate(-790,-526) scale(1,1)"><path fill="#C0C0C0" stroke="none" d="M 817 631 L 975.76806640625 631 Q 985.76806640625 631 985.76806640625 641 L 985.76806640625 661 Q 985.76806640625 671 975.76806640625 671 L 817 671 Q 807 671 807 661 L 807 641 Q 807 631 817 631 Z" opacity="0.2"/></g><g transform="translate(-790,-526) scale(1,1)"><path fill="#ffffff" stroke="none" d="M 810 624 L 968.76806640625 624 Q 978.76806640625 624 978.76806640625 634 L 978.76806640625 654 Q 978.76806640625 664 968.76806640625 664 L 810 664 Q 800 664 800 654 L 800 634 Q 800 624 810 624 Z"/></g><g transform="translate(-790,-526) scale(1,1)"><path fill="none" stroke="#000000" d="M 810 624 L 968.76806640625 624 Q 978.76806640625 624 978.76806640625 634 L 978.76806640625 654 Q 978.76806640625 664 968.76806640625 664 L 810 664 Q 800 664 800 654 L 800 634 Q 800 624 810 624 Z" stroke-miterlimit="10"/></g><g transform="translate(-790,-526) scale(1,1)"><g><path fill="none" stroke="none"/><text fill="#000000" stroke="none" font-family="Arial" font-size="13px" font-style="normal" font-weight="bold" text-decoration="none" x="811.339599609375" y="643.5">prepared prescripted drugs</text></g></g><g transform="translate(-790,-526) scale(1,1)"><path fill="#C0C0C0" stroke="none" d="M 879 763.5 C 879 756.59644 884.59644 751 891.5 751 C 898.40356 751 904 756.59644 904 763.5 C 904 770.40356 898.40356 776 891.5 776 C 884.59644 776 879 770.40356 879 763.5 Z" opacity="0.2"/></g><g transform="translate(-790,-526) scale(1,1)"><path fill="none" stroke="#000000" d="M 872 756.5 C 872 749.59644 877.59644 744 884.5 744 C 891.40356 744 897 749.59644 897 756.5 C 897 763.40356 891.40356 769 884.5 769 C 877.59644 769 872 763.40356 872 756.5 Z" stroke-miterlimit="10"/></g><g transform="translate(-790,-526) scale(1,1)"><path fill="#000000" stroke="none" d="M 877 756.5 C 877 752.357864 880.357864 749 884.5 749 C 888.642136 749 892 752.357864 892 756.5 C 892 760.642136 888.642136 764 884.5 764 C 880.357864 764 877 760.642136 877 756.5 Z"/></g><g transform="translate(-790,-526) scale(1,1)"><path fill="none" stroke="#000000" d="M 889 556 L 889 623" stroke-miterlimit="10"/></g><g transform="translate(-790,-526) scale(1,1)"><path fill="none" stroke="#000000" d="M 884.790482243984 612.8373251423759 L 889 623 L 893.209517756016 612.8373251423759" stroke-miterlimit="10"/></g><g transform="translate(-790,-526) scale(1,1)"><path fill="none" stroke="#000000" d="M 888 665 L 885 743" stroke-miterlimit="10"/></g><g transform="translate(-790,-526) scale(1,1)"><path fill="none" stroke="#000000" d="M 881.18417566617 732.6830486744702 L 885 743 L 889.5969909811859 733.0066184942785" stroke-miterlimit="10"/></g></g></svg>