<svg version="1.1" xmlns="http://www.w3.org/2000/svg" xmlns:xlink="http://www.w3.org/1999/xlink" width="252" height="445"><defs/><g><text fill="#eeeeee" stroke="none" font-family="Arial" font-size="24px" font-style="normal" font-weight="normal" text-decoration="none" x="0" y="0">UNREGISTERED</text><text fill="#eeeeee" stroke="none" font-family="Arial" font-size="24px" font-style="normal" font-weight="normal" text-decoration="none" x="0" y="30">UNREGISTERED</text><text fill="#eeeeee" stroke="none" font-family="Arial" font-size="24px" font-style="normal" font-weight="normal" text-decoration="none" x="0" y="60">UNREGISTERED</text><text fill="#eeeeee" stroke="none" font-family="Arial" font-size="24px" font-style="normal" font-weight="normal" text-decoration="none" x="0" y="90">UNREGISTERED</text><text fill="#eeeeee" stroke="none" font-family="Arial" font-size="24px" font-style="normal" font-weight="normal" text-decoration="none" x="0" y="120">UNREGISTERED</text><text fill="#eeeeee" stroke="none" font-family="Arial" font-size="24px" font-style="normal" font-weight="normal" text-decoration="none" x="0" y="150">UNREGISTERED</text><text fill="#eeeeee" stroke="none" font-family="Arial" font-size="24px" font-style="normal" font-weight="normal" text-decoration="none" x="0" y="180">UNREGISTERED</text><text fill="#eeeeee" stroke="none" font-family="Arial" font-size="24px" font-style="normal" font-weight="normal" text-decoration="none" x="0" y="210">UNREGISTERED</text><text fill="#eeeeee" stroke="none" font-family="Arial" font-size="24px" font-style="normal" font-weight="normal" text-decoration="none" x="0" y="240">UNREGISTERED</text><text fill="#eeeeee" stroke="none" font-family="Arial" font-size="24px" font-style="normal" font-weight="normal" text-decoration="none" x="0" y="270">UNREGISTERED</text><text fill="#eeeeee" stroke="none" font-family="Arial" font-size="24px" font-style="normal" font-weight="normal" text-decoration="none" x="0" y="300">UNREGISTERED</text><text fill="#eeeeee" stroke="none" font-family="Arial" font-size="24px" font-style="normal" font-weight="normal" text-decoration="none" x="0" y="330">UNREGISTERED</text><text fill="#eeeeee" stroke="none" font-family="Arial" font-size="24px" font-style="normal" font-weight="normal" text-decoration="none" x="0" y="360">UNREGISTERED</text><text fill="#eeeeee" stroke="none" font-family="Arial" font-size="24px" font-style="normal" font-weight="normal" text-decoration="none" x="0" y="390">UNREGISTERED</text><text fill="#eeeeee" stroke="none" font-family="Arial" font-size="24px" font-style="normal" font-weight="normal" text-decoration="none" x="0" y="420">UNREGISTERED</text><text fill="#eeeeee" stroke="none" font-family="Arial" font-size="24px" font-style="normal" font-weight="normal" text-decoration="none" x="200" y="0">UNREGISTERED</text><text fill="#eeeeee" stroke="none" font-family="Arial" font-size="24px" font-style="normal" font-weight="normal" text-decoration="none" x="200" y="30">UNREGISTERED</text><text fill="#eeeeee" stroke="none" font-family="Arial" font-size="24px" font-style="normal" font-weight="normal" text-decoration="none" x="200" y="60">UNREGISTERED</text><text fill="#eeeeee" stroke="none" font-family="Arial" font-size="24px" font-style="normal" font-weight="normal" text-decoration="none" x="200" y="90">UNREGISTERED</text><text fill="#eeeeee" stroke="none" font-family="Arial" font-size="24px" font-style="normal" font-weight="normal" text-decoration="none" x="200" y="120">UNREGISTERED</text><text fill="#eeeeee" stroke="none" font-family="Arial" font-size="24px" font-style="normal" font-weight="normal" text-decoration="none" x="200" y="150">UNREGISTERED</text><text fill="#eeeeee" stroke="none" font-family="Arial" font-size="24px" font-style="normal" font-weight="normal" text-decoration="none" x="200" y="180">UNREGISTERED</text><text fill="#eeeeee" stroke="none" font-family="Arial" font-size="24px" font-style="normal" font-weight="normal" text-decoration="none" x="200" y="210">UNREGISTERED</text><text fill="#eeeeee" stroke="none" font-family="Arial" font-size="24px" font-style="normal" font-weight="normal" text-decoration="none" x="200" y="240">UNREGISTERED</text><text fill="#eeeeee" stroke="none" font-family="Arial" font-size="24px" font-style="normal" font-weight="normal" text-decoration="none" x="200" y="270">UNREGISTERED</text><text fill="#eeeeee" stroke="none" font-family="Arial" font-size="24px" font-style="normal" font-weight="normal" text-decoration="none" x="200" y="300">UNREGISTERED</text><text fill="#eeeeee" stroke="none" font-family="Arial" font-size="24px" font-style="normal" font-weight="normal" text-decoration="none" x="200" y="330">UNREGISTERED</text><text fill="#eeeeee" stroke="none" font-family="Arial" font-size="24px" font-style="normal" font-weight="normal" text-decoration="none" x="200" y="360">UNREGISTERED</text><text fill="#eeeeee" stroke="none" font-family="Arial" font-size="24px" font-style="normal" font-weight="normal" text-decoration="none" x="200" y="390">UNREGISTERED</text><text fill="#eeeeee" stroke="none" font-family="Arial" font-size="24px" font-style="normal" font-weight="normal" text-decoration="none" x="200" y="420">UNREGISTERED</text><g transform="translate(-590,-814) scale(1,1)"><path fill="#C0C0C0" stroke="none" d="M 719 840.5 C 719 835.2532944 723.2532944 831 728.5 831 C 733.7467056 831 738 835.2532944 738 840.5 C 738 845.7467056 733.7467056 850 728.5 850 C 723.2532944 850 719 845.7467056 719 840.5 Z" opacity="0.2"/></g><g transform="translate(-590,-814) scale(1,1)"><path fill="#000000" stroke="none" d="M 712 833.5 C 712 828.2532944 716.2532944 824 721.5 824 C 726.7467056 824 731 828.2532944 731 833.5 C 731 838.7467056 726.7467056 843 721.5 843 C 716.2532944 843 712 838.7467056 712 833.5 Z"/></g><g transform="translate(-590,-814) scale(1,1)"><path fill="#C0C0C0" stroke="none" d="M 617 911 L 829 911 Q 839 911 839 921 L 839 954 Q 839 964 829 964 L 617 964 Q 607 964 607 954 L 607 921 Q 607 911 617 911 Z" opacity="0.2"/></g><g transform="translate(-590,-814) scale(1,1)"><path fill="#ffffff" stroke="none" d="M 610 904 L 822 904 Q 832 904 832 914 L 832 947 Q 832 957 822 957 L 610 957 Q 600 957 600 947 L 600 914 Q 600 904 610 904 Z"/></g><g transform="translate(-590,-814) scale(1,1)"><path fill="none" stroke="#000000" d="M 610 904 L 822 904 Q 832 904 832 914 L 832 947 Q 832 957 822 957 L 610 957 Q 600 957 600 947 L 600 914 Q 600 904 610 904 Z" stroke-miterlimit="10"/></g><g transform="translate(-590,-814) scale(1,1)"><g><path fill="none" stroke="none"/><text fill="#000000" stroke="none" font-family="Arial" font-size="13px" font-style="normal" font-weight="bold" text-decoration="none" x="622.400634765625" y="923.5">generate available schedule and</text><text fill="#000000" stroke="none" font-family="Arial" font-size="13px" font-style="normal" font-weight="bold" text-decoration="none" x="694.6845703125" y="936.5">doctors</text></g></g><g transform="translate(-590,-814) scale(1,1)"><path fill="#C0C0C0" stroke="none" d="M 641 1015 L 793.28076171875 1015 Q 803.28076171875 1015 803.28076171875 1025 L 803.28076171875 1045 Q 803.28076171875 1055 793.28076171875 1055 L 641 1055 Q 631 1055 631 1045 L 631 1025 Q 631 1015 641 1015 Z" opacity="0.2"/></g><g transform="translate(-590,-814) scale(1,1)"><path fill="#ffffff" stroke="none" d="M 634 1008 L 786.28076171875 1008 Q 796.28076171875 1008 796.28076171875 1018 L 796.28076171875 1038 Q 796.28076171875 1048 786.28076171875 1048 L 634 1048 Q 624 1048 624 1038 L 624 1018 Q 624 1008 634 1008 Z"/></g><g transform="translate(-590,-814) scale(1,1)"><path fill="none" stroke="#000000" d="M 634 1008 L 786.28076171875 1008 Q 796.28076171875 1008 796.28076171875 1018 L 796.28076171875 1038 Q 796.28076171875 1048 786.28076171875 1048 L 634 1048 Q 624 1048 624 1038 L 624 1018 Q 624 1008 634 1008 Z" stroke-miterlimit="10"/></g><g transform="translate(-590,-814) scale(1,1)"><g><path fill="none" stroke="none"/><text fill="#000000" stroke="none" font-family="Arial" font-size="13px" font-style="normal" font-weight="bold" text-decoration="none" x="634.628662109375" y="1027.5">update every five miniutes</text></g></g><g transform="translate(-590,-814) scale(1,1)"><path fill="#C0C0C0" stroke="none" d="M 673 1119 L 765 1119 Q 775 1119 775 1129 L 775 1149 Q 775 1159 765 1159 L 673 1159 Q 663 1159 663 1149 L 663 1129 Q 663 1119 673 1119 Z" opacity="0.2"/></g><g transform="translate(-590,-814) scale(1,1)"><path fill="#ffffff" stroke="none" d="M 666 1112 L 758 1112 Q 768 1112 768 1122 L 768 1142 Q 768 1152 758 1152 L 666 1152 Q 656 1152 656 1142 L 656 1122 Q 656 1112 666 1112 Z"/></g><g transform="translate(-590,-814) scale(1,1)"><path fill="none" stroke="#000000" d="M 666 1112 L 758 1112 Q 768 1112 768 1122 L 768 1142 Q 768 1152 758 1152 L 666 1152 Q 656 1152 656 1142 L 656 1122 Q 656 1112 666 1112 Z" stroke-miterlimit="10"/></g><g transform="translate(-590,-814) scale(1,1)"><g><path fill="none" stroke="none"/><text fill="#000000" stroke="none" font-family="Arial" font-size="13px" font-style="normal" font-weight="bold" text-decoration="none" x="671.88916015625" y="1131.5">show on apps</text></g></g><g transform="translate(-590,-814) scale(1,1)"><path fill="#C0C0C0" stroke="none" d="M 703 1243.5 C 703 1236.59644 708.59644 1231 715.5 1231 C 722.40356 1231 728 1236.59644 728 1243.5 C 728 1250.40356 722.40356 1256 715.5 1256 C 708.59644 1256 703 1250.40356 703 1243.5 Z" opacity="0.2"/></g><g transform="translate(-590,-814) scale(1,1)"><path fill="none" stroke="#000000" d="M 696 1236.5 C 696 1229.59644 701.59644 1224 708.5 1224 C 715.40356 1224 721 1229.59644 721 1236.5 C 721 1243.40356 715.40356 1249 708.5 1249 C 701.59644 1249 696 1243.40356 696 1236.5 Z" stroke-miterlimit="10"/></g><g transform="translate(-590,-814) scale(1,1)"><path fill="#000000" stroke="none" d="M 701 1236.5 C 701 1232.357864 704.357864 1229 708.5 1229 C 712.642136 1229 716 1232.357864 716 1236.5 C 716 1240.642136 712.642136 1244 708.5 1244 C 704.357864 1244 701 1240.642136 701 1236.5 Z"/></g><g transform="translate(-590,-814) scale(1,1)"><path fill="none" stroke="#000000" d="M 720 844 L 717 903" stroke-miterlimit="10"/></g><g transform="translate(-590,-814) scale(1,1)"><path fill="none" stroke="#000000" d="M 713.3119929501771 892.6366702262035 L 717 903 L 721.7201659647304 893.0642044472825" stroke-miterlimit="10"/></g><g transform="translate(-590,-814) scale(1,1)"><path fill="none" stroke="#000000" d="M 714 958 L 711 1007" stroke-miterlimit="10"/></g><g transform="translate(-590,-814) scale(1,1)"><path fill="none" stroke="#000000" d="M 707.419391395015 996.599074944126 L 711 1007 L 715.8226920122618 997.1135627370187" stroke-miterlimit="10"/></g><g transform="translate(-590,-814) scale(1,1)"><path fill="none" stroke="#000000" d="M 710 1049 L 712 1111" stroke-miterlimit="10"/></g><g transform="translate(-590,-814) scale(1,1)"><path fill="none" stroke="#000000" d="M 707.4650129238797 1100.9783288709207 L 712 1111 L 715.8796715000755 1100.7068882716885" stroke-miterlimit="10"/></g><g transform="translate(-590,-814) scale(1,1)"><path fill="none" stroke="#000000" d="M 711 1153 L 709 1223" stroke-miterlimit="10"/></g><g transform="translate(-590,-814) scale(1,1)"><path fill="none" stroke="#000000" d="M 705.0824430594122 1212.7212477597106 L 709 1223 L 713.4980443328709 1212.9616935103809" stroke-miterlimit="10"/></g></g></svg>