<svg version="1.1" xmlns="http://www.w3.org/2000/svg" xmlns:xlink="http://www.w3.org/1999/xlink" width="193.01708984375" height="397"><defs/><g><text fill="#eeeeee" stroke="none" font-family="Arial" font-size="24px" font-style="normal" font-weight="normal" text-decoration="none" x="0" y="0">UNREGISTERED</text><text fill="#eeeeee" stroke="none" font-family="Arial" font-size="24px" font-style="normal" font-weight="normal" text-decoration="none" x="0" y="30">UNREGISTERED</text><text fill="#eeeeee" stroke="none" font-family="Arial" font-size="24px" font-style="normal" font-weight="normal" text-decoration="none" x="0" y="60">UNREGISTERED</text><text fill="#eeeeee" stroke="none" font-family="Arial" font-size="24px" font-style="normal" font-weight="normal" text-decoration="none" x="0" y="90">UNREGISTERED</text><text fill="#eeeeee" stroke="none" font-family="Arial" font-size="24px" font-style="normal" font-weight="normal" text-decoration="none" x="0" y="120">UNREGISTERED</text><text fill="#eeeeee" stroke="none" font-family="Arial" font-size="24px" font-style="normal" font-weight="normal" text-decoration="none" x="0" y="150">UNREGISTERED</text><text fill="#eeeeee" stroke="none" font-family="Arial" font-size="24px" font-style="normal" font-weight="normal" text-decoration="none" x="0" y="180">UNREGISTERED</text><text fill="#eeeeee" stroke="none" font-family="Arial" font-size="24px" font-style="normal" font-weight="normal" text-decoration="none" x="0" y="210">UNREGISTERED</text><text fill="#eeeeee" stroke="none" font-family="Arial" font-size="24px" font-style="normal" font-weight="normal" text-decoration="none" x="0" y="240">UNREGISTERED</text><text fill="#eeeeee" stroke="none" font-family="Arial" font-size="24px" font-style="normal" font-weight="normal" text-decoration="none" x="0" y="270">UNREGISTERED</text><text fill="#eeeeee" stroke="none" font-family="Arial" font-size="24px" font-style="normal" font-weight="normal" text-decoration="none" x="0" y="300">UNREGISTERED</text><text fill="#eeeeee" stroke="none" font-family="Arial" font-size="24px" font-style="normal" font-weight="normal" text-decoration="none" x="0" y="330">UNREGISTERED</text><text fill="#eeeeee" stroke="none" font-family="Arial" font-size="24px" font-style="normal" font-weight="normal" text-decoration="none" x="0" y="360">UNREGISTERED</text><text fill="#eeeeee" stroke="none" font-family="Arial" font-size="24px" font-style="normal" font-weight="normal" text-decoration="none" x="0" y="390">UNREGISTERED</text><g transform="translate(-774,-374) scale(1,1)"><path fill="#C0C0C0" stroke="none" d="M 863 400.5 C 863 395.2532944 867.2532944 391 872.5 391 C 877.7467056 391 882 395.2532944 882 400.5 C 882 405.7467056 877.7467056 410 872.5 410 C 867.2532944 410 863 405.7467056 863 400.5 Z" opacity="0.2"/></g><g transform="translate(-774,-374) scale(1,1)"><path fill="#000000" stroke="none" d="M 856 393.5 C 856 388.2532944 860.2532944 384 865.5 384 C 870.7467056 384 875 388.2532944 875 393.5 C 875 398.7467056 870.7467056 403 865.5 403 C 860.2532944 403 856 398.7467056 856 393.5 Z"/></g><g transform="translate(-774,-374) scale(1,1)"><path fill="#C0C0C0" stroke="none" d="M 825 455 L 923.078125 455 Q 933.078125 455 933.078125 465 L 933.078125 485 Q 933.078125 495 923.078125 495 L 825 495 Q 815 495 815 485 L 815 465 Q 815 455 825 455 Z" opacity="0.2"/></g><g transform="translate(-774,-374) scale(1,1)"><path fill="#ffffff" stroke="none" d="M 818 448 L 916.078125 448 Q 926.078125 448 926.078125 458 L 926.078125 478 Q 926.078125 488 916.078125 488 L 818 488 Q 808 488 808 478 L 808 458 Q 808 448 818 448 Z"/></g><g transform="translate(-774,-374) scale(1,1)"><path fill="none" stroke="#000000" d="M 818 448 L 916.078125 448 Q 926.078125 448 926.078125 458 L 926.078125 478 Q 926.078125 488 916.078125 488 L 818 488 Q 808 488 808 478 L 808 458 Q 808 448 818 448 Z" stroke-miterlimit="10"/></g><g transform="translate(-774,-374) scale(1,1)"><g><path fill="none" stroke="none"/><text fill="#000000" stroke="none" font-family="Arial" font-size="13px" font-style="normal" font-weight="bold" text-decoration="none" x="817.911376953125" y="467.5">write prescription</text></g></g><g transform="translate(-774,-374) scale(1,1)"><path fill="#C0C0C0" stroke="none" d="M 817 567 L 932 567 Q 942 567 942 577 L 942 597 Q 942 607 932 607 L 817 607 Q 807 607 807 597 L 807 577 Q 807 567 817 567 Z" opacity="0.2"/></g><g transform="translate(-774,-374) scale(1,1)"><path fill="#ffffff" stroke="none" d="M 810 560 L 925 560 Q 935 560 935 570 L 935 590 Q 935 600 925 600 L 810 600 Q 800 600 800 590 L 800 570 Q 800 560 810 560 Z"/></g><g transform="translate(-774,-374) scale(1,1)"><path fill="none" stroke="#000000" d="M 810 560 L 925 560 Q 935 560 935 570 L 935 590 Q 935 600 925 600 L 810 600 Q 800 600 800 590 L 800 570 Q 800 560 810 560 Z" stroke-miterlimit="10"/></g><g transform="translate(-774,-374) scale(1,1)"><g><path fill="none" stroke="none"/><text fill="#000000" stroke="none" font-family="Arial" font-size="13px" font-style="normal" font-weight="bold" text-decoration="none" x="823.786865234375" y="579.5">input to system</text></g></g><g transform="translate(-774,-374) scale(1,1)"><path fill="#C0C0C0" stroke="none" d="M 801 655 L 954.01708984375 655 Q 964.01708984375 655 964.01708984375 665 L 964.01708984375 685 Q 964.01708984375 695 954.01708984375 695 L 801 695 Q 791 695 791 685 L 791 665 Q 791 655 801 655 Z" opacity="0.2"/></g><g transform="translate(-774,-374) scale(1,1)"><path fill="#ffffff" stroke="none" d="M 794 648 L 947.01708984375 648 Q 957.01708984375 648 957.01708984375 658 L 957.01708984375 678 Q 957.01708984375 688 947.01708984375 688 L 794 688 Q 784 688 784 678 L 784 658 Q 784 648 794 648 Z"/></g><g transform="translate(-774,-374) scale(1,1)"><path fill="none" stroke="#000000" d="M 794 648 L 947.01708984375 648 Q 957.01708984375 648 957.01708984375 658 L 957.01708984375 678 Q 957.01708984375 688 947.01708984375 688 L 794 688 Q 784 688 784 678 L 784 658 Q 784 648 794 648 Z" stroke-miterlimit="10"/></g><g transform="translate(-774,-374) scale(1,1)"><g><path fill="none" stroke="none"/><text fill="#000000" stroke="none" font-family="Arial" font-size="13px" font-style="normal" font-weight="bold" text-decoration="none" x="795.3681640625" y="667.5">system saved prescription</text></g></g><g transform="translate(-774,-374) scale(1,1)"><path fill="none" stroke="#000000" d="M 867 489 L 867 559" stroke-miterlimit="10"/></g><g transform="translate(-774,-374) scale(1,1)"><path fill="none" stroke="#000000" d="M 862.790482243984 548.8373251423759 L 867 559 L 871.209517756016 548.8373251423759" stroke-miterlimit="10"/></g><g transform="translate(-774,-374) scale(1,1)"><path fill="none" stroke="#000000" d="M 868 601 L 869 647" stroke-miterlimit="10"/></g><g transform="translate(-774,-374) scale(1,1)"><path fill="none" stroke="#000000" d="M 864.570601050423 636.9312153193404 L 869 647 L 872.9876478921751 636.7482360401718" stroke-miterlimit="10"/></g><g transform="translate(-774,-374) scale(1,1)"><path fill="none" stroke="#000000" d="M 865 404 L 866 447" stroke-miterlimit="10"/></g><g transform="translate(-774,-374) scale(1,1)"><path fill="none" stroke="#000000" d="M 861.5553427141674 436.9379414824055 L 866 447 L 869.9721025036246 436.7422028826507" stroke-miterlimit="10"/></g><g transform="translate(-774,-374) scale(1,1)"><path fill="#C0C0C0" stroke="none" d="M 871 755.5 C 871 748.59644 876.59644 743 883.5 743 C 890.40356 743 896 748.59644 896 755.5 C 896 762.40356 890.40356 768 883.5 768 C 876.59644 768 871 762.40356 871 755.5 Z" opacity="0.2"/></g><g transform="translate(-774,-374) scale(1,1)"><path fill="none" stroke="#000000" d="M 864 748.5 C 864 741.59644 869.59644 736 876.5 736 C 883.40356 736 889 741.59644 889 748.5 C 889 755.40356 883.40356 761 876.5 761 C 869.59644 761 864 755.40356 864 748.5 Z" stroke-miterlimit="10"/></g><g transform="translate(-774,-374) scale(1,1)"><path fill="#000000" stroke="none" d="M 869 748.5 C 869 744.357864 872.357864 741 876.5 741 C 880.642136 741 884 744.357864 884 748.5 C 884 752.642136 880.642136 756 876.5 756 C 872.357864 756 869 752.642136 869 748.5 Z"/></g><g transform="translate(-774,-374) scale(1,1)"><path fill="none" stroke="#000000" d="M 872 689 L 875 735" stroke-miterlimit="10"/></g><g transform="translate(-774,-374) scale(1,1)"><path fill="none" stroke="#000000" d="M 870.1380278627038 725.1328207203803 L 875 735 L 878.5392159115803 724.5849171519753" stroke-miterlimit="10"/></g></g></svg>